
<svg width="17px" height="16px" viewBox="288 303 17 16" version="1.1" xmlns="http://www.w3.org/2000/svg" xmlns:xlink="http://www.w3.org/1999/xlink">
    <!-- Generator: Sketch 42 (36781) - http://www.bohemiancoding.com/sketch -->
    <desc>Created with Sketch.</desc>
    <defs></defs>
    <path d="M303.1172,308.7905 C303.1172,308.8115 303.1132,308.8335 303.1092,308.8505 C303.0922,308.8505 303.0742,308.8505 303.0562,308.8465 C302.4282,308.7605 300.8692,308.3975 300.1952,308.2405 C300.1682,308.2335 300.1462,308.2275 300.1292,308.2215 C300.1292,308.1865 300.1312,308.1475 300.1312,308.1165 C300.1332,308.0755 300.1332,308.0375 300.1352,307.9985 L300.1352,307.9365 C300.1382,307.5625 300.1462,306.6835 299.3712,306.3255 C298.7632,306.0455 296.9822,305.9435 296.5312,305.9425 C296.0902,305.9425 294.3442,306.0285 293.7402,306.3015 C292.9612,306.6515 292.9612,307.5315 292.9612,307.9055 L292.9612,307.9665 C292.9612,308.0045 292.9632,308.0435 292.9652,308.0845 C292.9652,308.1165 292.9672,308.1555 292.9652,308.1905 C292.9472,308.1955 292.9222,308.2025 292.8882,308.2095 C292.2222,308.3595 290.6622,308.7095 290.0332,308.7905 C290.0152,308.7905 289.9962,308.7925 289.9802,308.7925 C289.9762,308.7755 289.9722,308.7525 289.9722,308.7335 L289.9782,307.5575 C290.0292,307.3285 290.5962,306.1905 292.3962,305.6785 C294.1892,305.1685 295.1952,305.1255 296.0722,305.1255 L296.7362,305.1285 C297.7242,305.1295 298.7462,305.1335 300.7222,305.7155 C302.5172,306.2425 303.0762,307.3845 303.1212,307.6145 L303.1172,308.7905 Z M301.0272,316.6065 L292.0682,316.6065 C291.3882,316.6065 290.8322,316.0655 290.8102,315.3895 L291.5902,309.9265 C292.1892,309.8015 292.8082,309.6645 293.2052,309.5755 C294.3882,309.3075 294.3712,308.3665 294.3632,308.0565 L294.3632,307.9055 C294.3632,307.8175 294.3632,307.6475 294.3812,307.5535 C294.7362,307.4565 295.8592,307.3405 296.5512,307.3405 C297.2112,307.3455 298.3652,307.4725 298.7212,307.5725 C298.7362,307.6675 298.7362,307.8365 298.7342,307.9245 L298.7322,308.0755 C298.7222,308.3855 298.6952,309.3285 299.8852,309.6045 C300.2812,309.6985 300.9082,309.8455 301.5122,309.9735 L302.2852,315.3895 C302.2622,316.0655 301.7052,316.6065 301.0272,316.6065 L301.0272,316.6065 Z M301.1172,304.3735 C298.9492,303.7355 297.7752,303.7315 296.7402,303.7285 L296.0702,303.7275 C295.1372,303.7275 293.9762,303.7725 292.0122,304.3325 C289.5922,305.0225 288.5822,306.7555 288.5782,307.5285 L288.5722,308.7275 C288.5702,309.1415 288.7222,309.5325 288.9922,309.8015 C289.2462,310.0585 289.5882,310.1925 289.9802,310.1925 C290.0292,310.1925 290.0822,310.1885 290.1382,310.1825 L289.4142,315.2485 L289.4102,315.3465 C289.4102,316.8115 290.6012,318.0045 292.0682,318.0045 L301.0272,318.0045 C302.4922,318.0045 303.6852,316.8115 303.6852,315.3465 L302.9612,310.2405 C303.0132,310.2455 303.0642,310.2495 303.1112,310.2495 C304.0292,310.2495 304.5132,309.5185 304.5152,308.7965 L304.5212,307.5985 C304.5252,306.8255 303.5292,305.0825 301.1172,304.3735 L301.1172,304.3735 Z" id="Fill-2612" stroke="none" fill="#C6AF08" fill-rule="evenodd"></path>
    <path d="M298.0195,310.3057 C298.5605,310.3057 298.9985,310.7447 298.9985,311.2877 C298.9985,311.8287 298.5605,312.2667 298.0195,312.2667 C297.4785,312.2667 297.0395,311.8287 297.0395,311.2877 C297.0395,310.7447 297.4785,310.3057 298.0195,310.3057" id="Fill-2614" stroke="none" fill="#C6AF08" fill-rule="evenodd"></path>
    <path d="M295.0762,310.3057 C295.6172,310.3057 296.0562,310.7447 296.0562,311.2877 C296.0562,311.8287 295.6172,312.2667 295.0762,312.2667 C294.5352,312.2667 294.0972,311.8287 294.0972,311.2877 C294.0972,310.7447 294.5352,310.3057 295.0762,310.3057" id="Fill-2616" stroke="none" fill="#C6AF08" fill-rule="evenodd"></path>
    <path d="M298.0195,313.1064 C298.5605,313.1064 298.9985,313.5454 298.9985,314.0874 C298.9985,314.6264 298.5605,315.0664 298.0195,315.0664 C297.4785,315.0664 297.0395,314.6264 297.0395,314.0874 C297.0395,313.5454 297.4785,313.1064 298.0195,313.1064" id="Fill-2618" stroke="none" fill="#C6AF08" fill-rule="evenodd"></path>
    <path d="M295.0762,313.1064 C295.6172,313.1064 296.0562,313.5454 296.0562,314.0874 C296.0562,314.6264 295.6172,315.0664 295.0762,315.0664 C294.5352,315.0664 294.0972,314.6264 294.0972,314.0874 C294.0972,313.5454 294.5352,313.1064 295.0762,313.1064" id="Fill-2620" stroke="none" fill="#C6AF08" fill-rule="evenodd"></path>
</svg>
