
<svg width="18px" height="21px" viewBox="70 626 18 21" version="1.1" xmlns="http://www.w3.org/2000/svg" xmlns:xlink="http://www.w3.org/1999/xlink">
    <!-- Generator: Sketch 42 (36781) - http://www.bohemiancoding.com/sketch -->
    <desc>Created with Sketch.</desc>
    <defs></defs>
    <path d="M79.9131,644.3828 L79.9131,635.9068 L82.9111,634.4608 L82.9111,636.4298 L84.1091,635.8298 L84.1091,633.8828 L86.5091,632.7298 L86.5091,641.0848 L79.9131,644.3828 L79.9131,644.3828 Z M72.1161,632.7298 L78.7141,635.9068 L78.7141,644.3828 L72.1161,641.0838 L72.1161,632.7298 L72.1161,632.7298 Z M79.3111,634.8618 L72.4991,631.5828 L75.3391,630.1608 L82.2081,633.4688 L79.3111,634.8618 L79.3111,634.8618 Z M86.1281,631.5798 L83.5891,632.8028 L76.6961,629.4818 L79.3111,628.1728 L86.1281,631.5798 L86.1281,631.5798 Z M79.3111,626.8348 L70.9171,631.0308 L70.9171,641.8258 L79.3111,646.0248 L87.7081,641.8258 L87.7081,631.0308 L79.3111,626.8348 L79.3111,626.8348 Z" id="icon-product" stroke="none" fill="#666666" fill-rule="evenodd"></path>
</svg>
