
<svg width="35px" height="74px" viewBox="30 10 35 74" version="1.1" xmlns="http://www.w3.org/2000/svg" xmlns:xlink="http://www.w3.org/1999/xlink">
    <!-- Generator: Sketch 42 (36781) - http://www.bohemiancoding.com/sketch -->
    <desc>Created with Sketch.</desc>
    <defs></defs>
    <path d="M46.5005,28.1914 C46.5005,27.8094 46.8115,27.4984 47.1945,27.4984 L49.2665,27.4984 C51.1805,27.4984 52.7235,25.2354 52.7235,23.3594 L52.7235,19.2054 C52.7235,18.8234 53.0325,18.5134 53.4145,18.5134 C53.7945,18.5134 54.1045,18.8234 54.1045,19.2054 L54.1045,23.3594 C54.1045,25.9684 52.0345,28.8834 49.2665,28.8834 L47.1945,28.8834 C46.8115,28.8834 46.5005,28.5714 46.5005,28.1914 L46.5005,28.1914 Z M38.8995,23.3594 L38.8995,15.0574 C38.8995,14.6754 39.2095,14.3684 39.5885,14.3684 C39.9695,14.3684 40.2805,14.6754 40.2805,15.0574 L40.2805,23.3594 C40.2805,25.2354 41.8235,27.4984 43.7375,27.4984 L45.8095,27.4984 C46.1925,27.4984 46.5005,27.8094 46.5005,28.1914 C46.5005,28.5714 46.1925,28.8834 45.8095,28.8834 L43.7375,28.8834 C40.9675,28.8834 38.8995,25.9684 38.8995,23.3594 L38.8995,23.3594 Z M47.1925,11.9834 L47.1925,42.3954 C47.1925,42.7784 46.8815,43.0874 46.5015,43.0874 C46.1205,43.0874 45.8095,42.7784 45.8095,42.3954 L45.8095,11.9834 C45.8095,11.6004 46.1205,11.2924 46.5015,11.2924 C46.8815,11.2924 47.1925,11.6004 47.1925,11.9834 L47.1925,11.9834 Z M50.4975,40.5794 C50.7355,40.8784 50.6865,41.3144 50.3895,41.5524 L46.9325,44.3174 C46.6805,44.5184 46.3235,44.5184 46.0695,44.3174 L42.6125,41.5524 C42.3155,41.3144 42.2665,40.8784 42.5025,40.5794 C42.7455,40.2824 43.1765,40.2334 43.4755,40.4734 L46.5005,42.8904 L49.5245,40.4734 C49.6515,40.3704 49.8055,40.3214 49.9575,40.3214 C50.1595,40.3214 50.3605,40.4114 50.4975,40.5794 L50.4975,40.5794 Z" id="icon-import" stroke="#A08305" stroke-width="1" fill="none"></path>
    <path d="M46.5005,28.1914 C46.5005,27.8094 46.8115,27.4984 47.1945,27.4984 L49.2665,27.4984 C51.1805,27.4984 52.7235,25.2354 52.7235,23.3594 L52.7235,19.2054 C52.7235,18.8234 53.0325,18.5134 53.4145,18.5134 C53.7945,18.5134 54.1045,18.8234 54.1045,19.2054 L54.1045,23.3594 C54.1045,25.9684 52.0345,28.8834 49.2665,28.8834 L47.1945,28.8834 C46.8115,28.8834 46.5005,28.5714 46.5005,28.1914 M38.8995,23.3594 L38.8995,15.0574 C38.8995,14.6754 39.2095,14.3684 39.5885,14.3684 C39.9695,14.3684 40.2805,14.6754 40.2805,15.0574 L40.2805,23.3594 C40.2805,25.2354 41.8235,27.4984 43.7375,27.4984 L45.8095,27.4984 C46.1925,27.4984 46.5005,27.8094 46.5005,28.1914 C46.5005,28.5714 46.1925,28.8834 45.8095,28.8834 L43.7375,28.8834 C40.9675,28.8834 38.8995,25.9684 38.8995,23.3594 M47.1925,11.9834 L47.1925,42.3954 C47.1925,42.7784 46.8815,43.0874 46.5015,43.0874 C46.1205,43.0874 45.8095,42.7784 45.8095,42.3954 L45.8095,11.9834 C45.8095,11.6004 46.1205,11.2924 46.5015,11.2924 C46.8815,11.2924 47.1925,11.6004 47.1925,11.9834 M50.4975,40.5794 C50.7355,40.8784 50.6865,41.3144 50.3895,41.5524 L46.9325,44.3174 C46.6805,44.5184 46.3235,44.5184 46.0695,44.3174 L42.6125,41.5524 C42.3155,41.3144 42.2665,40.8784 42.5025,40.5794 C42.7455,40.2824 43.1765,40.2334 43.4755,40.4734 L46.5005,42.8904 L49.5245,40.4734 C49.6515,40.3704 49.8055,40.3214 49.9575,40.3214 C50.1595,40.3214 50.3605,40.4114 50.4975,40.5794" id="icon-import" stroke="none" fill="#A08305" fill-rule="evenodd"></path>
    <path d="M49.1582,80.6025 L49.1582,63.4085 L55.2412,60.4815 L55.2412,64.4685 L57.6712,63.2525 L57.6712,59.3095 L62.5342,56.9655 L62.5342,73.9145 L49.1582,80.6025 Z M33.3432,56.9655 L46.7222,63.4085 L46.7222,80.6025 L33.3432,73.9115 L33.3432,56.9655 Z M47.9382,61.2925 L34.1152,54.6375 L39.8792,51.7555 L53.8142,58.4685 L47.9382,61.2925 Z M61.7612,54.6365 L56.6162,57.1125 L42.6302,50.3805 L47.9382,47.7255 L61.7612,54.6365 Z M47.9382,45.0045 L30.9082,53.5185 L30.9082,75.4165 L47.9382,83.9335 L64.9682,75.4165 L64.9682,53.5185 L47.9382,45.0045 Z" id="icon-import" stroke="none" fill="#A08305" fill-rule="evenodd"></path>
</svg>
