
<svg width="46px" height="26px" viewBox="760 432 46 26" version="1.1" xmlns="http://www.w3.org/2000/svg" xmlns:xlink="http://www.w3.org/1999/xlink">
    <!-- Generator: Sketch 42 (36781) - http://www.bohemiancoding.com/sketch -->
    <desc>Created with Sketch.</desc>
    <defs></defs>
    <path d="M794.9346,455.2808 L794.9346,444.2768 L798.8286,442.4038 L798.8286,444.9548 L800.3826,444.1768 L800.3826,441.6538 L803.4966,440.1538 L803.4966,451.0008 L794.9346,455.2808 Z M784.8126,440.1538 L793.3756,444.2768 L793.3756,455.2808 L784.8126,450.9978 L784.8126,440.1538 Z M794.1546,442.9228 L785.3076,438.6638 L788.9966,436.8188 L797.9136,441.1148 L794.1546,442.9228 Z M802.9996,438.6608 L799.7076,440.2478 L790.7566,435.9388 L794.1546,434.2388 L802.9996,438.6608 Z M794.1546,432.4978 L783.2546,437.9468 L783.2546,451.9618 L794.1546,457.4118 L805.0526,451.9618 L805.0526,437.9468 L794.1546,432.4978 Z" id="Fill-8401" stroke="none" fill="#FFFFFF" fill-rule="evenodd"></path>
    <path d="M771.457,449.7476 C771.213,449.7476 771.015,449.5486 771.015,449.3036 L771.015,447.9776 C771.015,446.7526 769.564,445.7656 768.364,445.7656 L765.705,445.7656 C765.461,445.7656 765.264,445.5676 765.264,445.3226 C765.264,445.0806 765.461,444.8806 765.705,444.8806 L768.364,444.8806 C770.034,444.8806 771.898,446.2056 771.898,447.9776 L771.898,449.3036 C771.898,449.5486 771.7,449.7476 771.457,449.7476 M768.364,454.6126 L763.052,454.6126 C762.807,454.6126 762.609,454.4146 762.609,454.1706 C762.609,453.9276 762.807,453.7286 763.052,453.7286 L768.364,453.7286 C769.564,453.7286 771.015,452.7416 771.015,451.5166 L771.015,450.1896 C771.015,449.9456 771.213,449.7476 771.457,449.7476 C771.7,449.7476 771.898,449.9456 771.898,450.1896 L771.898,451.5166 C771.898,453.2896 770.034,454.6126 768.364,454.6126 M761.084,449.3056 L780.548,449.3056 C780.793,449.3056 780.99,449.5046 780.99,449.7466 C780.99,449.9916 780.793,450.1896 780.548,450.1896 L761.084,450.1896 C760.84,450.1896 760.642,449.9916 760.642,449.7466 C760.642,449.5046 760.84,449.3056 761.084,449.3056 M779.387,447.1896 C779.577,447.0376 779.855,447.0686 780.008,447.2596 L781.777,449.4716 C781.906,449.6336 781.906,449.8616 781.777,450.0236 L780.008,452.2366 C779.855,452.4266 779.577,452.4576 779.387,452.3066 C779.195,452.1516 779.164,451.8746 779.317,451.6846 L780.865,449.7476 L779.317,447.8126 C779.252,447.7316 779.221,447.6336 779.221,447.5356 C779.221,447.4066 779.277,447.2776 779.387,447.1896" id="Fill-8403" stroke="none" fill="#FFFFFF" fill-rule="evenodd"></path>
    <path d="M771.457,449.7476 C771.213,449.7476 771.015,449.5486 771.015,449.3036 L771.015,447.9776 C771.015,446.7526 769.564,445.7656 768.364,445.7656 L765.705,445.7656 C765.461,445.7656 765.264,445.5676 765.264,445.3226 C765.264,445.0806 765.461,444.8806 765.705,444.8806 L768.364,444.8806 C770.034,444.8806 771.898,446.2056 771.898,447.9776 L771.898,449.3036 C771.898,449.5486 771.7,449.7476 771.457,449.7476 L771.457,449.7476 Z M768.364,454.6126 L763.052,454.6126 C762.807,454.6126 762.609,454.4146 762.609,454.1706 C762.609,453.9276 762.807,453.7286 763.052,453.7286 L768.364,453.7286 C769.564,453.7286 771.015,452.7416 771.015,451.5166 L771.015,450.1896 C771.015,449.9456 771.213,449.7476 771.457,449.7476 C771.7,449.7476 771.898,449.9456 771.898,450.1896 L771.898,451.5166 C771.898,453.2896 770.034,454.6126 768.364,454.6126 L768.364,454.6126 Z M761.084,449.3056 L780.548,449.3056 C780.793,449.3056 780.99,449.5046 780.99,449.7466 C780.99,449.9916 780.793,450.1896 780.548,450.1896 L761.084,450.1896 C760.84,450.1896 760.642,449.9916 760.642,449.7466 C760.642,449.5046 760.84,449.3056 761.084,449.3056 L761.084,449.3056 Z M779.387,447.1896 C779.577,447.0376 779.855,447.0686 780.008,447.2596 L781.777,449.4716 C781.906,449.6336 781.906,449.8616 781.777,450.0236 L780.008,452.2366 C779.855,452.4266 779.577,452.4576 779.387,452.3066 C779.195,452.1516 779.164,451.8746 779.317,451.6846 L780.865,449.7476 L779.317,447.8126 C779.252,447.7316 779.221,447.6336 779.221,447.5356 C779.221,447.4066 779.277,447.2776 779.387,447.1896 L779.387,447.1896 Z" id="Stroke-8405" stroke="#FFFFFF" stroke-width="1" fill="none"></path>
</svg>
