
<svg width="64px" height="39px" viewBox="21 32 64 39" version="1.1" xmlns="http://www.w3.org/2000/svg" xmlns:xlink="http://www.w3.org/1999/xlink">
    <!-- Generator: Sketch 42 (36781) - http://www.bohemiancoding.com/sketch -->
    <desc>Created with Sketch.</desc>
    <defs></defs>
    <path d="M29.6934,64.6025 C30.7114,64.6085 31.5234,65.4345 31.5234,66.4465 C31.5134,67.4565 30.6904,68.2735 29.6794,68.2665 C28.6804,68.2665 27.8714,67.4655 27.8564,66.4695 C27.8414,65.4505 28.6584,64.6145 29.6734,64.6025 L29.6934,64.6025 Z M67.0724,45.7335 C67.0724,45.0815 67.6034,44.5535 68.2574,44.5535 L77.8794,44.5535 C78.3814,44.5485 78.8284,44.8645 78.9964,45.3365 L81.7234,53.3425 L67.0724,53.3425 L67.0724,45.7335 Z M22.9564,67.6235 L25.6874,67.6235 C26.3224,69.8325 28.6294,71.1165 30.8384,70.4855 C32.2234,70.0875 33.3044,69.0045 33.6994,67.6235 L65.8964,67.6235 C66.5474,67.6235 67.0724,67.0975 67.0724,66.4435 L67.0724,55.7175 L82.3244,55.7175 L82.3244,64.1065 C82.3244,64.7615 81.7954,65.2885 81.1414,65.2885 C80.4944,65.2885 79.9614,65.8155 79.9614,66.4695 C79.9614,67.1165 80.4944,67.6475 81.1414,67.6475 C83.0964,67.6475 84.6804,66.0635 84.6804,64.1065 L84.6804,55.2935 C84.6774,54.9615 84.6294,54.6375 84.5334,54.3155 L84.5334,54.2475 L84.5334,54.1585 L81.2254,44.5845 C80.7254,43.1665 79.3824,42.2205 77.8794,42.2245 L68.2574,42.2245 C66.3004,42.2245 64.7144,43.8115 64.7144,45.7625 L64.7144,65.2625 L33.6994,65.2625 C33.0654,63.0525 30.7574,61.7695 28.5454,62.4115 C27.1604,62.8055 26.0814,63.8845 25.6874,65.2625 L22.9564,65.2625 C22.3054,65.2625 21.7794,65.7935 21.7794,66.4435 C21.7794,67.0975 22.3054,67.6235 22.9564,67.6235 L22.9564,67.6235 Z" id="icon-transport" stroke="none" fill="#A08305" fill-rule="evenodd"></path>
    <path d="M75.4585,66.4697 C75.4535,67.4797 74.6305,68.2977 73.6155,68.2927 C72.6065,68.2927 71.7895,67.4657 71.7895,66.4507 C71.7985,65.4467 72.6175,64.6287 73.6265,64.6287 C74.6395,64.6367 75.4585,65.4577 75.4585,66.4697 M69.4215,66.4697 C69.4295,68.7807 71.3125,70.6577 73.6265,70.6497 C75.9405,70.6497 77.8155,68.7647 77.8105,66.4507 C77.8025,64.1417 75.9305,62.2707 73.6155,62.2707 C71.3025,62.2747 69.4215,64.1517 69.4215,66.4697" id="icon-transport" stroke="none" fill="#A08305" fill-rule="evenodd"></path>
    <path d="M35.3555,35.5361 C35.3555,35.3041 35.5485,35.1121 35.7835,35.1121 L59.5395,35.1121 C59.7735,35.1121 59.9645,35.3041 59.9645,35.5361 L59.9645,60.1011 C59.9645,60.3291 59.7735,60.5251 59.5395,60.5251 L35.7835,60.5251 C35.5485,60.5251 35.3555,60.3291 35.3555,60.1011 L35.3555,35.5361 Z M35.7835,62.8861 L59.5395,62.8861 C61.0815,62.8861 62.3265,61.6361 62.3265,60.1011 L62.3265,35.5361 C62.3265,34.0001 61.0815,32.7551 59.5395,32.7551 L35.7835,32.7551 C34.2445,32.7551 33.0005,34.0001 33.0005,35.5361 L33.0005,60.1011 C33.0005,61.6361 34.2445,62.8861 35.7835,62.8861 L35.7835,62.8861 Z" id="icon-transport" stroke="none" fill="#A08305" fill-rule="evenodd"></path>
    <path d="M22.9565,35.1123 C22.3055,35.1123 21.7795,34.5873 21.7795,33.9373 C21.7795,33.2803 22.3055,32.7553 22.9565,32.7553 L29.9395,32.7553 C30.5935,32.7553 31.1225,33.2803 31.1225,33.9373 C31.1225,34.5873 30.5935,35.1123 29.9395,35.1123 L22.9565,35.1123 Z M22.9565,39.8804 C22.3055,39.8804 21.7795,39.3534 21.7795,38.7024 C21.7795,38.0484 22.3055,37.5174 22.9565,37.5174 L29.9395,37.5174 C30.5935,37.5174 31.1225,38.0484 31.1225,38.7024 C31.1225,39.3534 30.5935,39.8804 29.9395,39.8804 L22.9565,39.8804 Z M22.9565,44.6538 C22.3055,44.6538 21.7795,44.1228 21.7795,43.4728 C21.7795,42.8228 22.3055,42.2938 22.9565,42.2938 L29.9395,42.2938 C30.5935,42.2938 31.1225,42.8228 31.1225,43.4728 C31.1225,44.1228 30.5935,44.6538 29.9395,44.6538 L22.9565,44.6538 Z M22.9565,49.4243 C22.3055,49.4243 21.7795,48.8993 21.7795,48.2483 C21.7795,47.5973 22.3055,47.0703 22.9565,47.0703 L29.9395,47.0703 C30.5935,47.0703 31.1225,47.5973 31.1225,48.2483 C31.1225,48.8993 30.5935,49.4243 29.9395,49.4243 L22.9565,49.4243 Z M22.9565,54.2002 C22.3055,54.2002 21.7795,53.6792 21.7795,53.0222 C21.7795,52.3682 22.3055,51.8372 22.9565,51.8372 L29.9395,51.8372 C30.5935,51.8372 31.1225,52.3682 31.1225,53.0222 C31.1225,53.6792 30.5935,54.2002 29.9395,54.2002 L22.9565,54.2002 Z M22.9565,58.9761 C22.3055,58.9761 21.7795,58.4471 21.7795,57.7981 C21.7795,57.1391 22.3055,56.6121 22.9565,56.6121 L29.9395,56.6121 C30.5935,56.6121 31.1225,57.1391 31.1225,57.7981 C31.1225,58.4471 30.5935,58.9761 29.9395,58.9761 L22.9565,58.9761 Z" id="icon-transport" stroke="none" fill="#A08305" fill-rule="evenodd"></path>
</svg>
