
<svg width="18px" height="21px" viewBox="558 624 18 21" version="1.1" xmlns="http://www.w3.org/2000/svg" xmlns:xlink="http://www.w3.org/1999/xlink">
    <!-- Generator: Sketch 42 (36781) - http://www.bohemiancoding.com/sketch -->
    <desc>Created with Sketch.</desc>
    <defs></defs>
    <path d="M566.438,632.67 L567.3,632.67 L567.3,631.808 L566.438,631.808 L566.438,632.67 Z M566.007,633.532 L567.732,633.532 C567.97,633.532 568.163,633.339 568.163,633.102 L568.163,631.376 C568.163,631.139 567.97,630.944 567.732,630.944 L566.007,630.944 C565.769,630.944 565.575,631.139 565.575,631.376 L565.575,633.102 C565.575,633.339 565.769,633.532 566.007,633.532 L566.007,633.532 Z M569.888,639.57 L570.751,639.57 L570.751,638.707 L569.888,638.707 L569.888,639.57 Z M569.456,640.433 L571.181,640.433 C571.419,640.433 571.613,640.239 571.613,640.001 L571.613,638.276 C571.613,638.038 571.419,637.846 571.181,637.846 L569.456,637.846 C569.219,637.846 569.026,638.038 569.026,638.276 L569.026,640.001 C569.026,640.239 569.219,640.433 569.456,640.433 L569.456,640.433 Z M566.438,636.12 L567.3,636.12 L567.3,635.257 L566.438,635.257 L566.438,636.12 Z M566.007,636.982 L567.732,636.982 C567.97,636.982 568.163,636.79 568.163,636.551 L568.163,634.827 C568.163,634.588 567.97,634.395 567.732,634.395 L566.007,634.395 C565.769,634.395 565.575,634.588 565.575,634.827 L565.575,636.551 C565.575,636.79 565.769,636.982 566.007,636.982 L566.007,636.982 Z M566.438,639.57 L567.3,639.57 L567.3,638.707 L566.438,638.707 L566.438,639.57 Z M566.007,640.433 L567.732,640.433 C567.97,640.433 568.163,640.239 568.163,640.001 L568.163,638.276 C568.163,638.038 567.97,637.846 567.732,637.846 L566.007,637.846 C565.769,637.846 565.575,638.038 565.575,638.276 L565.575,640.001 C565.575,640.239 565.769,640.433 566.007,640.433 L566.007,640.433 Z M569.888,636.12 L570.751,636.12 L570.751,635.257 L569.888,635.257 L569.888,636.12 Z M569.456,636.982 L571.181,636.982 C571.419,636.982 571.613,636.79 571.613,636.551 L571.613,634.827 C571.613,634.588 571.419,634.395 571.181,634.395 L569.456,634.395 C569.219,634.395 569.026,634.588 569.026,634.827 L569.026,636.551 C569.026,636.79 569.219,636.982 569.456,636.982 L569.456,636.982 Z M572.476,643.883 L569.888,643.883 L569.888,641.726 C569.888,641.489 569.694,641.294 569.456,641.294 L564.282,641.294 C564.044,641.294 563.851,641.489 563.851,641.726 L563.851,643.883 L561.263,643.883 L561.263,626.632 L572.476,626.632 L572.476,643.883 Z M562.988,625.769 L570.751,625.769 L570.751,624.907 L562.988,624.907 L562.988,625.769 Z M574.587,643.883 L573.338,643.883 L573.338,626.201 C573.338,625.963 573.146,625.77 572.907,625.77 L571.613,625.77 L571.613,624.476 C571.613,624.237 571.419,624.046 571.181,624.046 L562.558,624.046 C562.319,624.046 562.126,624.237 562.126,624.476 L562.126,625.77 L560.832,625.77 C560.594,625.77 560.4,625.963 560.4,626.201 L560.4,643.883 L559.107,643.883 C558.868,643.883 558.676,644.076 558.676,644.314 C558.676,644.551 558.868,644.745 559.107,644.745 L564.282,644.745 C564.521,644.745 564.713,644.551 564.713,644.314 L564.713,642.158 L569.026,642.158 L569.026,644.314 C569.026,644.551 569.219,644.745 569.456,644.745 L574.587,644.745 C574.825,644.745 575.019,644.551 575.019,644.314 C575.019,644.076 574.825,643.883 574.587,643.883 L574.587,643.883 Z M569.888,629.22 L570.751,629.22 L570.751,628.357 L569.888,628.357 L569.888,629.22 Z M569.456,630.083 L571.181,630.083 C571.419,630.083 571.613,629.889 571.613,629.651 L571.613,627.927 C571.613,627.688 571.419,627.496 571.181,627.496 L569.456,627.496 C569.219,627.496 569.026,627.688 569.026,627.927 L569.026,629.651 C569.026,629.889 569.219,630.083 569.456,630.083 L569.456,630.083 Z M569.888,632.67 L570.751,632.67 L570.751,631.808 L569.888,631.808 L569.888,632.67 Z M569.456,633.532 L571.181,633.532 C571.419,633.532 571.613,633.339 571.613,633.102 L571.613,631.376 C571.613,631.139 571.419,630.944 571.181,630.944 L569.456,630.944 C569.219,630.944 569.026,631.139 569.026,631.376 L569.026,633.102 C569.026,633.339 569.219,633.532 569.456,633.532 L569.456,633.532 Z M566.438,629.22 L567.3,629.22 L567.3,628.357 L566.438,628.357 L566.438,629.22 Z M566.007,630.083 L567.732,630.083 C567.97,630.083 568.163,629.889 568.163,629.651 L568.163,627.927 C568.163,627.688 567.97,627.496 567.732,627.496 L566.007,627.496 C565.769,627.496 565.575,627.688 565.575,627.927 L565.575,629.651 C565.575,629.889 565.769,630.083 566.007,630.083 L566.007,630.083 Z M562.988,629.22 L563.85,629.22 L563.85,628.357 L562.988,628.357 L562.988,629.22 Z M562.558,630.083 L564.282,630.083 C564.521,630.083 564.713,629.889 564.713,629.651 L564.713,627.927 C564.713,627.688 564.521,627.496 564.282,627.496 L562.558,627.496 C562.319,627.496 562.126,627.688 562.126,627.927 L562.126,629.651 C562.126,629.889 562.319,630.083 562.558,630.083 L562.558,630.083 Z M562.988,632.67 L563.85,632.67 L563.85,631.808 L562.988,631.808 L562.988,632.67 Z M562.558,633.532 L564.282,633.532 C564.521,633.532 564.713,633.339 564.713,633.102 L564.713,631.376 C564.713,631.139 564.521,630.944 564.282,630.944 L562.558,630.944 C562.319,630.944 562.126,631.139 562.126,631.376 L562.126,633.102 C562.126,633.339 562.319,633.532 562.558,633.532 L562.558,633.532 Z M562.988,636.12 L563.85,636.12 L563.85,635.257 L562.988,635.257 L562.988,636.12 Z M562.558,636.982 L564.282,636.982 C564.521,636.982 564.713,636.79 564.713,636.551 L564.713,634.827 C564.713,634.588 564.521,634.395 564.282,634.395 L562.558,634.395 C562.319,634.395 562.126,634.588 562.126,634.827 L562.126,636.551 C562.126,636.79 562.319,636.982 562.558,636.982 L562.558,636.982 Z M562.988,639.57 L563.85,639.57 L563.85,638.707 L562.988,638.707 L562.988,639.57 Z M562.558,640.433 L564.282,640.433 C564.521,640.433 564.713,640.239 564.713,640.001 L564.713,638.276 C564.713,638.038 564.521,637.846 564.282,637.846 L562.558,637.846 C562.319,637.846 562.126,638.038 562.126,638.276 L562.126,640.001 C562.126,640.239 562.319,640.433 562.558,640.433 L562.558,640.433 Z" id="icon-company" stroke="none" fill="#666666" fill-rule="evenodd"></path>
</svg>
