
<svg width="18px" height="22px" viewBox="883 241 18 22" version="1.1" xmlns="http://www.w3.org/2000/svg" xmlns:xlink="http://www.w3.org/1999/xlink">
    <!-- Generator: Sketch 42 (36781) - http://www.bohemiancoding.com/sketch -->
    <desc>Created with Sketch.</desc>
    <defs></defs>
    <path d="M891.595,250.537 L892.458,250.537 L892.458,249.675 L891.595,249.675 L891.595,250.537 Z M891.163,251.4 L892.89,251.4 C893.126,251.4 893.319,251.208 893.319,250.97 L893.319,249.244 C893.319,249.006 893.126,248.813 892.89,248.813 L891.163,248.813 C890.925,248.813 890.731,249.006 890.731,249.244 L890.731,250.97 C890.731,251.208 890.925,251.4 891.163,251.4 L891.163,251.4 Z M895.044,257.437 L895.907,257.437 L895.907,256.575 L895.044,256.575 L895.044,257.437 Z M894.612,258.301 L896.337,258.301 C896.575,258.301 896.771,258.107 896.771,257.869 L896.771,256.145 C896.771,255.906 896.575,255.714 896.337,255.714 L894.612,255.714 C894.376,255.714 894.183,255.906 894.183,256.145 L894.183,257.869 C894.183,258.107 894.376,258.301 894.612,258.301 L894.612,258.301 Z M891.595,253.988 L892.458,253.988 L892.458,253.125 L891.595,253.125 L891.595,253.988 Z M891.163,254.851 L892.89,254.851 C893.126,254.851 893.319,254.658 893.319,254.419 L893.319,252.695 C893.319,252.456 893.126,252.263 892.89,252.263 L891.163,252.263 C890.925,252.263 890.731,252.456 890.731,252.695 L890.731,254.419 C890.731,254.658 890.925,254.851 891.163,254.851 L891.163,254.851 Z M891.595,257.437 L892.458,257.437 L892.458,256.575 L891.595,256.575 L891.595,257.437 Z M891.163,258.301 L892.89,258.301 C893.126,258.301 893.319,258.107 893.319,257.869 L893.319,256.145 C893.319,255.906 893.126,255.714 892.89,255.714 L891.163,255.714 C890.925,255.714 890.731,255.906 890.731,256.145 L890.731,257.869 C890.731,258.107 890.925,258.301 891.163,258.301 L891.163,258.301 Z M895.044,253.988 L895.907,253.988 L895.907,253.125 L895.044,253.125 L895.044,253.988 Z M894.612,254.851 L896.337,254.851 C896.575,254.851 896.771,254.658 896.771,254.419 L896.771,252.695 C896.771,252.456 896.575,252.263 896.337,252.263 L894.612,252.263 C894.376,252.263 894.183,252.456 894.183,252.695 L894.183,254.419 C894.183,254.658 894.376,254.851 894.612,254.851 L894.612,254.851 Z M897.632,261.75 L895.044,261.75 L895.044,259.595 C895.044,259.357 894.851,259.163 894.612,259.163 L889.438,259.163 C889.2,259.163 889.007,259.357 889.007,259.595 L889.007,261.75 L886.419,261.75 L886.419,244.5 L897.632,244.5 L897.632,261.75 Z M888.146,243.637 L895.908,243.637 L895.908,242.775 L888.146,242.775 L888.146,243.637 Z M899.743,261.75 L898.495,261.75 L898.495,244.069 C898.495,243.832 898.302,243.638 898.063,243.638 L896.771,243.638 L896.771,242.344 C896.771,242.105 896.575,241.914 896.337,241.914 L887.714,241.914 C887.476,241.914 887.282,242.105 887.282,242.344 L887.282,243.638 L885.989,243.638 C885.751,243.638 885.558,243.832 885.558,244.069 L885.558,261.75 L884.265,261.75 C884.024,261.75 883.833,261.943 883.833,262.182 C883.833,262.419 884.024,262.613 884.265,262.613 L889.438,262.613 C889.677,262.613 889.87,262.419 889.87,262.182 L889.87,260.026 L894.183,260.026 L894.183,262.182 C894.183,262.419 894.376,262.613 894.612,262.613 L899.743,262.613 C899.981,262.613 900.175,262.419 900.175,262.182 C900.175,261.943 899.981,261.75 899.743,261.75 L899.743,261.75 Z M895.044,247.088 L895.907,247.088 L895.907,246.225 L895.044,246.225 L895.044,247.088 Z M894.612,247.951 L896.337,247.951 C896.575,247.951 896.771,247.757 896.771,247.52 L896.771,245.794 C896.771,245.556 896.575,245.363 896.337,245.363 L894.612,245.363 C894.376,245.363 894.183,245.556 894.183,245.794 L894.183,247.52 C894.183,247.757 894.376,247.951 894.612,247.951 L894.612,247.951 Z M895.044,250.537 L895.907,250.537 L895.907,249.675 L895.044,249.675 L895.044,250.537 Z M894.612,251.4 L896.337,251.4 C896.575,251.4 896.771,251.208 896.771,250.97 L896.771,249.244 C896.771,249.006 896.575,248.813 896.337,248.813 L894.612,248.813 C894.376,248.813 894.183,249.006 894.183,249.244 L894.183,250.97 C894.183,251.208 894.376,251.4 894.612,251.4 L894.612,251.4 Z M891.595,247.088 L892.458,247.088 L892.458,246.225 L891.595,246.225 L891.595,247.088 Z M891.163,247.951 L892.89,247.951 C893.126,247.951 893.319,247.757 893.319,247.52 L893.319,245.794 C893.319,245.556 893.126,245.363 892.89,245.363 L891.163,245.363 C890.925,245.363 890.731,245.556 890.731,245.794 L890.731,247.52 C890.731,247.757 890.925,247.951 891.163,247.951 L891.163,247.951 Z M888.146,247.088 L889.007,247.088 L889.007,246.225 L888.146,246.225 L888.146,247.088 Z M887.714,247.951 L889.438,247.951 C889.677,247.951 889.87,247.757 889.87,247.52 L889.87,245.794 C889.87,245.556 889.677,245.363 889.438,245.363 L887.714,245.363 C887.476,245.363 887.282,245.556 887.282,245.794 L887.282,247.52 C887.282,247.757 887.476,247.951 887.714,247.951 L887.714,247.951 Z M888.146,250.537 L889.007,250.537 L889.007,249.675 L888.146,249.675 L888.146,250.537 Z M887.714,251.4 L889.438,251.4 C889.677,251.4 889.87,251.208 889.87,250.97 L889.87,249.244 C889.87,249.006 889.677,248.813 889.438,248.813 L887.714,248.813 C887.476,248.813 887.282,249.006 887.282,249.244 L887.282,250.97 C887.282,251.208 887.476,251.4 887.714,251.4 L887.714,251.4 Z M888.146,253.988 L889.007,253.988 L889.007,253.125 L888.146,253.125 L888.146,253.988 Z M887.714,254.851 L889.438,254.851 C889.677,254.851 889.87,254.658 889.87,254.419 L889.87,252.695 C889.87,252.456 889.677,252.263 889.438,252.263 L887.714,252.263 C887.476,252.263 887.282,252.456 887.282,252.695 L887.282,254.419 C887.282,254.658 887.476,254.851 887.714,254.851 L887.714,254.851 Z M888.146,257.437 L889.007,257.437 L889.007,256.575 L888.146,256.575 L888.146,257.437 Z M887.714,258.301 L889.438,258.301 C889.677,258.301 889.87,258.107 889.87,257.869 L889.87,256.145 C889.87,255.906 889.677,255.714 889.438,255.714 L887.714,255.714 C887.476,255.714 887.282,255.906 887.282,256.145 L887.282,257.869 C887.282,258.107 887.476,258.301 887.714,258.301 L887.714,258.301 Z" id="icon-companies" stroke="none" fill="#000000" fill-rule="evenodd"></path>
</svg>
