
<svg width="44px" height="28px" viewBox="606 432 44 28" version="1.1" xmlns="http://www.w3.org/2000/svg" xmlns:xlink="http://www.w3.org/1999/xlink">
    <!-- Generator: Sketch 42 (36781) - http://www.bohemiancoding.com/sketch -->
    <desc>Created with Sketch.</desc>
    <defs></defs>
    <path d="M618.0273,455.0933 L618.0273,444.0883 L621.9203,442.2153 L621.9203,444.7673 L623.4743,443.9893 L623.4743,441.4653 L626.5873,439.9663 L626.5873,450.8123 L618.0273,455.0933 Z M607.9053,439.9663 L616.4683,444.0883 L616.4683,455.0933 L607.9053,450.8103 L607.9053,439.9663 Z M617.2473,442.7343 L608.3993,438.4763 L612.0883,436.6313 L621.0073,440.9273 L617.2473,442.7343 Z M626.0913,438.4743 L622.7993,440.0593 L613.8483,435.7513 L617.2473,434.0523 L626.0913,438.4743 Z M617.2473,432.3103 L606.3463,437.7593 L606.3463,451.7743 L617.2473,457.2243 L628.1453,451.7743 L628.1453,437.7593 L617.2473,432.3103 Z" id="Fill-8394" stroke="none" fill="#FFFFFF" fill-rule="evenodd"></path>
    <path d="M642.3008,458.4844 C642.3008,458.3874 642.3328,458.2894 642.3968,458.2084 L643.9468,456.2724 L642.3968,454.3374 C642.2448,454.1434 642.2778,453.8684 642.4668,453.7144 C642.6568,453.5614 642.9348,453.5934 643.0888,453.7834 L644.8588,455.9964 C644.9878,456.1584 644.9878,456.3864 644.8588,456.5484 L643.0888,458.7604 C642.9348,458.9504 642.6568,458.9804 642.4668,458.8294 C642.3568,458.7444 642.3008,458.6134 642.3008,458.4844 M634.7808,451.4064 L634.7808,450.0804 C634.7808,448.3054 636.6468,446.9824 638.3158,446.9824 L640.9748,446.9824 C641.2198,446.9824 641.4148,447.1794 641.4148,447.4224 C641.4148,447.6674 641.2198,447.8654 640.9748,447.8654 L638.3158,447.8654 C637.1158,447.8654 635.6648,448.8534 635.6648,450.0804 L635.6648,451.4064 C635.6648,451.6514 635.4668,451.8494 635.2238,451.8494 C634.9798,451.8494 634.7808,451.6514 634.7808,451.4064 M634.7808,453.6184 L634.7808,452.2924 C634.7808,452.0474 634.9798,451.8494 635.2238,451.8494 C635.4668,451.8494 635.6648,452.0474 635.6648,452.2924 L635.6648,453.6184 C635.6648,454.8434 637.1158,455.8304 638.3158,455.8304 L643.6278,455.8304 C643.8738,455.8304 644.0718,456.0294 644.0718,456.2734 C644.0718,456.5174 643.8738,456.7144 643.6278,456.7144 L638.3158,456.7144 C636.6468,456.7144 634.7808,455.3904 634.7808,453.6184 M628.1458,451.8494 C628.1458,451.6044 628.3418,451.4064 628.5868,451.4064 L648.0518,451.4064 C648.2968,451.4064 648.4948,451.6044 648.4948,451.8494 C648.4948,452.0934 648.2968,452.2924 648.0518,452.2924 L628.5868,452.2924 C628.3418,452.2924 628.1458,452.0934 628.1458,451.8494 M646.7248,454.0604 C646.7248,453.9644 646.7568,453.8654 646.8218,453.7854 L648.3698,451.8494 L646.8218,449.9114 C646.6688,449.7214 646.6998,449.4424 646.8908,449.2894 C647.0798,449.1374 647.3608,449.1704 647.5128,449.3594 L649.2808,451.5724 C649.4108,451.7354 649.4108,451.9644 649.2808,452.1244 L647.5128,454.3374 C647.3608,454.5284 647.0798,454.5574 646.8908,454.4064 C646.7818,454.3194 646.7248,454.1904 646.7248,454.0604 M639.6468,449.6374 C639.6468,449.5404 639.6798,449.4404 639.7428,449.3594 L641.2918,447.4224 L639.7428,445.4864 C639.5898,445.2954 639.6218,445.0174 639.8138,444.8644 C640.0028,444.7134 640.2808,444.7434 640.4338,444.9334 L642.2038,447.1454 C642.3328,447.3094 642.3328,447.5374 642.2038,447.6984 L640.4338,449.9114 C640.2808,450.1014 640.0028,450.1334 639.8138,449.9804 C639.7048,449.8934 639.6468,449.7654 639.6468,449.6374" id="Fill-8396" stroke="none" fill="#FFFFFF" fill-rule="evenodd"></path>
    <path d="M642.3008,458.4844 C642.3008,458.3874 642.3328,458.2894 642.3968,458.2084 L643.9468,456.2724 L642.3968,454.3374 C642.2448,454.1434 642.2778,453.8684 642.4668,453.7144 C642.6568,453.5614 642.9348,453.5934 643.0888,453.7834 L644.8588,455.9964 C644.9878,456.1584 644.9878,456.3864 644.8588,456.5484 L643.0888,458.7604 C642.9348,458.9504 642.6568,458.9804 642.4668,458.8294 C642.3568,458.7444 642.3008,458.6134 642.3008,458.4844 L642.3008,458.4844 Z M634.7808,451.4064 L634.7808,450.0804 C634.7808,448.3054 636.6468,446.9824 638.3158,446.9824 L640.9748,446.9824 C641.2198,446.9824 641.4148,447.1794 641.4148,447.4224 C641.4148,447.6674 641.2198,447.8654 640.9748,447.8654 L638.3158,447.8654 C637.1158,447.8654 635.6648,448.8534 635.6648,450.0804 L635.6648,451.4064 C635.6648,451.6514 635.4668,451.8494 635.2238,451.8494 C634.9798,451.8494 634.7808,451.6514 634.7808,451.4064 L634.7808,451.4064 Z M634.7808,453.6184 L634.7808,452.2924 C634.7808,452.0474 634.9798,451.8494 635.2238,451.8494 C635.4668,451.8494 635.6648,452.0474 635.6648,452.2924 L635.6648,453.6184 C635.6648,454.8434 637.1158,455.8304 638.3158,455.8304 L643.6278,455.8304 C643.8738,455.8304 644.0718,456.0294 644.0718,456.2734 C644.0718,456.5174 643.8738,456.7144 643.6278,456.7144 L638.3158,456.7144 C636.6468,456.7144 634.7808,455.3904 634.7808,453.6184 L634.7808,453.6184 Z M628.1458,451.8494 C628.1458,451.6044 628.3418,451.4064 628.5868,451.4064 L648.0518,451.4064 C648.2968,451.4064 648.4948,451.6044 648.4948,451.8494 C648.4948,452.0934 648.2968,452.2924 648.0518,452.2924 L628.5868,452.2924 C628.3418,452.2924 628.1458,452.0934 628.1458,451.8494 L628.1458,451.8494 Z M646.7248,454.0604 C646.7248,453.9644 646.7568,453.8654 646.8218,453.7854 L648.3698,451.8494 L646.8218,449.9114 C646.6688,449.7214 646.6998,449.4424 646.8908,449.2894 C647.0798,449.1374 647.3608,449.1704 647.5128,449.3594 L649.2808,451.5724 C649.4108,451.7354 649.4108,451.9644 649.2808,452.1244 L647.5128,454.3374 C647.3608,454.5284 647.0798,454.5574 646.8908,454.4064 C646.7818,454.3194 646.7248,454.1904 646.7248,454.0604 L646.7248,454.0604 Z M639.6468,449.6374 C639.6468,449.5404 639.6798,449.4404 639.7428,449.3594 L641.2918,447.4224 L639.7428,445.4864 C639.5898,445.2954 639.6218,445.0174 639.8138,444.8644 C640.0028,444.7134 640.2808,444.7434 640.4338,444.9334 L642.2038,447.1454 C642.3328,447.3094 642.3328,447.5374 642.2038,447.6984 L640.4338,449.9114 C640.2808,450.1014 640.0028,450.1334 639.8138,449.9804 C639.7048,449.8934 639.6468,449.7654 639.6468,449.6374 L639.6468,449.6374 Z" id="Stroke-8398" stroke="#FFFFFF" stroke-width="1" fill="none"></path>
</svg>
