
<svg width="13px" height="13px" viewBox="1060 629 13 13" version="1.1" xmlns="http://www.w3.org/2000/svg" xmlns:xlink="http://www.w3.org/1999/xlink">
    <!-- Generator: Sketch 42 (36781) - http://www.bohemiancoding.com/sketch -->
    <desc>Created with Sketch.</desc>
    <defs></defs>
    <path d="M1062.753,636.314 L1069.884,636.314 L1069.884,635.475 L1062.753,635.475 L1062.753,636.314 L1062.753,636.314 Z M1066.317,641.976 C1062.959,641.976 1060.235,639.253 1060.235,635.895 C1060.235,632.536 1062.959,629.812 1066.317,629.812 C1069.677,629.812 1072.399,632.536 1072.399,635.895 C1072.399,639.253 1069.677,641.976 1066.317,641.976 L1066.317,641.976 Z M1066.317,641.138 C1069.214,641.138 1071.56,638.79 1071.56,635.895 C1071.56,632.999 1069.214,630.651 1066.317,630.651 C1063.423,630.651 1061.075,632.999 1061.075,635.895 C1061.075,638.79 1063.423,641.138 1066.317,641.138 L1066.317,641.138 Z" id="Fill-8523" stroke="none" fill="#FFFFFF" fill-rule="evenodd"></path>
</svg>
