
<svg width="35px" height="73px" viewBox="33 15 35 73" version="1.1" xmlns="http://www.w3.org/2000/svg" xmlns:xlink="http://www.w3.org/1999/xlink">
    <!-- Generator: Sketch 42 (36781) - http://www.bohemiancoding.com/sketch -->
    <desc>Created with Sketch.</desc>
    <defs></defs>
    <path d="M40.2412,76.2354 C40.3912,76.2354 40.5462,76.2844 40.6732,76.3854 L43.6972,78.8054 L46.7212,76.3854 C47.0222,76.1474 47.4542,76.1984 47.6952,76.4954 C47.9322,76.7914 47.8842,77.2254 47.5862,77.4654 L44.1312,80.2304 C43.8752,80.4334 43.5182,80.4334 43.2652,80.2304 L39.8102,77.4654 C39.5122,77.2254 39.4662,76.7914 39.7022,76.4954 C39.8342,76.3234 40.0402,76.2354 40.2412,76.2354 L40.2412,76.2354 Z M51.3012,64.4854 L53.3732,64.4854 C56.1452,64.4854 58.2142,67.4024 58.2142,70.0084 L58.2142,74.1634 C58.2142,74.5464 57.9052,74.8534 57.5242,74.8534 C57.1432,74.8534 56.8322,74.5464 56.8322,74.1634 L56.8322,70.0084 C56.8322,68.1334 55.2892,65.8684 53.3732,65.8684 L51.3012,65.8684 C50.9192,65.8684 50.6082,65.5574 50.6082,65.1764 C50.6082,64.7964 50.9192,64.4854 51.3012,64.4854 L51.3012,64.4854 Z M47.8452,64.4854 L49.9152,64.4854 C50.3002,64.4854 50.6082,64.7964 50.6082,65.1764 C50.6082,65.5574 50.3002,65.8684 49.9152,65.8684 L47.8452,65.8684 C45.9292,65.8684 44.3872,68.1334 44.3872,70.0084 L44.3872,78.3094 C44.3872,78.6934 44.0772,79.0004 43.6962,79.0004 C43.3152,79.0004 43.0072,78.6934 43.0072,78.3094 L43.0072,70.0084 C43.0072,67.4024 45.0752,64.4854 47.8452,64.4854 L47.8452,64.4854 Z M50.6082,54.1164 C50.9912,54.1164 51.3012,54.4244 51.3012,54.8084 L51.3012,85.2214 C51.3012,85.6054 50.9912,85.9134 50.6082,85.9134 C50.2272,85.9134 49.9152,85.6054 49.9152,85.2214 L49.9152,54.8084 C49.9152,54.4244 50.2272,54.1164 50.6082,54.1164 L50.6082,54.1164 Z M47.1522,83.1474 C47.3032,83.1474 47.4572,83.1984 47.5832,83.2974 L50.6092,85.7174 L53.6362,83.2974 C53.9342,83.0594 54.3682,83.1094 54.6082,83.4064 C54.8452,83.7034 54.7952,84.1394 54.4982,84.3784 L51.0402,87.1414 C50.7862,87.3454 50.4292,87.3454 50.1782,87.1414 L46.7202,84.3784 C46.4232,84.1394 46.3752,83.7034 46.6132,83.4064 C46.7482,83.2374 46.9522,83.1474 47.1522,83.1474 L47.1522,83.1474 Z M54.0652,72.0894 C54.2162,72.0894 54.3722,72.1384 54.4982,72.2394 L57.5262,74.6584 L60.5512,72.2394 C60.8492,71.9984 61.2822,72.0494 61.5222,72.3484 C61.7612,72.6454 61.7122,73.0794 61.4142,73.3184 L57.9572,76.0834 C57.7032,76.2844 57.3452,76.2844 57.0952,76.0834 L53.6362,73.3184 C53.3392,73.0794 53.2902,72.6454 53.5282,72.3484 C53.6632,72.1784 53.8652,72.0894 54.0652,72.0894 L54.0652,72.0894 Z" id="icon-export" stroke="#A08305" stroke-width="1" fill="#A08305" fill-rule="evenodd"></path>
    <path d="M51.8345,51.4697 L51.8345,34.2747 L57.9175,31.3487 L57.9175,35.3357 L60.3475,34.1197 L60.3475,30.1767 L65.2105,27.8327 L65.2105,44.7827 L51.8345,51.4697 Z M36.0195,27.8327 L49.3995,34.2747 L49.3995,51.4697 L36.0195,44.7787 L36.0195,27.8327 Z M50.6155,32.1587 L36.7915,25.5047 L42.5555,22.6227 L56.4925,29.3357 L50.6155,32.1587 Z M64.4365,25.5047 L59.2925,27.9797 L45.3065,21.2477 L50.6155,18.5927 L64.4365,25.5047 Z M50.6155,15.8717 L33.5845,24.3857 L33.5845,46.2837 L50.6155,54.8007 L67.6445,46.2837 L67.6445,24.3857 L50.6155,15.8717 Z" id="icon-export" stroke="none" fill="#A08305" fill-rule="evenodd"></path>
</svg>
