
<svg width="17px" height="22px" viewBox="414 528 17 22" version="1.1" xmlns="http://www.w3.org/2000/svg" xmlns:xlink="http://www.w3.org/1999/xlink">
    <!-- Generator: Sketch 42 (36781) - http://www.bohemiancoding.com/sketch -->
    <desc>Created with Sketch.</desc>
    <defs></defs>
    <path d="M422.206,537.562 L423.069,537.562 L423.069,536.699 L422.206,536.699 L422.206,537.562 Z M421.775,538.427 L423.5,538.427 C423.738,538.427 423.931,538.233 423.931,537.995 L423.931,536.268 C423.931,536.03 423.738,535.837 423.5,535.837 L421.775,535.837 C421.537,535.837 421.344,536.03 421.344,536.268 L421.344,537.995 C421.344,538.233 421.537,538.427 421.775,538.427 L421.775,538.427 Z M425.656,544.463 L426.518,544.463 L426.518,543.6 L425.656,543.6 L425.656,544.463 Z M425.225,545.324 L426.949,545.324 C427.187,545.324 427.381,545.131 427.381,544.893 L427.381,543.169 C427.381,542.931 427.187,542.737 426.949,542.737 L425.225,542.737 C424.987,542.737 424.794,542.931 424.794,543.169 L424.794,544.893 C424.794,545.131 424.987,545.324 425.225,545.324 L425.225,545.324 Z M422.206,541.012 L423.069,541.012 L423.069,540.15 L422.206,540.15 L422.206,541.012 Z M421.775,541.876 L423.5,541.876 C423.738,541.876 423.931,541.683 423.931,541.444 L423.931,539.719 C423.931,539.481 423.738,539.288 423.5,539.288 L421.775,539.288 C421.537,539.288 421.344,539.481 421.344,539.719 L421.344,541.444 C421.344,541.683 421.537,541.876 421.775,541.876 L421.775,541.876 Z M422.206,544.463 L423.069,544.463 L423.069,543.6 L422.206,543.6 L422.206,544.463 Z M421.775,545.324 L423.5,545.324 C423.738,545.324 423.931,545.131 423.931,544.893 L423.931,543.169 C423.931,542.931 423.738,542.737 423.5,542.737 L421.775,542.737 C421.537,542.737 421.344,542.931 421.344,543.169 L421.344,544.893 C421.344,545.131 421.537,545.324 421.775,545.324 L421.775,545.324 Z M425.656,541.012 L426.518,541.012 L426.518,540.15 L425.656,540.15 L425.656,541.012 Z M425.225,541.876 L426.949,541.876 C427.187,541.876 427.381,541.683 427.381,541.444 L427.381,539.719 C427.381,539.481 427.187,539.288 426.949,539.288 L425.225,539.288 C424.987,539.288 424.794,539.481 424.794,539.719 L424.794,541.444 C424.794,541.683 424.987,541.876 425.225,541.876 L425.225,541.876 Z M428.244,548.775 L425.656,548.775 L425.656,546.62 C425.656,546.382 425.463,546.188 425.225,546.188 L420.05,546.188 C419.812,546.188 419.619,546.382 419.619,546.62 L419.619,548.775 L417.031,548.775 L417.031,531.525 L428.244,531.525 L428.244,548.775 Z M418.756,530.662 L426.518,530.662 L426.518,529.8 L418.756,529.8 L418.756,530.662 Z M430.355,548.775 L429.106,548.775 L429.106,531.094 C429.106,530.856 428.913,530.663 428.675,530.663 L427.381,530.663 L427.381,529.37 C427.381,529.13 427.187,528.938 426.949,528.938 L418.326,528.938 C418.087,528.938 417.894,529.13 417.894,529.37 L417.894,530.663 L416.6,530.663 C416.362,530.663 416.168,530.856 416.168,531.094 L416.168,548.775 L414.875,548.775 C414.637,548.775 414.444,548.968 414.444,549.206 C414.444,549.444 414.637,549.638 414.875,549.638 L420.05,549.638 C420.288,549.638 420.481,549.444 420.481,549.206 L420.481,547.05 L424.794,547.05 L424.794,549.206 C424.794,549.444 424.987,549.638 425.225,549.638 L430.355,549.638 C430.593,549.638 430.786,549.444 430.786,549.206 C430.786,548.968 430.593,548.775 430.355,548.775 L430.355,548.775 Z M425.656,534.113 L426.518,534.113 L426.518,533.249 L425.656,533.249 L425.656,534.113 Z M425.225,534.975 L426.949,534.975 C427.187,534.975 427.381,534.781 427.381,534.545 L427.381,532.819 C427.381,532.581 427.187,532.387 426.949,532.387 L425.225,532.387 C424.987,532.387 424.794,532.581 424.794,532.819 L424.794,534.545 C424.794,534.781 424.987,534.975 425.225,534.975 L425.225,534.975 Z M425.656,537.562 L426.518,537.562 L426.518,536.699 L425.656,536.699 L425.656,537.562 Z M425.225,538.427 L426.949,538.427 C427.187,538.427 427.381,538.233 427.381,537.995 L427.381,536.268 C427.381,536.03 427.187,535.837 426.949,535.837 L425.225,535.837 C424.987,535.837 424.794,536.03 424.794,536.268 L424.794,537.995 C424.794,538.233 424.987,538.427 425.225,538.427 L425.225,538.427 Z M422.206,534.113 L423.069,534.113 L423.069,533.249 L422.206,533.249 L422.206,534.113 Z M421.775,534.975 L423.5,534.975 C423.738,534.975 423.931,534.781 423.931,534.545 L423.931,532.819 C423.931,532.581 423.738,532.387 423.5,532.387 L421.775,532.387 C421.537,532.387 421.344,532.581 421.344,532.819 L421.344,534.545 C421.344,534.781 421.537,534.975 421.775,534.975 L421.775,534.975 Z M418.756,534.113 L419.619,534.113 L419.619,533.249 L418.756,533.249 L418.756,534.113 Z M418.326,534.975 L420.05,534.975 C420.288,534.975 420.481,534.781 420.481,534.545 L420.481,532.819 C420.481,532.581 420.288,532.387 420.05,532.387 L418.326,532.387 C418.087,532.387 417.894,532.581 417.894,532.819 L417.894,534.545 C417.894,534.781 418.087,534.975 418.326,534.975 L418.326,534.975 Z M418.756,537.562 L419.619,537.562 L419.619,536.699 L418.756,536.699 L418.756,537.562 Z M418.326,538.427 L420.05,538.427 C420.288,538.427 420.481,538.233 420.481,537.995 L420.481,536.268 C420.481,536.03 420.288,535.837 420.05,535.837 L418.326,535.837 C418.087,535.837 417.894,536.03 417.894,536.268 L417.894,537.995 C417.894,538.233 418.087,538.427 418.326,538.427 L418.326,538.427 Z M418.756,541.012 L419.619,541.012 L419.619,540.15 L418.756,540.15 L418.756,541.012 Z M418.326,541.876 L420.05,541.876 C420.288,541.876 420.481,541.683 420.481,541.444 L420.481,539.719 C420.481,539.481 420.288,539.288 420.05,539.288 L418.326,539.288 C418.087,539.288 417.894,539.481 417.894,539.719 L417.894,541.444 C417.894,541.683 418.087,541.876 418.326,541.876 L418.326,541.876 Z M418.756,544.463 L419.619,544.463 L419.619,543.6 L418.756,543.6 L418.756,544.463 Z M418.326,545.324 L420.05,545.324 C420.288,545.324 420.481,545.131 420.481,544.893 L420.481,543.169 C420.481,542.931 420.288,542.737 420.05,542.737 L418.326,542.737 C418.087,542.737 417.894,542.931 417.894,543.169 L417.894,544.893 C417.894,545.131 418.087,545.324 418.326,545.324 L418.326,545.324 Z" id="icon-companies" stroke="none" fill="#DBB706" fill-rule="evenodd"></path>
</svg>
