
<svg width="18px" height="18px" viewBox="649 242 18 18" version="1.1" xmlns="http://www.w3.org/2000/svg" xmlns:xlink="http://www.w3.org/1999/xlink">
    <!-- Generator: Sketch 42 (36781) - http://www.bohemiancoding.com/sketch -->
    <desc>Created with Sketch.</desc>
    <defs></defs>
    <path d="M659.0635,242.6777 C655.0615,242.6777 651.8175,245.9207 651.8175,249.8947 C651.8175,253.8667 655.0615,257.1137 659.0635,257.1137 C663.0615,257.1137 666.3035,253.8667 666.3035,249.8947 C666.3035,245.9207 663.0615,242.6777 659.0635,242.6777 M659.0635,244.3007 C662.1355,244.3007 664.6595,246.8167 664.6595,249.8947 C664.6595,252.9707 662.1355,255.4887 659.0635,255.4887 C655.9835,255.4887 653.4675,252.9707 653.4675,249.8947 C653.4675,246.8167 655.9545,244.3007 659.0635,244.3007 Z M650.6436,259.4897 C650.3346,259.4897 650.0266,259.3787 649.8016,259.1537 C649.3276,258.6767 649.3276,257.9227 649.8016,257.4757 L653.1866,254.0917 C653.6636,253.6137 654.4166,253.6137 654.8666,254.0917 C655.3406,254.5647 655.3406,255.3227 654.8666,255.7697 L651.4816,259.1257 C651.2586,259.3787 650.9506,259.4897 650.6436,259.4897 Z" id="icon-lupa" stroke="none" fill="#FFFFFF" fill-rule="evenodd"></path>
</svg>
