
<svg width="36px" height="48px" viewBox="370 59 36 48" version="1.1" xmlns="http://www.w3.org/2000/svg" xmlns:xlink="http://www.w3.org/1999/xlink">
    <!-- Generator: Sketch 42 (36781) - http://www.bohemiancoding.com/sketch -->
    <desc>Created with Sketch.</desc>
    <defs></defs>
    <path d="M399.8721,74.793 L391.2941,74.793 C390.5791,74.793 390.1021,74.318 390.1021,73.604 C390.1021,72.887 390.5791,72.411 391.2941,72.411 L399.8721,72.411 C400.5881,72.411 401.0651,72.887 401.0651,73.604 C401.0651,74.318 400.5881,74.793 399.8721,74.793 Z M376.0415,86.709 C376.0415,85.994 376.6375,85.518 377.2325,85.518 L398.5625,85.518 C399.2765,85.518 399.7535,85.994 399.7535,86.709 C399.7535,87.424 399.2765,87.899 398.5625,87.899 L377.2325,87.899 C376.5185,87.899 376.0415,87.424 376.0415,86.709 Z M377.2329,93.8589 C376.6379,93.8589 376.0419,93.3819 376.0419,92.6669 C376.0419,91.9519 376.5189,91.4749 377.2329,91.4749 L398.5629,91.4749 C399.2769,91.4749 399.7539,91.9519 399.7539,92.6669 C399.7539,93.3819 399.2769,93.8589 398.5629,93.8589 L377.2329,93.8589 Z M377.2329,99.8169 C376.6379,99.8169 376.0419,99.3399 376.0419,98.6249 C376.0419,97.9089 376.5189,97.4339 377.2329,97.4339 L398.5629,97.4339 C399.2769,97.4339 399.7539,97.9089 399.7539,98.6249 C399.7539,99.3399 399.2769,99.8169 398.5629,99.8169 L377.2329,99.8169 Z M379.0205,80.751 C379.0205,80.036 379.4975,79.56 380.2115,79.56 L395.7025,79.56 C396.4175,79.56 396.8945,80.036 396.8945,80.751 C396.8945,81.466 396.4175,81.943 395.7025,81.943 L380.2115,81.943 C379.4975,81.943 379.0205,81.466 379.0205,80.751 Z M401.4221,62.7591 C403.6861,62.7591 405.5931,64.6641 405.5931,66.9301 L405.5931,102.7951 C405.5931,104.9401 403.6861,106.8461 401.4221,106.8461 L374.2541,106.8461 C371.8711,106.8461 370.0831,105.0601 370.0831,102.7951 L370.0831,75.8651 C370.0831,75.1511 370.6801,74.6741 371.2761,74.6741 C371.8711,74.6741 372.4671,75.1511 372.4671,75.8651 L372.4671,102.7951 C372.4671,103.7471 373.3011,104.4631 374.2541,104.4631 L401.5411,104.4631 C402.4951,104.4631 403.3291,103.7471 403.3291,102.7951 L403.3291,66.9301 C403.3291,65.9761 402.4951,65.1421 401.5411,65.1421 L396.1791,65.1421 C395.5831,67.1681 393.7961,68.7161 391.5321,68.7161 L384.3831,68.7161 C382.1191,68.7161 380.2121,67.1681 379.7361,65.1421 L374.2541,65.1421 C373.3011,65.1421 372.4671,65.9761 372.4671,66.9301 C372.4671,67.6441 371.8711,68.1201 371.2761,68.1201 C370.6801,68.1201 370.0831,67.6441 370.0831,66.9301 C370.0831,64.6641 371.9911,62.7591 374.1351,62.7591 L379.6171,62.7591 C380.2121,60.7321 382.0001,59.1851 384.2641,59.1851 L391.4131,59.1851 C393.6771,59.1851 395.4641,60.7321 396.0601,62.7591 L401.4221,62.7591 Z M393.5581,65.1421 C393.7961,64.7841 393.7961,64.4271 393.7961,63.9511 C393.7961,63.4741 393.6771,63.1161 393.4381,62.7591 C393.0811,62.0431 392.2471,61.5671 391.4131,61.5671 L384.2641,61.5671 C383.4301,61.5671 382.5961,62.0431 382.2381,62.7591 C382.0001,63.1161 381.8801,63.4741 381.8801,63.9511 C381.8801,64.4271 382.0001,64.7841 382.2381,65.1421 C382.5961,65.8561 383.4301,66.3321 384.2641,66.3321 L391.4131,66.3321 C392.3661,66.3321 393.2011,65.8561 393.5581,65.1421 Z" id="icon-registration" stroke="none" fill="#111419" fill-rule="evenodd"></path>
</svg>
