
<svg width="18px" height="18px" viewBox="477 301 18 18" version="1.1" xmlns="http://www.w3.org/2000/svg" xmlns:xlink="http://www.w3.org/1999/xlink">
    <!-- Generator: Sketch 42 (36781) - http://www.bohemiancoding.com/sketch -->
    <desc>Created with Sketch.</desc>
    <defs></defs>
    <path d="M488.1113,317.3457 C488.9353,316.3027 489.5073,315.0877 489.7893,313.7887 C490.6073,313.9307 491.4083,314.1597 492.1793,314.4687 C491.1893,315.8637 489.7563,316.8807 488.1113,317.3537 L488.1113,317.3457 Z M479.8573,314.4687 C480.6293,314.1597 481.4293,313.9307 482.2483,313.7887 C482.5293,315.0877 483.1033,316.3027 483.9243,317.3457 C482.2833,316.8747 480.8493,315.8607 479.8573,314.4687 L479.8573,314.4687 Z M479.4043,306.4567 C480.2593,306.8227 481.1543,307.0887 482.0723,307.2467 C481.7323,309.1387 481.7323,311.0757 482.0723,312.9667 C481.1543,313.1267 480.2593,313.3907 479.4043,313.7567 C478.1483,311.4827 478.1483,308.7227 479.4043,306.4497 L479.4043,306.4567 Z M483.9003,302.8597 C483.0783,303.9007 482.5043,305.1187 482.2223,306.4157 C481.4143,306.2737 480.6213,306.0487 479.8573,305.7437 C480.8403,304.3537 482.2653,303.3367 483.9003,302.8597 L483.9003,302.8597 Z M492.1543,305.7437 C491.3843,306.0527 490.5823,306.2817 489.7653,306.4247 C489.4843,305.1267 488.9103,303.9107 488.0863,302.8667 C489.7303,303.3377 491.1643,304.3527 492.1543,305.7437 L492.1543,305.7437 Z M489.9413,307.2467 C490.8573,307.0887 491.7523,306.8227 492.6073,306.4567 C493.8653,308.7307 493.8653,311.4907 492.6073,313.7637 C491.7523,313.3987 490.8573,313.1337 489.9413,312.9767 C490.1133,312.0297 490.1993,311.0687 490.2013,310.1067 C490.1993,309.1467 490.1133,308.1897 489.9413,307.2467 L489.9413,307.2467 Z M486.0063,302.5567 C487.1233,302.5567 488.3303,304.0927 488.9413,306.5587 C487.9683,306.6897 486.9883,306.7537 486.0063,306.7507 C485.0253,306.7537 484.0433,306.6897 483.0703,306.5587 C483.6813,304.0927 484.8903,302.5567 486.0063,302.5567 L486.0063,302.5567 Z M486.0063,312.6227 C484.9653,312.6207 483.9243,312.6917 482.8943,312.8337 C482.5723,311.0297 482.5723,309.1837 482.8943,307.3797 C483.9243,307.5217 484.9653,307.5927 486.0063,307.5897 C487.0473,307.5927 488.0883,307.5217 489.1193,307.3797 C489.2813,308.2797 489.3633,309.1917 489.3613,310.1067 C489.3633,311.0217 489.2813,311.9337 489.1193,312.8337 C488.0883,312.6917 487.0473,312.6207 486.0063,312.6227 L486.0063,312.6227 Z M486.0063,317.6567 C484.8903,317.6567 483.6813,316.1207 483.0703,313.6547 C485.0193,313.3947 486.9943,313.3947 488.9413,313.6547 C488.3303,316.1207 487.1233,317.6567 486.0063,317.6567 L486.0063,317.6567 Z M486.0063,301.7187 C481.3733,301.7187 477.6173,305.4747 477.6173,310.1067 C477.6173,314.7407 481.3733,318.4947 486.0063,318.4947 C490.6383,318.4947 494.3943,314.7407 494.3943,310.1067 C494.3943,305.4747 490.6383,301.7187 486.0063,301.7187 L486.0063,301.7187 Z" id="icon-website" stroke="none" fill="#C6AF08" fill-rule="evenodd"></path>
</svg>
