
<svg width="32px" height="21px" viewBox="956 530 32 21" version="1.1" xmlns="http://www.w3.org/2000/svg" xmlns:xlink="http://www.w3.org/1999/xlink">
    <!-- Generator: Sketch 42 (36781) - http://www.bohemiancoding.com/sketch -->
    <desc>Created with Sketch.</desc>
    <defs></defs>
    <g id="icon-transporter" stroke="none" stroke-width="1" fill="none" fill-rule="evenodd" transform="translate(956.000000, 530.940000)">
        <path d="M4.3525,16.3081 C4.8585,16.3101 5.2645,16.7231 5.2645,17.2291 C5.2615,17.7321 4.8505,18.1391 4.3445,18.1371 C3.8465,18.1371 3.4415,17.7381 3.4325,17.2401 C3.4265,16.7301 3.8345,16.3141 4.3405,16.3081 L4.3525,16.3081 Z M23.0145,6.8841 C23.0145,6.5611 23.2785,6.2991 23.6055,6.2991 L28.4105,6.2991 C28.6615,6.2951 28.8835,6.4521 28.9675,6.6911 L30.3295,10.6871 L23.0145,10.6871 L23.0145,6.8841 Z M0.9885,17.8171 L2.3505,17.8171 C2.6665,18.9201 3.8195,19.5611 4.9225,19.2441 C5.6165,19.0461 6.1545,18.5041 6.3505,17.8171 L22.4265,17.8171 C22.7515,17.8171 23.0145,17.5531 23.0145,17.2271 L23.0145,11.8711 L30.6285,11.8711 L30.6285,16.0621 C30.6285,16.3871 30.3645,16.6501 30.0395,16.6501 C29.7155,16.6501 29.4505,16.9121 29.4505,17.2401 C29.4505,17.5621 29.7155,17.8281 30.0395,17.8281 C31.0155,17.8281 31.8055,17.0361 31.8055,16.0621 L31.8055,11.6601 C31.8035,11.4951 31.7795,11.3321 31.7315,11.1691 L31.7315,11.1371 L31.7315,11.0911 L30.0815,6.3131 C29.8315,5.6061 29.1615,5.1291 28.4105,5.1321 L23.6055,5.1321 C22.6295,5.1321 21.8365,5.9271 21.8365,6.9021 L21.8365,16.6391 L6.3505,16.6391 C6.0365,15.5321 4.8835,14.8941 3.7775,15.2141 C3.0865,15.4111 2.5475,15.9501 2.3505,16.6391 L0.9885,16.6391 C0.6635,16.6391 0.3995,16.9021 0.3995,17.2271 C0.3995,17.5531 0.6635,17.8171 0.9885,17.8171 L0.9885,17.8171 Z" id="Fill-2032" fill="#DBB706"></path>
        <path d="M27.2031,17.2402 C27.1971,17.7442 26.7881,18.1542 26.2821,18.1502 C25.7781,18.1502 25.3681,17.7382 25.3681,17.2292 C25.3741,16.7292 25.7821,16.3232 26.2881,16.3232 C26.7921,16.3242 27.2031,16.7342 27.2031,17.2402 M24.1901,17.2402 C24.1911,18.3942 25.1321,19.3302 26.2881,19.3272 C27.4421,19.3272 28.3781,18.3862 28.3741,17.2292 C28.3721,16.0772 27.4391,15.1452 26.2821,15.1452 C25.1261,15.1462 24.1901,16.0822 24.1901,17.2402" id="Fill-2034" fill="#DBB706"></path>
        <path d="M7.1787,1.7954 C7.1787,1.6804 7.2767,1.5814 7.3917,1.5814 L19.2527,1.5814 C19.3697,1.5814 19.4657,1.6804 19.4657,1.7954 L19.4657,14.0584 C19.4657,14.1734 19.3697,14.2734 19.2527,14.2734 L7.3917,14.2734 C7.2767,14.2734 7.1787,14.1734 7.1787,14.0584 L7.1787,1.7954 Z M7.3917,15.4494 L19.2527,15.4494 C20.0247,15.4494 20.6457,14.8274 20.6457,14.0584 L20.6457,1.7954 C20.6457,1.0284 20.0247,0.4084 19.2527,0.4084 L7.3917,0.4084 C6.6247,0.4084 6.0027,1.0284 6.0027,1.7954 L6.0027,14.0584 C6.0027,14.8274 6.6247,15.4494 7.3917,15.4494 L7.3917,15.4494 Z" id="Fill-2036" fill="#DBB706"></path>
        <path d="M0.9883,1.5815 L4.4753,1.5815 C4.8013,1.5815 5.0653,1.3215 5.0653,0.9955 C5.0653,0.6715 4.8013,0.4085 4.4753,0.4085 L0.9883,0.4085 C0.6633,0.4085 0.3993,0.6715 0.3993,0.9955 C0.3993,1.3215 0.6633,1.5815 0.9883,1.5815" id="Fill-2038" fill="#DBB706"></path>
        <path d="M0.9883,3.9634 L4.4753,3.9634 C4.8013,3.9634 5.0653,3.7004 5.0653,3.3774 C5.0653,3.0484 4.8013,2.7834 4.4753,2.7834 L0.9883,2.7834 C0.6633,2.7834 0.3993,3.0484 0.3993,3.3774 C0.3993,3.7004 0.6633,3.9634 0.9883,3.9634" id="Fill-2040" fill="#DBB706"></path>
        <path d="M0.9883,6.3467 L4.4753,6.3467 C4.8013,6.3467 5.0653,6.0807 5.0653,5.7577 C5.0653,5.4337 4.8013,5.1687 4.4753,5.1687 L0.9883,5.1687 C0.6633,5.1687 0.3993,5.4337 0.3993,5.7577 C0.3993,6.0807 0.6633,6.3467 0.9883,6.3467" id="Fill-2042" fill="#DBB706"></path>
        <path d="M0.9883,8.729 L4.4753,8.729 C4.8013,8.729 5.0653,8.466 5.0653,8.141 C5.0653,7.818 4.8013,7.552 4.4753,7.552 L0.9883,7.552 C0.6633,7.552 0.3993,7.818 0.3993,8.141 C0.3993,8.466 0.6633,8.729 0.9883,8.729" id="Fill-2044" fill="#DBB706"></path>
        <path d="M0.9883,11.1152 L4.4753,11.1152 C4.8013,11.1152 5.0653,10.8492 5.0653,10.5262 C5.0653,10.1992 4.8013,9.9332 4.4753,9.9332 L0.9883,9.9332 C0.6633,9.9332 0.3993,10.1992 0.3993,10.5262 C0.3993,10.8492 0.6633,11.1152 0.9883,11.1152" id="Fill-2046" fill="#DBB706"></path>
        <path d="M0.9883,13.4985 L4.4753,13.4985 C4.8013,13.4985 5.0653,13.2325 5.0653,12.9095 C5.0653,12.5815 4.8013,12.3185 4.4753,12.3185 L0.9883,12.3185 C0.6633,12.3185 0.3993,12.5815 0.3993,12.9095 C0.3993,13.2325 0.6633,13.4985 0.9883,13.4985" id="Fill-2048" fill="#DBB706"></path>
    </g>
</svg>
