<svg width="40px" height="19px" viewBox="695 319 40 19" version="1.1" xmlns="http://www.w3.org/2000/svg" xmlns:xlink="http://www.w3.org/1999/xlink">
    <!-- Generator: Sketch 42 (36781) - http://www.bohemiancoding.com/sketch -->
    <desc>Created with Sketch.</desc>
    <defs></defs>
    <path d="M699.4258,332.3691 C698.9568,332.3691 698.5758,332.7491 698.5758,333.2191 C698.5758,333.6871 698.9568,334.0691 699.4258,334.0691 L704.5218,334.0691 C704.9918,334.0691 705.3708,333.6871 705.3708,333.2191 C705.3708,332.7491 704.9918,332.3691 704.5218,332.3691 L699.4258,332.3691 Z M697.7288,327.2741 C697.2578,327.2741 696.8768,327.6541 696.8768,328.1221 C696.8768,328.5921 697.2578,328.9721 697.7288,328.9721 L704.5218,328.9721 C704.9918,328.9721 705.3708,328.5921 705.3708,328.1221 C705.3708,327.6541 704.9918,327.2741 704.5218,327.2741 L697.7288,327.2741 Z M712.1268,322.5891 C711.6578,322.6051 711.2928,323.0001 711.3108,323.4691 C711.3188,323.6951 711.4158,323.9081 711.5818,324.0601 L715.7638,327.9911 L711.5708,332.1841 C711.2288,332.5061 711.2148,333.0421 711.5368,333.3841 C711.8598,333.7251 712.3988,333.7391 712.7388,333.4151 C712.7458,333.4081 712.7558,333.3981 712.7638,333.3901 L716.9978,329.1571 L718.7088,330.7781 C719.7928,331.7981 721.4978,331.7971 722.5838,330.7781 L724.3088,329.1441 L728.5568,333.3901 C728.8828,333.7271 729.4198,333.7361 729.7578,333.4111 C730.0938,333.0811 730.1018,332.5451 729.7758,332.2091 C729.7678,332.1991 729.7598,332.1911 729.7498,332.1841 L725.5568,327.9911 L729.7378,324.0601 C730.0778,323.7391 730.0938,323.2021 729.7718,322.8591 C729.4488,322.5191 728.9098,322.5041 728.5708,322.8271 L728.5708,322.8271 L721.4298,329.5421 C721.0898,329.8631 720.2148,329.8621 719.8768,329.5421 L712.7498,322.8271 C712.5838,322.6661 712.3598,322.5801 712.1268,322.5891 L712.1268,322.5891 Z M696.0298,322.1771 C695.5608,322.1771 695.1798,322.5571 695.1798,323.0261 C695.1798,323.4961 695.5608,323.8741 696.0298,323.8741 L704.5218,323.8741 C704.9918,323.8741 705.3708,323.4961 705.3708,323.0261 C705.3708,322.5571 704.9918,322.1771 704.5218,322.1771 L696.0298,322.1771 Z M709.6188,320.9021 L731.7008,320.9021 C732.1878,320.9021 732.5508,321.2671 732.5508,321.7511 L732.5508,334.4921 C732.5508,334.9771 732.1878,335.3421 731.7008,335.3421 L709.6188,335.3421 C709.1328,335.3421 708.7698,334.9771 708.7698,334.4921 L708.7698,321.7511 C708.7698,321.2671 709.1328,320.9021 709.6188,320.9021 L709.6188,320.9021 Z M709.6188,319.2041 C708.2208,319.2041 707.0708,320.3551 707.0708,321.7511 L707.0708,334.4921 C707.0708,335.8901 708.2208,337.0401 709.6188,337.0401 L731.7008,337.0401 C733.0978,337.0401 734.2498,335.8901 734.2498,334.4921 L734.2498,321.7511 C734.2498,320.3551 733.0978,319.2041 731.7008,319.2041 L709.6188,319.2041 Z" id="icon-button-git" stroke="none" fill="#FFFFFF" fill-rule="evenodd"></path>
</svg>
