
<svg width="102px" height="11px" viewBox="6 49 102 11" version="1.1" xmlns="http://www.w3.org/2000/svg" xmlns:xlink="http://www.w3.org/1999/xlink">
    <!-- Generator: Sketch 42 (36781) - http://www.bohemiancoding.com/sketch -->
    <desc>Created with Sketch.</desc>
    <defs></defs>
    <path d="M8.1797,59.438 L6.4817,59.438 L6.4817,49.372 L9.1307,49.372 L12.1687,55.691 L15.2057,49.372 L17.8407,49.372 L17.8407,59.438 L16.1427,59.438 L16.1427,51.576 L12.6287,58.56 L11.6787,58.56 L8.1797,51.576 L8.1797,59.438 Z M29.9811,57.1486 L28.9741,59.4376 L27.1591,59.4376 L31.5941,49.3716 L33.4081,49.3716 L37.8441,59.4376 L36.0291,59.4376 L35.0211,57.1486 L29.9811,57.1486 Z M34.3311,55.5786 L32.5001,51.4306 L30.6721,55.5786 L34.3311,55.5786 Z M55.1955,52.6409 C55.1955,54.3019 54.4705,55.3489 53.0215,55.7809 L55.6575,59.4379 L53.4965,59.4379 L51.0915,56.0519 L48.8605,56.0519 L48.8605,59.4379 L47.1615,59.4379 L47.1615,49.3719 L50.9055,49.3719 C52.4405,49.3719 53.5405,49.6299 54.2015,50.1499 C54.8655,50.6679 55.1955,51.4979 55.1955,52.6409 Z M52.9355,54.0659 C53.2815,53.7679 53.4535,53.2919 53.4535,52.6319 C53.4535,51.9749 53.2755,51.5249 52.9215,51.2789 C52.5645,51.0359 51.9315,50.9129 51.0195,50.9129 L48.8605,50.9129 L48.8605,54.5129 L50.9765,54.5129 C51.9375,54.5129 52.5885,54.3639 52.9355,54.0659 Z M65.5645,49.3721 L67.2615,49.3721 L67.2615,54.2821 L71.8715,49.3721 L74.0315,49.3721 L69.9845,53.7791 L74.0875,59.4381 L72.0715,59.4381 L68.7305,55.0321 L67.2615,56.6151 L67.2615,59.4381 L65.5645,59.4381 L65.5645,49.3721 Z M90.6904,49.3721 L90.6904,50.9721 L85.3194,50.9721 L85.3194,53.6341 L90.1454,53.6341 L90.1454,55.1461 L85.3194,55.1461 L85.3194,57.8391 L90.8654,57.8391 L90.8654,59.4381 L83.6214,59.4381 L83.6214,49.3721 L90.6904,49.3721 Z M104.7598,50.9268 L104.7598,59.4378 L103.0618,59.4378 L103.0618,50.9268 L100.0078,50.9268 L100.0078,49.3718 L107.8128,49.3718 L107.8128,50.9268 L104.7598,50.9268 Z" id="logo-market" stroke="none" fill="#000000" fill-rule="evenodd"></path>
</svg>
