
<svg width="18px" height="21px" viewBox="138 530 18 21" version="1.1" xmlns="http://www.w3.org/2000/svg" xmlns:xlink="http://www.w3.org/1999/xlink">
    <!-- Generator: Sketch 42 (36781) - http://www.bohemiancoding.com/sketch -->
    <desc>Created with Sketch.</desc>
    <defs></defs>
    <path d="M147.2397,548.4888 L147.2397,540.0118 L150.2377,538.5678 L150.2377,540.5348 L151.4357,539.9358 L151.4357,537.9888 L153.8347,536.8358 L153.8347,545.1918 L147.2397,548.4888 Z M139.4427,536.8358 L146.0397,540.0118 L146.0397,548.4888 L139.4427,545.1908 L139.4427,536.8358 Z M146.6377,538.9678 L139.8247,535.6888 L142.6657,534.2668 L149.5347,537.5758 L146.6377,538.9678 Z M153.4537,535.6878 L150.9157,536.9088 L144.0217,533.5888 L146.6377,532.2798 L153.4537,535.6878 Z M146.6377,530.9398 L138.2437,535.1358 L138.2437,545.9318 L146.6377,550.1318 L155.0347,545.9318 L155.0347,535.1358 L146.6377,530.9398 Z" id="icon-product" stroke="none" fill="#DBB706" fill-rule="evenodd"></path>
</svg>
