<?xml version="1.0" encoding="UTF-8"?>
<svg width="14px" height="20px" viewBox="0 0 14 20" version="1.1" xmlns="http://www.w3.org/2000/svg" xmlns:xlink="http://www.w3.org/1999/xlink">
    <!-- Generator: Sketch 42 (36781) - http://www.bohemiancoding.com/sketch -->
    <title>icon-country-search</title>
    <defs></defs>
    <g id="Homepage-enter-search" stroke="none" stroke-width="1" fill="none" fill-rule="evenodd">
        <g transform="translate(-228.000000, -394.000000)" id="search-desplegado" fill="#D7BA1B">
            <g transform="translate(199.000000, 377.470000)">
                <path d="M35.9181,35.8121 C35.7021,35.8121 35.5021,35.7031 35.3851,35.5201 L30.3421,27.6751 C30.3381,27.6711 30.3361,27.6691 30.3341,27.6651 C29.6501,26.5991 29.2891,25.3631 29.2891,24.0911 C29.2891,20.4351 32.2621,17.4591 35.9181,17.4591 C39.5741,17.4591 42.5481,20.4351 42.5481,24.0911 C42.5481,25.3671 42.1831,26.6071 41.4961,27.6751 L36.4511,35.5201 C36.3341,35.7031 36.1331,35.8121 35.9181,35.8121 Z M31.4121,26.9971 L35.9181,34.0061 L40.4301,26.9891 C40.9841,26.1251 41.2791,25.1221 41.2791,24.0911 C41.2791,21.1341 38.8731,18.7281 35.9181,18.7281 C32.9611,18.7281 30.5581,21.1341 30.5581,24.0911 C30.5581,25.1221 30.8511,26.1221 31.4061,26.9871 C31.4081,26.9911 31.4101,26.9931 31.4121,26.9971 Z M35.918,26.2648 C34.528,26.2648 33.397,25.1318 33.397,23.7448 C33.397,22.3528 34.528,21.2228 35.918,21.2228 C37.309,21.2228 38.438,22.3528 38.438,23.7448 C38.438,25.1318 37.309,26.2648 35.918,26.2648 Z M35.918,22.0688 C34.994,22.0688 34.244,22.8208 34.244,23.7448 C34.244,24.6678 34.994,25.4188 35.918,25.4188 C36.842,25.4188 37.594,24.6678 37.594,23.7448 C37.594,22.8208 36.842,22.0688 35.918,22.0688 Z" id="icon-country-search"></path>
            </g>
        </g>
    </g>
</svg>
