<?xml version="1.0" encoding="UTF-8"?>
<svg width="111px" height="38px" viewBox="0 0 111 38" version="1.1" xmlns="http://www.w3.org/2000/svg" xmlns:xlink="http://www.w3.org/1999/xlink">
    <!-- Generator: Sketch 42 (36781) - http://www.bohemiancoding.com/sketch -->
    <title>logo oec</title>
    <defs></defs>
    <g id="Homepage-" stroke="none" stroke-width="1" fill="none" fill-rule="evenodd">
        <g id="Homepage" transform="translate(-556.000000, -181.000000)" fill="#FFFFFF">
            <g id="Logo-oec-market" transform="translate(556.000000, 181.000000)">
                <path d="M30.6211,18.8057 C30.6211,15.5747 29.5821,12.8187 27.5111,10.5367 C25.4361,8.2567 22.8881,7.1167 19.8631,7.1167 C16.8401,7.1167 14.2911,8.2567 12.2181,10.5367 C10.1431,12.8187 9.1071,15.5747 9.1071,18.8057 C9.1071,22.0387 10.1431,24.7857 12.2181,27.0447 C14.2911,29.3117 16.8401,30.4457 19.8631,30.4457 C22.8881,30.4457 25.4361,29.3117 27.5111,27.0447 C29.5821,24.7857 30.6211,22.0387 30.6211,18.8057 M33.3691,32.1267 C29.7051,35.7067 25.1941,37.4957 19.8381,37.4957 C14.4821,37.4957 9.9721,35.7067 6.3071,32.1267 C2.6441,28.5537 0.8131,24.1017 0.8131,18.7807 C0.8131,13.4587 2.6441,9.0087 6.3071,5.4297 C9.9721,1.8527 14.4821,0.0657 19.8381,0.0657 C25.1941,0.0657 29.7051,1.8527 33.3691,5.4297 C37.0311,9.0087 38.8631,13.4587 38.8631,18.7807 C38.8631,24.1017 37.0311,28.5537 33.3691,32.1267 Z M71.3154,0.897 L71.3154,8.104 L53.2744,8.104 L53.2744,15.566 L69.5014,15.566 L69.5014,22.461 L53.2744,22.461 L53.2744,29.978 L71.8824,29.978 L71.8824,37.132 L45.1874,37.132 L45.1874,0.897 L71.3154,0.897 Z M95.2129,29.9775 C99.1839,29.9775 102.4379,28.4065 104.9579,25.2575 L110.1439,30.5985 C106.0299,35.2285 101.1819,37.5445 95.6029,37.5445 C90.0199,37.5445 85.4239,35.7845 81.8139,32.2575 C78.2009,28.7345 76.3949,24.2815 76.3949,18.9105 C76.3949,13.5355 78.2349,9.0535 81.9159,5.4565 C85.5979,1.8635 90.0979,0.0655 95.4199,0.0655 C101.3649,0.0655 106.3409,2.3275 110.3509,6.8575 L105.3219,12.5575 C102.7629,9.3805 99.5849,7.7905 95.7819,7.7905 C92.7419,7.7905 90.1409,8.7855 87.9809,10.7665 C85.8209,12.7565 84.7399,15.4365 84.7399,18.8055 C84.7399,22.1745 85.7599,24.8805 87.8009,26.9195 C89.8379,28.9575 92.3109,29.9775 95.2129,29.9775 Z" id="logo-oec"></path>
            </g>
        </g>
    </g>
</svg>
