<?xml version="1.0" encoding="UTF-8"?>
<svg width="110px" height="22px" viewBox="0 0 110 22" version="1.1" xmlns="http://www.w3.org/2000/svg" xmlns:xlink="http://www.w3.org/1999/xlink">
    <!-- Generator: Sketch 45 (43475) - http://www.bohemiancoding.com/sketch -->
    <title>MACRO</title>
    <desc>Created with Sketch.</desc>
    <defs></defs>
    <g id="Page-1" stroke="none" stroke-width="1" fill="none" fill-rule="evenodd">
        <path d="M0,0.413963421 L6.06160723,0.413963421 L10.9995995,8.4271125 L15.9375917,0.413963421 L21.9991989,0.413963421 L21.9991989,21.1121345 L16.2924175,21.1121345 L16.2924175,9.22547052 L10.9995995,17.327326 L10.8813242,17.327326 L5.618075,9.28460815 L5.618075,21.1121345 L0,21.1121345 L0,0.413963421 Z M37.7298089,12.9511413 L35.4234413,7.06694697 L33.0875048,12.9511413 L37.7298089,12.9511413 Z M32.7031102,0.266119342 L38.2324788,0.266119342 L47.0439859,21.1121345 L40.8936722,21.1121345 L39.3856626,17.4160325 L31.4020823,17.4160325 L29.9236416,21.1121345 L23.8916031,21.1121345 L32.7031102,0.266119342 Z M56.5355758,21.5260979 C55.0571276,21.5260979 53.6674071,21.2599812 52.3663727,20.7277399 C51.0653383,20.1954985 49.9368065,19.4513574 48.9807433,18.4952943 C48.0246802,17.5392311 47.2657548,16.4057712 46.7039445,15.0948805 C46.1421342,13.7839897 45.8612333,12.3597727 45.8612333,10.8221866 L45.8612333,10.7630489 C45.8612333,9.26488812 46.1372061,7.86038341 46.6891601,6.54949269 C47.2411141,5.23860197 48.0000394,4.09528586 48.9659589,3.11951006 C49.9318784,2.14373426 51.0801226,1.37988083 52.410726,0.827926842 C53.7413293,0.275972854 55.1951149,0 56.7721263,0 C57.836609,0 58.802514,0.10348982 59.6698702,0.310472566 C60.5372265,0.517455311 61.3306484,0.813140512 62.0501599,1.19753704 C62.7696713,1.58193357 63.4201788,2.04024563 64.0017017,2.57248697 C64.5832247,3.10472832 65.1006738,3.68624255 65.5540646,4.3170471 L61.2370175,7.65832329 C60.6456382,6.90924287 59.9951307,6.31787247 59.2854756,5.88419434 C58.5758205,5.45051621 57.7183334,5.23368039 56.7129887,5.23368039 C55.9836209,5.23368039 55.3183292,5.37659491 54.7170936,5.66242822 C54.115858,5.94826154 53.5984089,6.33758038 53.1647308,6.83039644 C52.7310526,7.3232125 52.3910146,7.90472673 52.1446066,8.57495657 C51.8981986,9.24518642 51.7749964,9.9548309 51.7749964,10.7039113 L51.7749964,10.7630489 C51.7749964,11.531842 51.8981986,12.2562707 52.1446066,12.9363569 C52.3910146,13.6164431 52.7310526,14.2028854 53.1647308,14.6957014 C53.5984089,15.1885175 54.115858,15.5778363 54.7170936,15.8636697 C55.3183292,16.149503 55.9836209,16.2924175 56.7129887,16.2924175 C57.24523,16.2924175 57.7331106,16.2332805 58.176645,16.1150046 C58.6201795,15.9967287 59.0242826,15.8242457 59.3889665,15.5975503 C59.7536504,15.3708549 60.0986164,15.1047383 60.423875,14.7991923 C60.7491336,14.4936463 61.0694593,14.1536084 61.3848615,13.7790682 L65.7019086,16.854225 C65.2090926,17.5244548 64.6719311,18.1453938 64.0904082,18.7170604 C63.5088852,19.288727 62.8485216,19.7815357 62.1092975,20.1955012 C61.3700734,20.6094667 60.5421549,20.9347204 59.625517,21.1712721 C58.7088791,21.4078238 57.678909,21.5260979 56.5355758,21.5260979 Z M77.5590038,10.3490855 C78.5446359,10.3490855 79.3035612,10.1273216 79.8358026,9.68378717 C80.3680439,9.24025271 80.6341606,8.64395422 80.6341606,7.89487381 L80.6341606,7.83573618 C80.6341606,7.0078052 80.3581878,6.39179436 79.8062338,5.98768519 C79.2542798,5.58357602 78.4953544,5.38152447 77.529435,5.38152447 L73.7741953,5.38152447 L73.7741953,10.3490855 L77.5590038,10.3490855 Z M68.0378451,0.413963421 L77.8251231,0.413963421 C79.4218471,0.413963421 80.7721429,0.611086888 81.8760509,1.00533974 C82.9799588,1.39959258 83.8768706,1.95153829 84.5668131,2.66119342 C85.7889969,3.84395196 86.4000797,5.45050822 86.4000797,7.48091039 L86.4000797,7.54004802 C86.4000797,9.13677206 86.0156889,10.4574993 85.2468959,11.5022693 C84.4781028,12.5470394 83.4432046,13.3453894 82.1421702,13.8973434 L87.0801624,21.1121345 L80.4567477,21.1121345 L76.2875447,14.8435455 L73.7741953,14.8435455 L73.7741953,21.1121345 L68.0378451,21.1121345 L68.0378451,0.413963421 Z M98.4641565,16.3515551 C99.2526622,16.3515551 99.9721629,16.2037125 100.62268,15.9080229 C101.273197,15.6123333 101.825143,15.2131582 102.278534,14.7104858 C102.731925,14.2078135 103.086747,13.6213712 103.343011,12.9511413 C103.599275,12.2809115 103.727406,11.571267 103.727406,10.8221866 L103.727406,10.7630489 C103.727406,10.0139685 103.599275,9.30432405 103.343011,8.63409421 C103.086747,7.96386436 102.722068,7.37249396 102.248965,6.85996526 C101.775862,6.34743656 101.21406,5.93840536 100.563542,5.6328594 C99.9130252,5.32731345 99.1935246,5.17454276 98.4050189,5.17454276 C97.6165132,5.17454276 96.9019406,5.32238536 96.2612797,5.618075 C95.6206189,5.91376463 95.0686732,6.31293965 94.6054261,6.81561204 C94.142179,7.31828442 93.7873567,7.90472673 93.5409487,8.57495657 C93.2945407,9.24518642 93.1713385,9.9548309 93.1713385,10.7039113 L93.1713385,10.7630489 C93.1713385,11.5121294 93.2994687,12.2217738 93.5557331,12.8920037 C93.8119975,13.5622335 94.1717478,14.1536039 94.6349949,14.6661326 C95.098242,15.1786613 95.6551158,15.5876925 96.305633,15.8932385 C96.9561502,16.1987844 97.6756508,16.3515551 98.4641565,16.3515551 Z M98.4050189,21.5260979 C96.8082949,21.5260979 95.3298688,21.2451969 93.9696965,20.6833866 C92.6095242,20.1215763 91.4366396,19.3577229 90.4510074,18.3918034 C89.4653753,17.4258839 88.6916657,16.292424 88.1298554,14.9913896 C87.5680451,13.6903552 87.2871442,12.3006348 87.2871442,10.8221866 L87.2871442,10.7630489 C87.2871442,9.28460076 87.5680451,7.88995223 88.1298554,6.57906151 C88.6916657,5.26817079 89.4752315,4.12485468 90.4805763,3.14907888 C91.485921,2.17330308 92.6686618,1.40452156 94.0288342,0.84271125 C95.3890065,0.280900941 96.8674325,0 98.4641565,0 C100.060881,0 101.539307,0.280900941 102.899479,0.84271125 C104.259651,1.40452156 105.432536,2.16837499 106.418168,3.13429447 C107.4038,4.10021395 108.17751,5.23367389 108.73932,6.53470829 C109.30113,7.83574269 109.582031,9.22546313 109.582031,10.7039113 L109.582031,10.7630489 C109.582031,12.2414971 109.30113,13.6361457 108.73932,14.9470364 C108.17751,16.2579271 107.393944,17.4012432 106.388599,18.377019 C105.383254,19.3527948 104.200514,20.1215763 102.840341,20.6833866 C101.480169,21.2451969 100.001743,21.5260979 98.4050189,21.5260979 Z" id="MACRO" fill="#FFFFFF"></path>
    </g>
</svg>
