
<svg width="20px" height="18px" viewBox="222 1199 20 18" version="1.1" xmlns="http://www.w3.org/2000/svg" xmlns:xlink="http://www.w3.org/1999/xlink">
    <!-- Generator: Sketch 42 (36781) - http://www.bohemiancoding.com/sketch -->
    <desc>Created with Sketch.</desc>
    <defs></defs>
    <path d="M229.3008,1213.4521 L229.3078,1213.4771 L229.2878,1213.4921 L229.2688,1213.5401 L229.2418,1213.5601 L229.2418,1213.6131 L229.2628,1213.6501 L229.2128,1214.0551 L229.1298,1214.0271 L229.1008,1213.9891 L229.0678,1213.9891 L229.0378,1214.0201 L229.0338,1214.0821 L229.0108,1214.1061 L229.0108,1214.1381 L228.9068,1214.1381 L228.8758,1214.1131 L228.8758,1214.0871 L228.8428,1214.0541 L228.8428,1214.0361 L228.8178,1214.0141 L228.8248,1213.8861 L228.8398,1213.8701 L228.8298,1213.8091 L228.8648,1213.7861 L228.8578,1213.7441 L228.8308,1213.7441 L228.8278,1213.6691 L228.8408,1213.6561 L228.8408,1213.5351 L228.8218,1213.5151 L228.8098,1213.4861 L228.8098,1213.4611 L228.7508,1213.3991 L228.7508,1213.3611 L228.7608,1213.3501 L228.7518,1213.2901 L228.7868,1213.2901 L228.8198,1213.3231 L228.9088,1213.3231 L228.9418,1213.2901 L228.9698,1213.2951 L228.9808,1213.2841 L228.9808,1213.2631 L229.0378,1213.1991 L229.0678,1213.1991 L229.0678,1213.1691 L229.1138,1213.1531 L229.1338,1213.1731 L229.1458,1213.1731 L229.1708,1213.1991 L229.1898,1213.1991 L229.2308,1213.2431 L229.2308,1213.2741 L229.2198,1213.3041 L229.2198,1213.3101 L229.2298,1213.3041 L229.2448,1213.3181 L229.2608,1213.3631 L229.2798,1213.3821 L229.2868,1213.4401 L229.3008,1213.4521 Z M231.0469,1214.3506 L231.0499,1214.3616 L231.0309,1214.3786 L231.0379,1214.3996 L230.9779,1214.5096 L230.9739,1214.5446 L230.9589,1214.5756 L230.9589,1214.5976 L230.9339,1214.6336 L230.9339,1214.6666 L230.9449,1214.6916 L230.9449,1214.7076 L230.9659,1214.7076 L230.9939,1214.7376 L230.9799,1214.7516 L230.9979,1214.7636 L230.9979,1214.7756 L231.0219,1214.7966 L230.9519,1214.8746 L230.9639,1214.9296 L230.9499,1214.9506 L230.8319,1214.9396 L230.7079,1214.8526 L230.7079,1214.8176 L230.6649,1214.8036 L230.5509,1214.8036 L230.4389,1214.7386 L230.3949,1214.7386 L230.3579,1214.6776 L230.3219,1214.6776 L230.2639,1214.6536 L230.2429,1214.6336 L230.1319,1214.6336 L230.0839,1214.5896 L230.1059,1214.5696 L230.1059,1214.4576 L230.1369,1214.4336 L230.1789,1214.4336 L230.2139,1214.4626 L230.2519,1214.4626 L230.2759,1214.4376 L230.2759,1214.4206 L230.3189,1214.4206 L230.3339,1214.4066 L230.3549,1214.4066 L230.4149,1214.4486 L230.4389,1214.4486 L230.4679,1214.4766 L230.5149,1214.4766 L230.5509,1214.4486 L230.7569,1214.4416 L230.8119,1214.3816 L230.9359,1214.3956 L230.9359,1214.3746 L230.9539,1214.3566 L230.9689,1214.3616 L230.9979,1214.3556 L231.0089,1214.3436 L231.0239,1214.3436 L231.0469,1214.3366 L231.0469,1214.3506 Z M229.1484,1212.522 L229.1464,1212.428 L229.1574,1212.415 L229.1864,1212.442 L229.1894,1212.594 L229.2064,1212.616 L229.2104,1212.828 L229.1664,1212.863 L229.1544,1213.038 L229.0964,1213.092 L229.0714,1213.084 L229.0574,1213.073 L229.0514,1213.059 L229.0224,1213.059 L228.9754,1213.021 L228.9754,1213.001 L228.9904,1212.986 L228.9874,1212.97 L228.9364,1212.97 L228.9264,1212.943 L228.9534,1212.919 L228.9534,1212.893 L228.9154,1212.861 L228.9644,1212.841 L228.9154,1212.795 L228.9024,1212.76 L228.9274,1212.735 L228.9014,1212.707 L228.9264,1212.678 L228.9344,1212.607 L228.9564,1212.599 L228.9734,1212.599 L228.9874,1212.584 L229.0344,1212.584 L229.0784,1212.543 L229.1034,1212.54 L229.1224,1212.564 L229.1334,1212.564 L229.1484,1212.522 Z M223.1553,1208.8037 L223.0753,1208.8297 L223.0513,1208.8107 L223.0883,1208.7617 L223.1203,1208.7507 L223.1453,1208.7167 L223.1413,1208.6997 L223.1163,1208.7057 L223.0893,1208.7397 L222.9973,1208.7527 L222.9613,1208.7437 L223.0003,1208.6897 L223.0453,1208.6827 L223.0893,1208.6447 L223.0743,1208.6337 L222.9633,1208.6497 L222.9513,1208.6637 L222.9353,1208.6337 L222.8893,1208.6067 L222.9373,1208.5427 L223.0533,1208.5237 L223.0633,1208.4837 L222.9273,1208.4777 L222.8863,1208.4457 L222.9193,1208.4167 L223.0053,1208.4057 L223.0603,1208.4507 L223.0933,1208.3997 L223.0913,1208.3597 L223.1463,1208.2877 L223.2113,1208.2797 L223.1943,1208.2547 L223.1503,1208.2437 L223.1593,1208.2087 L223.2453,1208.1117 L223.2413,1208.0907 L223.2963,1208.0257 L223.3293,1208.0067 L223.3693,1208.0187 L223.3983,1207.9857 L223.3983,1207.9627 L223.3683,1207.9507 L223.2993,1207.9607 L223.2153,1207.9507 L223.1943,1207.9337 L223.2063,1207.8917 L223.0623,1207.8417 L223.0883,1207.7827 L223.1073,1207.7607 L223.1483,1207.7567 L223.1453,1207.6957 L223.2573,1207.6577 L223.1113,1207.5607 L223.1643,1207.5187 L223.1503,1207.4437 L223.1573,1207.4147 L223.3003,1207.4077 L223.3273,1207.4277 L223.3783,1207.4377 L223.3843,1207.4767 L223.4053,1207.4927 L223.4303,1207.4607 L223.4643,1207.4507 L223.5223,1207.4557 L223.5493,1207.4767 L223.5643,1207.5097 L223.5753,1207.4817 L223.5683,1207.4227 L223.6053,1207.3887 L223.6723,1207.3727 L223.7063,1207.3297 L223.6733,1207.3107 L223.5753,1207.2947 L223.5593,1207.2827 L223.5553,1207.2477 L223.5823,1207.2307 L223.6463,1207.2217 L223.6593,1207.2037 L223.6553,1207.1707 L223.6823,1207.0887 L223.7433,1207.0397 L223.7693,1207.0347 L223.8183,1207.0447 L223.9053,1207.0157 L223.9263,1207.0207 L223.9693,1207.0067 L223.9943,1206.9697 L224.0963,1207.0577 L224.1003,1207.0777 L224.2693,1207.0407 L224.3393,1207.0897 L224.3543,1207.1767 L224.4113,1207.2267 L224.4133,1207.2547 L224.4333,1207.2797 L224.4173,1207.3007 L224.3963,1207.3037 L224.3783,1207.3177 L224.3833,1207.3417 L224.4503,1207.3407 L224.4753,1207.3567 L224.4973,1207.4987 L224.4363,1207.5697 L224.3573,1207.5827 L224.3413,1207.6447 L224.2843,1207.6587 L224.2693,1207.6507 L224.2443,1207.6557 L224.2043,1207.6967 L224.2733,1207.8767 L224.2863,1208.2087 L224.2323,1208.2667 L224.1753,1208.4487 L224.1393,1208.4797 L224.1413,1208.5447 L224.1223,1208.5727 L224.0673,1208.5887 L224.0473,1208.5747 L224.0333,1208.5467 L223.9913,1208.5257 L223.9713,1208.5747 L223.9583,1208.5627 L223.9353,1208.5797 L223.8833,1208.5867 L223.8443,1208.5717 L223.7733,1208.5827 L223.7783,1208.5977 L223.7533,1208.6307 L223.7023,1208.6377 L223.6183,1208.7217 L223.6013,1208.7247 L223.5713,1208.7087 L223.5603,1208.6767 L223.5393,1208.6587 L223.5093,1208.6667 L223.4953,1208.7067 L223.5203,1208.7287 L223.5223,1208.7507 L223.4633,1208.7617 L223.4393,1208.7897 L223.1993,1208.8437 L223.1783,1208.8107 L223.1553,1208.8037 Z M224.4209,1206.2861 L224.4639,1206.2881 L224.4849,1206.2631 L224.4829,1206.1821 L224.5239,1206.1341 L224.5029,1206.0601 L224.5219,1206.0231 L224.5169,1206.0031 L224.4909,1205.9731 L224.5029,1205.9331 L224.5239,1205.9131 L224.5309,1205.8891 L224.5049,1205.8541 L224.5229,1205.8321 L224.5129,1205.7621 L224.5559,1205.7461 L224.5699,1205.7561 L224.6399,1205.7501 L224.6829,1205.7341 L224.6189,1205.6781 L224.6509,1205.6321 L224.6749,1205.5571 L224.7069,1205.5471 L224.7239,1205.5171 L224.7449,1205.4091 L224.7569,1205.3911 L224.7819,1205.4091 L224.8139,1205.4191 L224.8319,1205.4331 L224.8819,1205.4241 L224.9159,1205.4541 L225.2419,1205.3901 L225.2629,1205.4191 L225.2419,1205.4611 L225.2539,1205.4891 L225.2329,1205.5361 L225.1009,1205.6751 L225.0579,1205.6881 L224.9639,1205.7691 L224.9419,1205.7651 L225.0399,1205.8121 L225.0039,1205.8611 L225.0049,1205.8721 L224.9939,1205.9191 L225.0109,1205.9331 L225.0619,1205.9211 L225.0819,1205.8981 L225.1469,1205.8681 L225.2689,1205.8881 L225.2999,1205.8731 L225.4419,1205.8841 L225.4789,1205.8631 L225.5089,1205.8561 L225.6019,1205.9631 L225.5799,1205.9891 L225.5729,1206.0151 L225.5269,1206.0871 L225.4969,1206.2221 L225.4579,1206.2741 L225.4509,1206.3231 L225.3489,1206.4631 L225.3199,1206.4681 L225.2099,1206.5271 L225.3469,1206.5401 L225.3299,1206.5961 L225.3099,1206.6191 L225.2689,1206.6231 L225.2039,1206.6641 L225.1999,1206.7001 L225.1439,1206.7111 L225.1319,1206.7251 L225.2259,1206.7401 L225.3539,1206.7131 L225.6149,1206.9561 L225.6239,1207.0121 L225.6149,1207.0611 L225.6369,1207.1551 L225.6709,1207.1801 L225.7219,1207.3931 L225.7419,1207.4071 L225.8719,1207.4481 L225.9419,1207.5001 L225.9379,1207.5241 L225.9419,1207.5501 L225.9699,1207.6041 L226.0339,1207.6591 L226.0749,1207.9631 L226.1229,1207.9931 L226.1569,1208.0361 L226.1939,1208.1901 L226.1259,1208.2371 L226.1279,1208.2571 L226.1499,1208.2951 L226.1499,1208.3241 L226.1549,1208.3371 L226.1989,1208.3381 L226.2239,1208.3151 L226.2429,1208.2651 L226.3229,1208.2411 L226.5509,1208.3071 L226.6259,1208.3881 L226.6179,1208.4401 L226.6319,1208.4821 L226.5779,1208.6721 L226.5209,1208.7251 L226.4349,1208.7481 L226.4699,1208.7751 L226.4969,1208.7831 L226.4829,1208.8141 L226.4389,1208.8211 L226.4269,1208.8371 L226.4019,1208.8291 L226.3679,1208.8321 L226.3469,1208.8631 L226.3229,1208.8651 L226.3699,1208.8741 L226.3919,1208.8911 L226.3879,1208.9281 L226.3719,1208.9481 L226.2589,1208.9771 L226.2519,1208.9861 L226.2619,1209.0001 L226.2849,1209.0151 L226.4459,1209.0351 L226.4559,1209.0221 L226.5219,1209.0231 L226.5439,1209.0381 L226.5339,1209.0941 L226.5419,1209.1501 L226.5019,1209.1781 L226.4559,1209.1881 L226.3939,1209.2231 L226.3969,1209.2471 L226.3799,1209.2691 L226.3469,1209.2691 L226.2619,1209.3241 L225.8209,1209.3441 L225.7939,1209.3231 L225.6669,1209.2901 L225.6519,1209.3101 L225.6549,1209.3321 L225.4799,1209.3631 L225.4909,1209.4021 L225.2939,1209.4161 L225.2349,1209.3741 L225.1059,1209.3651 L224.9869,1209.4251 L224.9759,1209.4861 L224.9789,1209.5061 L224.9739,1209.5351 L224.9499,1209.5661 L224.9129,1209.5911 L224.9149,1209.6151 L224.8759,1209.6101 L224.8319,1209.5751 L224.8149,1209.5451 L224.7999,1209.5471 L224.7899,1209.5121 L224.7669,1209.4891 L224.7509,1209.5151 L224.5709,1209.5451 L224.5559,1209.5711 L224.5559,1209.5891 L224.5219,1209.5941 L224.4639,1209.6461 L224.4669,1209.6691 L224.4479,1209.7051 L224.4229,1209.7081 L224.3989,1209.6901 L224.4109,1209.6861 L224.4059,1209.6461 L224.3689,1209.6231 L224.3389,1209.6291 L224.3199,1209.6551 L224.2569,1209.6591 L224.2689,1209.6131 L224.3059,1209.5941 L224.3429,1209.5891 L224.4199,1209.5391 L224.5259,1209.4051 L224.5599,1209.4021 L224.6629,1209.2861 L224.6569,1209.2461 L224.6899,1209.1901 L224.7189,1209.2111 L224.7549,1209.1941 L224.7919,1209.1041 L224.9279,1209.0871 L224.9689,1209.0921 L224.9939,1209.0881 L225.0359,1209.1261 L225.1289,1209.1161 L225.1379,1209.1061 L225.1419,1209.0841 L225.3469,1208.8461 L225.2879,1208.8821 L225.2689,1208.9071 L225.1979,1208.9421 L225.1419,1208.9511 L225.1199,1208.9771 L225.1189,1209.0071 L225.1079,1209.0201 L225.0399,1209.0311 L224.9849,1209.0121 L224.9349,1208.9731 L224.9309,1208.9511 L224.9179,1208.9401 L224.9159,1208.9161 L224.8859,1208.8931 L224.8489,1208.8991 L224.8209,1208.9331 L224.7719,1208.9381 L224.7439,1208.9191 L224.7609,1208.8941 L224.8099,1208.8931 L224.8049,1208.8701 L224.7679,1208.8741 L224.7289,1208.8231 L224.7119,1208.8101 L224.6899,1208.8371 L224.6509,1208.8411 L224.6379,1208.8591 L224.5699,1208.8761 L224.4969,1208.8671 L224.5129,1208.8461 L224.4939,1208.8321 L224.4909,1208.8181 L224.5089,1208.7921 L224.5049,1208.7701 L224.4839,1208.7531 L224.4799,1208.7251 L224.5009,1208.6991 L224.5829,1208.6851 L224.6799,1208.6211 L224.7239,1208.6161 L224.7439,1208.5891 L224.8199,1208.5571 L224.8529,1208.5151 L224.8369,1208.2691 L224.8119,1208.2501 L224.7719,1208.2601 L224.7489,1208.2861 L224.6889,1208.3051 L224.6589,1208.2971 L224.7789,1208.1881 L224.7879,1208.1591 L224.8539,1208.0961 L225.1079,1208.0541 L225.1419,1208.0801 L225.1569,1208.0751 L225.1459,1208.0261 L225.2069,1208.0451 L225.2259,1208.0421 L225.1899,1208.0171 L225.1589,1207.9581 L225.1919,1207.9051 L225.1999,1207.8701 L225.2069,1207.8591 L225.1799,1207.8151 L225.1899,1207.7771 L225.2199,1207.7431 L225.2419,1207.7301 L225.2429,1207.7071 L225.2709,1207.6721 L225.2139,1207.6321 L225.1869,1207.6261 L225.1689,1207.6561 L225.1469,1207.6591 L225.1239,1207.6161 L225.0889,1207.5871 L225.0689,1207.4911 L225.0289,1207.4451 L225.0259,1207.4121 L225.0779,1207.3631 L225.0919,1207.3321 L225.0889,1207.3121 L225.1319,1207.2531 L225.1189,1207.2281 L225.0849,1207.2201 L225.0549,1207.2301 L225.0439,1207.2651 L225.0129,1207.2831 L224.9909,1207.2861 L224.9349,1207.3251 L224.9129,1207.3281 L224.8969,1207.3051 L224.8099,1207.2641 L224.8139,1207.3071 L224.8209,1207.3151 L224.8269,1207.3461 L224.7979,1207.3461 L224.7099,1207.2721 L224.6629,1207.2701 L224.6549,1207.2791 L224.6079,1207.2891 L224.6049,1207.2071 L224.7189,1206.9921 L224.7419,1206.9771 L224.7519,1206.9631 L224.7559,1206.9401 L224.7509,1206.9091 L224.6999,1206.8321 L224.6959,1206.8091 L224.7039,1206.7701 L224.7339,1206.7301 L224.7699,1206.7251 L224.7239,1206.6941 L224.7169,1206.6731 L224.7209,1206.6411 L224.6469,1206.7951 L224.6209,1206.7641 L224.6169,1206.7451 L224.5969,1206.7301 L224.5909,1206.7041 L224.5639,1206.6861 L224.5399,1206.7171 L224.5639,1206.7621 L224.5669,1206.7891 L224.5229,1206.8491 L224.5279,1206.8841 L224.5089,1206.9201 L224.5129,1206.9481 L224.5049,1206.9861 L224.4839,1207.0141 L224.4269,1207.0171 L224.4309,1206.9771 L224.4709,1206.8991 L224.4739,1206.8671 L224.5089,1206.8021 L224.5089,1206.7451 L224.5009,1206.7251 L224.4969,1206.6461 L224.5169,1206.6161 L224.5129,1206.5821 L224.5679,1206.4681 L224.6059,1206.4481 L224.5969,1206.3391 L224.5259,1206.4231 L224.4989,1206.4261 L224.5029,1206.5101 L224.3579,1206.5271 L224.3299,1206.5171 L224.3389,1206.5061 L224.3659,1206.4861 L224.3759,1206.4561 L224.3719,1206.4281 L224.3549,1206.4051 L224.3529,1206.3761 L224.3839,1206.3391 L224.4089,1206.3581 L224.4399,1206.3581 L224.4339,1206.3251 L224.4039,1206.3071 L224.4209,1206.2861 Z M234.5215,1215.3667 L234.6485,1215.3787 L234.6445,1215.4067 L234.5835,1215.4557 L234.4195,1215.4557 L234.3545,1215.5067 L234.2065,1215.5117 L234.1415,1215.5607 L234.0715,1215.4727 L233.6645,1215.4257 L233.6745,1215.3177 L233.7175,1215.3177 L233.7255,1215.2687 L233.7615,1215.3157 L233.8545,1215.3007 L233.9075,1215.3637 L234.0965,1215.3527 L234.1485,1215.3157 L234.4525,1215.3507 L234.4475,1215.3817 L234.4705,1215.4087 L234.5215,1215.3667 Z M238.9756,1209.8345 L239.0006,1209.8965 L238.9986,1209.9605 L238.9756,1210.0155 L238.9186,1210.0555 L238.9426,1210.1185 L238.9016,1210.2055 L238.9026,1210.2445 L238.9326,1210.2695 L238.9556,1210.4435 L238.9246,1210.4805 L238.9166,1210.5275 L238.6256,1210.5365 L238.5466,1210.6115 L238.4756,1210.6425 L238.4336,1210.6955 L238.4226,1210.8225 L237.9696,1210.9935 L237.8636,1210.9805 L237.8366,1211.0085 L237.6416,1211.0345 L237.5506,1211.1305 L237.4376,1211.1505 L237.3836,1211.2175 L237.3256,1211.2465 L237.3256,1211.2965 L237.4796,1211.5365 L237.5356,1211.5525 L237.5946,1211.5245 L237.7296,1211.5215 L237.7816,1211.4975 L237.8936,1211.5365 L237.8936,1211.5805 L237.8526,1211.6445 L237.8036,1211.6445 L237.7256,1211.6885 L237.6276,1211.6885 L237.5756,1211.6635 L237.4976,1211.6515 L237.4876,1211.6775 L237.3796,1211.7415 L237.2456,1211.7525 L237.2156,1211.8015 L237.0516,1211.9205 L236.9396,1211.9205 L236.9136,1211.8845 L236.8506,1211.8575 L236.8936,1211.8135 L236.9076,1211.6775 L236.8816,1211.6445 L236.6466,1211.5295 L236.6056,1211.5295 L236.8876,1211.3435 L236.9376,1211.3435 L236.9606,1211.3175 L236.9396,1211.2755 L236.3606,1211.1895 L236.3876,1211.1595 L236.3936,1211.1165 L236.4126,1211.0975 L236.5506,1211.0975 L236.6056,1211.0255 L236.5646,1211.0255 L236.5276,1211.0445 L236.4426,1211.0485 L236.4246,1211.0175 L236.4156,1210.8665 L236.3386,1210.8015 L236.3386,1210.7635 L236.3256,1210.8155 L236.3876,1210.8845 L236.3786,1210.9555 L236.3306,1211.0555 L236.2826,1211.0555 L236.2326,1211.0365 L236.0556,1211.0655 L236.0086,1211.1135 L235.9446,1211.2385 L235.9176,1211.2385 L235.8256,1211.3545 L235.7776,1211.3665 L235.6826,1211.4245 L235.6576,1211.4245 L235.6576,1211.5025 L235.6826,1211.5785 L235.6766,1211.6015 L235.6416,1211.6335 L235.6546,1211.6985 L235.6146,1211.7455 L235.4596,1211.7565 L235.4676,1211.7165 L235.4306,1211.7125 L235.4306,1211.7635 L235.4016,1211.7945 L235.4096,1211.8315 L235.4016,1211.8675 L235.3386,1211.9335 L235.2846,1212.3135 L235.2556,1212.3305 L235.1946,1212.3175 L234.9986,1212.6905 L235.0176,1212.7415 L235.0756,1212.8005 L235.1076,1212.8675 L235.0856,1212.8915 L234.9016,1212.8725 L234.8776,1212.8475 L234.8396,1212.8475 L234.6546,1212.9125 L234.6126,1212.9545 L234.6806,1213.0975 L234.6486,1213.1445 L234.6026,1213.1685 L234.5716,1213.2945 L234.5166,1213.3575 L234.5166,1213.3285 L234.4526,1213.3285 L234.4196,1213.3035 L234.3336,1213.3035 L234.2866,1213.3195 L234.2186,1213.2695 L234.2066,1213.2795 L234.1416,1213.2795 L234.1296,1213.2905 L234.0026,1213.2905 L233.9476,1213.3475 L233.7716,1213.3385 L233.7666,1213.4055 L233.8916,1213.5295 L233.8916,1213.5635 L233.8576,1213.5845 L233.7736,1213.4975 L233.7496,1213.5235 L233.7626,1213.5615 L233.8256,1213.6235 L233.8046,1213.6465 L233.7686,1213.6465 L233.6766,1213.5535 L233.6626,1213.5675 L233.6626,1213.5885 L233.6806,1213.6095 L233.6806,1213.6515 L233.6636,1213.6705 L233.6076,1213.6045 L233.6076,1213.5825 L233.5826,1213.5405 L233.5536,1213.5405 L233.5226,1213.5115 L233.4736,1213.3995 L233.4306,1213.4335 L233.4116,1213.4335 L233.3936,1213.4525 L233.3876,1213.5065 L233.3456,1213.5485 L233.5836,1213.9075 L233.5886,1213.9295 L233.5536,1213.9225 L233.5376,1213.9065 L233.5306,1213.8935 L233.4846,1213.8535 L233.4636,1213.8495 L233.4586,1213.8575 L233.4246,1213.8765 L233.4206,1213.8975 L233.4576,1213.9385 L233.4626,1213.9655 L233.4826,1213.9985 L233.4696,1214.0345 L233.4496,1214.0395 L233.3376,1214.0155 L233.3306,1214.0295 L233.3426,1214.0465 L233.4736,1214.0985 L233.4876,1214.1235 L233.5166,1214.1325 L233.5256,1214.1265 L233.5556,1214.1355 L233.5696,1214.1555 L233.5756,1214.1765 L233.7276,1214.2925 L233.7776,1214.3005 L233.7916,1214.3285 L233.7906,1214.3415 L233.7736,1214.3615 L233.8006,1214.4975 L233.7976,1214.5135 L233.7776,1214.5365 L233.7606,1214.5295 L233.7126,1214.4685 L233.6986,1214.4605 L233.6526,1214.4085 L233.5556,1214.3915 L233.4516,1214.4225 L233.4486,1214.4335 L233.4756,1214.4505 L233.5066,1214.5405 L233.5206,1214.5535 L233.5506,1214.5585 L233.5646,1214.5495 L233.5716,1214.5675 L233.6056,1214.6025 L233.6006,1214.6215 L233.5856,1214.6265 L233.5416,1214.6235 L233.5326,1214.6265 L233.5186,1214.6395 L233.4756,1214.6585 L233.4686,1214.6395 L233.4756,1214.6125 L233.4506,1214.5825 L233.4176,1214.5735 L233.3786,1214.5445 L233.3556,1214.5385 L233.3466,1214.5705 L233.4516,1214.8495 L233.4306,1214.9035 L233.4716,1214.9925 L233.4546,1215.0085 L233.4426,1215.0005 L233.4276,1214.9775 L233.4046,1214.9605 L233.4006,1214.9455 L233.3876,1214.9245 L233.3736,1214.9225 L233.3536,1214.8965 L233.3516,1214.8575 L233.2976,1214.8475 L233.2866,1214.8535 L233.2426,1214.9295 L233.2436,1214.9505 L233.2356,1214.9855 L233.2076,1214.9735 L233.1926,1214.9485 L233.2116,1214.8935 L233.1356,1214.7755 L233.1356,1214.7545 L233.1256,1214.7425 L233.1036,1214.7355 L233.0796,1214.7465 L233.0646,1214.7605 L233.0616,1214.7825 L233.0676,1214.8195 L233.0576,1214.8365 L232.9756,1214.8285 L232.9806,1214.8055 L232.9756,1214.7885 L232.9806,1214.7655 L232.9796,1214.7485 L232.9636,1214.7345 L232.9486,1214.7065 L232.9466,1214.6855 L232.9536,1214.6585 L232.9876,1214.6285 L232.9986,1214.5865 L232.9426,1214.4925 L232.8966,1214.4585 L232.8936,1214.4385 L232.8256,1214.3815 L232.8326,1214.3525 L232.8786,1214.3415 L232.8936,1214.3235 L232.8956,1214.3005 L232.9116,1214.2905 L232.9296,1214.2505 L232.9576,1214.2695 L233.0026,1214.2715 L233.0166,1214.2635 L233.0376,1214.2575 L233.0396,1214.2415 L233.0946,1214.2255 L233.1556,1214.2505 L233.1846,1214.2795 L233.2936,1214.3195 L233.3026,1214.3325 L233.4076,1214.3995 L233.4206,1214.3915 L233.4276,1214.3765 L233.4236,1214.3615 L233.4446,1214.3505 L233.4776,1214.3595 L233.5126,1214.3505 L233.5166,1214.3345 L233.3706,1214.2355 L233.1616,1214.1775 L233.1046,1214.1885 L233.0986,1214.1935 L233.0776,1214.1935 L233.0536,1214.2065 L233.0086,1214.1985 L232.9826,1214.2125 L232.9466,1214.2065 L232.9136,1214.1645 L232.9116,1214.1775 L232.8876,1214.1885 L232.8706,1214.1855 L232.8466,1214.1645 L232.8326,1214.1425 L232.8306,1214.1165 L232.7996,1214.0395 L232.7646,1214.0045 L232.7356,1213.9365 L232.8626,1213.9745 L232.8706,1213.9505 L232.8546,1213.9255 L232.7646,1213.8995 L232.7236,1213.9035 L232.6236,1213.8195 L232.6006,1213.7385 L232.5776,1213.7165 L232.5636,1213.6725 L232.3466,1213.4815 L232.3466,1213.3175 L232.3786,1213.2305 L232.3786,1213.1045 L232.3956,1213.0535 L232.3956,1212.9655 L232.1306,1212.6895 L232.1176,1212.6535 L231.6326,1212.3305 L231.4016,1212.2845 L231.3606,1212.3035 L231.3486,1212.3215 L231.3096,1212.3005 L231.2946,1212.2825 L231.2916,1212.2335 L231.1216,1212.1325 L231.1106,1212.1075 L231.0416,1212.0465 L231.0386,1211.9925 L230.9306,1211.8545 L230.9166,1211.7215 L230.9056,1211.7065 L230.8966,1211.6855 L230.8256,1211.6305 L230.8106,1211.6065 L230.7566,1211.5805 L230.7446,1211.5805 L230.7156,1211.5925 L230.7156,1211.6395 L230.6786,1211.7255 L230.6686,1211.7335 L230.6556,1211.7565 L230.6556,1211.7745 L230.6516,1211.7925 L230.6196,1211.8195 L230.5026,1211.6555 L230.5036,1211.5985 L230.4826,1211.5675 L230.4806,1211.5555 L230.4896,1211.5325 L230.4456,1211.4985 L230.4246,1211.4555 L230.4116,1211.4555 L230.4016,1211.4275 L230.3806,1211.4335 L230.3536,1211.4195 L230.2646,1211.4335 L230.2466,1211.4485 L230.2606,1211.4715 L230.2376,1211.4715 L230.1836,1211.4985 L230.1466,1211.5045 L230.0986,1211.4925 L230.0286,1211.5635 L230.0716,1211.5935 L230.0986,1211.6645 L230.1396,1211.7055 L230.1396,1211.7795 L230.0866,1211.8315 L230.0866,1211.9575 L230.2796,1212.1675 L230.3186,1212.1675 L230.4066,1212.2125 L230.5786,1212.4455 L230.6036,1212.6645 L230.6806,1212.7445 L230.8386,1212.8035 L230.9046,1212.8705 L231.2776,1212.8855 L231.3256,1212.9485 L231.2686,1213.0025 L231.2306,1213.0805 L231.5296,1213.2145 L231.5396,1213.2145 L232.0416,1213.5275 L232.0506,1213.5805 L232.0286,1213.6625 L231.8966,1213.6625 L231.8966,1213.5975 L231.8346,1213.5345 L231.6946,1213.5495 L231.6416,1213.4945 L231.5946,1213.4945 L231.4596,1213.6325 L231.4596,1213.7085 L231.6256,1213.8765 L231.6486,1214.0275 L231.5066,1214.0785 L231.4486,1214.1375 L231.4486,1214.2285 L231.2916,1214.4205 L231.1236,1214.3935 L231.1236,1214.3435 L231.1886,1214.2795 L231.2166,1214.2125 L231.2166,1214.1375 L231.2696,1214.1375 L231.2916,1214.0785 L231.3366,1214.0345 L231.2846,1213.9835 L231.2846,1213.8405 L231.1886,1213.8095 L231.1886,1213.6985 L231.1416,1213.6615 L231.0986,1213.6615 L231.0086,1213.6165 L230.8426,1213.3945 L230.7486,1213.3945 L230.5146,1213.1635 L230.3696,1213.1635 L230.3116,1213.1055 L230.2356,1213.1075 L229.6186,1212.5925 L229.6046,1212.5555 L229.5216,1212.4745 L229.5216,1212.3915 L229.4556,1212.3095 L229.4096,1212.1075 L229.1946,1211.9945 L229.0906,1211.9945 L229.0006,1211.9295 L228.8746,1211.9295 L228.7706,1212.0345 L228.7706,1212.0775 L228.6806,1212.1425 L228.6526,1212.2065 L228.4966,1212.2575 L228.4806,1212.2725 L228.4236,1212.2695 L228.4006,1212.2925 L228.3576,1212.2945 L228.3346,1212.3175 L228.3346,1212.3255 L228.2976,1212.3435 L228.2866,1212.3555 L228.2706,1212.3575 L228.2606,1212.3665 L228.2516,1212.3815 L228.1766,1212.4255 L228.1526,1212.4555 L228.1376,1212.5065 L227.9896,1212.5295 L227.9716,1212.5425 L227.9656,1212.5385 L227.8986,1212.5325 L227.8876,1212.5365 L227.8276,1212.5135 L227.8216,1212.4965 L227.7976,1212.4965 L227.7446,1212.4775 L227.7356,1212.4775 L227.7166,1212.4685 L227.7206,1212.4605 L227.7096,1212.4415 L227.7096,1212.4335 L227.7046,1212.4275 L227.6056,1212.4135 L227.6056,1212.3945 L227.6486,1212.3895 L227.6616,1212.3815 L227.6616,1212.3725 L227.6226,1212.3475 L227.6136,1212.3475 L227.6046,1212.3555 L227.5946,1212.3815 L227.5086,1212.3935 L227.4986,1212.4015 L227.4806,1212.4015 L227.4576,1212.3785 L227.4386,1212.3725 L227.4246,1212.3595 L227.3856,1212.3575 L227.3736,1212.3525 L227.3056,1212.3525 L227.3046,1212.3415 L227.2956,1212.3305 L227.2956,1212.3105 L227.2566,1212.3065 L227.0846,1212.4145 L227.0296,1212.4185 L226.9876,1212.4385 L226.9226,1212.5045 L226.9006,1212.5975 L226.9076,1212.6205 L226.9056,1212.7085 L226.9186,1212.7165 L226.9186,1212.8545 L226.9006,1212.8725 L226.9006,1212.9095 L226.8736,1212.9385 L226.8716,1213.0175 L226.8606,1213.0495 L226.8146,1213.0955 L226.7706,1213.0955 L226.6926,1213.1725 L226.6556,1213.1725 L226.6366,1213.1935 L226.5926,1213.1935 L226.4386,1213.2485 L226.4096,1213.2825 L226.3656,1213.3055 L226.3656,1213.3665 L226.3876,1213.3855 L226.2906,1213.4405 L226.0456,1213.7425 L226.0236,1213.9365 L226.0346,1213.9685 L226.1576,1214.1225 L226.0686,1214.1895 L226.0386,1214.1895 L225.9146,1214.3255 L225.8706,1214.4735 L225.8136,1214.5325 L225.8136,1214.5575 L225.7706,1214.5715 L225.6556,1214.5715 L225.5176,1214.6675 L225.4916,1214.7805 L225.4056,1214.8685 L225.3176,1214.8405 L225.2946,1214.8405 L225.2396,1214.8965 L225.1836,1214.8765 L225.0966,1214.8765 L225.0756,1214.8555 L224.9076,1214.8665 L224.8716,1214.8815 L224.7066,1214.8815 L224.6886,1214.8995 L224.6696,1214.8995 L224.6216,1214.9685 L224.4916,1214.9695 L224.4206,1215.0115 L224.4206,1215.0535 L224.3696,1215.1095 L224.3236,1215.1265 L224.2836,1215.1265 L224.2606,1215.1055 L224.2236,1215.1015 L224.1416,1215.0385 L224.1126,1214.9335 L224.0906,1214.9095 L224.0756,1214.8765 L224.0756,1214.7945 L224.0536,1214.7725 L223.9856,1214.7545 L223.8966,1214.6645 L223.7136,1214.6645 L223.7046,1214.6955 L223.6236,1214.7355 L223.6076,1214.7505 L223.4916,1214.7505 L223.4016,1214.7195 L223.2586,1214.7355 L223.2466,1214.7505 L223.2326,1214.6885 L223.2906,1214.6305 L223.2906,1214.5895 L223.2726,1214.5365 L223.2786,1214.3065 L223.3016,1214.2545 L223.2786,1214.2315 L223.3016,1214.2085 L223.2896,1214.2215 L223.1666,1214.2125 L223.1666,1214.1685 L223.2346,1214.0785 L223.2346,1214.0485 L223.1486,1214.1335 L223.1016,1214.1265 L223.1016,1214.1015 L223.0826,1214.0825 L223.1016,1213.9245 L223.1226,1213.9035 L223.1216,1213.8705 L223.1666,1213.8255 L223.1806,1213.7895 L223.2216,1213.7465 L223.2296,1213.6335 L223.2836,1213.5785 L223.2836,1213.4965 L223.3056,1213.4335 L223.3036,1213.3495 L223.3306,1213.3215 L223.3136,1213.2065 L223.2936,1213.1865 L223.2936,1213.1115 L223.2686,1213.0395 L223.2686,1213.0025 L223.2556,1212.9695 L223.2786,1212.9485 L223.2716,1212.6075 L223.2566,1212.5775 L223.1976,1212.5425 L223.1536,1212.4915 L223.1536,1212.4695 L223.2386,1212.3725 L223.4716,1212.3305 L223.5066,1212.3095 L223.5066,1212.2195 L223.5626,1212.1885 L223.7136,1212.1825 L223.8366,1212.2695 L224.9856,1212.2905 L225.0316,1212.3355 L225.1276,1212.3455 L225.1776,1212.3035 L225.2166,1212.3035 L225.2686,1212.3245 L225.3046,1212.3595 L225.5276,1212.3595 L225.6556,1212.1885 L225.6466,1212.0985 L225.6776,1212.0715 L225.7216,1211.4985 L225.7706,1211.4985 L225.8046,1211.5325 L225.8326,1211.6145 L225.8706,1211.6515 L225.8666,1211.5425 L225.7586,1211.4365 L225.7076,1211.2715 L225.7546,1211.1855 L225.7146,1211.1445 L225.5666,1211.1015 L225.4386,1210.9205 L225.4336,1210.8475 L225.4916,1210.7845 L225.4386,1210.7705 L225.3576,1210.7795 L225.3286,1210.6965 L225.1276,1210.6965 L225.0886,1210.6285 L225.0166,1210.6285 L224.9486,1210.5625 L224.7556,1210.5625 L224.7556,1210.5175 L224.6966,1210.4805 L224.6446,1210.4805 L224.6446,1210.4435 L224.6806,1210.4435 L224.6886,1210.3235 L224.5946,1210.3235 L224.5946,1210.2695 L224.6886,1210.1895 L224.9486,1210.1825 L225.0006,1210.1285 L225.0346,1210.1625 L225.0836,1210.1135 L225.1336,1210.1135 L225.2726,1210.2375 L225.3056,1210.2045 L225.3536,1210.1855 L225.3866,1210.2195 L225.6156,1210.2165 L225.6456,1210.1825 L225.6156,1210.1505 L225.6156,1210.0805 L225.5646,1210.0345 L225.5646,1209.9275 L225.5206,1209.8815 L225.5066,1209.7865 L225.7006,1209.7865 L225.7396,1209.8785 L225.7826,1209.9195 L226.1506,1209.9165 L226.1826,1209.8845 L226.2356,1209.8845 L226.2356,1209.8455 L226.1896,1209.8455 L226.1686,1209.8235 L226.1686,1209.7865 L226.2956,1209.6985 L226.3326,1209.6985 L226.4136,1209.6515 L226.5256,1209.6515 L226.6356,1209.5405 L226.5966,1209.5025 L226.5966,1209.4335 L226.6216,1209.4045 L226.6296,1209.2925 L226.7196,1209.2195 L226.8826,1209.2105 L226.9266,1209.1885 L227.1006,1209.1705 L227.1216,1209.1475 L227.1806,1209.1425 L227.2646,1209.0885 L227.2876,1209.0885 L227.3056,1209.0735 L227.3526,1209.0735 L227.3756,1209.0605 L227.3866,1209.0615 L227.4016,1209.0555 L227.4076,1209.0555 L227.4206,1209.0675 L227.4386,1209.0675 L227.4606,1209.0865 L227.4676,1209.0805 L227.4796,1209.0805 L227.4846,1209.0865 L227.5026,1209.0865 L227.5086,1209.0805 L227.5236,1209.0775 L227.5236,1209.0635 L227.5416,1209.0625 L227.5556,1209.0775 L227.5616,1209.0775 L227.5646,1209.0805 L227.5706,1209.0845 L227.5746,1209.0805 L227.5856,1209.0805 L227.5886,1209.0755 L227.5966,1209.0755 L227.5966,1209.0835 L227.6006,1209.0755 L227.6046,1209.0725 L227.5966,1209.0635 L227.5626,1209.0615 L227.5506,1209.0525 L227.5446,1209.0525 L227.5396,1209.0465 L227.5346,1209.0405 L227.5276,1209.0425 L227.5206,1209.0405 L227.5146,1209.0485 L227.5126,1209.0585 L227.5086,1209.0615 L227.4876,1209.0655 L227.4736,1209.0585 L227.4646,1209.0585 L227.4516,1209.0425 L227.4516,1209.0365 L227.4416,1209.0425 L227.4176,1209.0405 L227.3916,1209.0145 L227.3916,1209.0095 L227.3856,1209.0025 L227.3876,1208.9965 L227.3956,1208.9945 L227.4076,1208.9855 L227.4176,1208.9805 L227.4206,1208.9775 L227.4326,1208.9775 L227.4366,1208.9835 L227.4486,1208.9835 L227.4546,1208.9775 L227.5046,1208.9805 L227.5146,1208.9875 L227.5146,1208.9925 L227.5036,1209.0005 L227.4696,1208.9985 L227.4656,1209.0025 L227.4596,1209.0025 L227.4456,1208.9875 L227.4426,1208.9945 L227.4616,1209.0115 L227.4716,1209.0045 L227.5166,1209.0045 L227.5236,1209.0135 L227.5366,1209.0135 L227.5756,1209.0495 L227.6146,1209.0525 L227.6166,1209.0495 L227.6216,1209.0425 L227.6216,1209.0325 L227.6146,1209.0255 L227.6056,1209.0255 L227.6006,1209.0235 L227.5906,1209.0235 L227.5836,1209.0175 L227.5646,1209.0175 L227.5576,1209.0095 L227.5536,1209.0005 L227.5396,1208.9885 L227.5446,1208.9835 L227.5556,1208.9855 L227.5596,1208.9815 L227.5646,1208.9775 L227.5706,1208.9775 L227.5756,1208.9835 L227.5906,1208.9835 L227.5926,1208.9875 L227.5986,1208.9915 L227.5986,1208.9805 L227.5926,1208.9805 L227.5906,1208.9775 L227.5836,1208.9775 L227.5756,1208.9695 L227.5756,1208.9655 L227.5866,1208.9655 L227.5916,1208.9715 L227.6276,1208.9735 L227.6316,1208.9695 L227.6436,1208.9645 L227.6516,1208.9555 L227.6466,1208.9505 L227.6376,1208.9585 L227.6076,1208.9585 L227.5926,1208.9485 L227.5886,1208.9485 L227.5796,1208.9385 L227.5646,1208.9385 L227.5606,1208.9335 L227.5556,1208.9275 L227.5516,1208.9225 L227.5516,1208.9125 L227.5436,1208.9015 L227.5306,1208.9035 L227.5226,1208.9015 L227.5166,1208.9085 L227.5086,1208.9085 L227.5086,1208.8965 L227.5186,1208.8895 L227.5306,1208.8895 L227.5346,1208.8875 L227.5456,1208.8875 L227.5506,1208.8845 L227.5576,1208.8895 L227.5626,1208.8895 L227.5696,1208.8975 L227.5796,1208.8975 L227.5966,1208.9145 L227.6026,1208.9165 L227.6026,1208.9205 L227.6256,1208.9405 L227.6726,1208.9485 L227.6856,1208.9585 L227.6966,1208.9585 L227.7136,1208.9485 L227.7276,1208.9455 L227.7326,1208.9485 L227.7446,1208.9485 L227.7486,1208.9415 L227.7586,1208.9415 L227.7626,1208.9455 L227.7806,1208.9455 L227.7856,1208.9415 L227.7856,1208.9335 L227.7736,1208.9295 L227.7736,1208.9245 L227.7666,1208.9245 L227.7586,1208.9295 L227.7566,1208.9275 L227.7506,1208.9335 L227.7446,1208.9335 L227.7416,1208.9335 L227.7356,1208.9335 L227.7306,1208.9275 L227.7076,1208.9455 L227.6836,1208.9455 L227.6436,1208.9275 L227.6346,1208.9205 L227.6216,1208.9205 L227.6006,1208.8975 L227.5926,1208.8975 L227.5716,1208.8845 L227.5676,1208.8845 L227.5596,1208.8735 L227.5576,1208.8355 L227.5626,1208.8325 L227.5716,1208.8325 L227.5886,1208.8495 L227.5966,1208.8495 L227.6076,1208.8615 L227.6276,1208.8615 L227.6056,1208.8455 L227.6006,1208.8455 L227.5856,1208.8285 L227.5956,1208.8195 L227.5956,1208.8125 L227.6626,1208.7445 L227.7166,1208.6415 L227.7236,1208.6375 L227.7416,1208.6395 L227.7216,1208.6305 L227.7696,1208.4405 L227.7816,1208.4365 L227.7976,1208.4395 L227.7896,1208.4545 L227.7996,1208.4655 L227.8046,1208.4655 L227.8136,1208.4745 L227.8256,1208.4785 L227.8216,1208.4685 L227.8216,1208.4655 L227.8456,1208.4455 L227.8646,1208.4545 L227.8606,1208.4625 L227.8716,1208.4855 L227.8756,1208.5325 L227.8786,1208.5365 L227.8876,1208.5295 L227.9096,1208.5255 L227.9246,1208.5395 L227.9246,1208.5445 L227.9176,1208.5555 L227.9116,1208.5555 L227.9066,1208.5605 L227.9066,1208.5675 L227.9016,1208.5715 L227.8956,1208.5715 L227.8846,1208.5775 L227.8506,1208.5715 L227.8446,1208.5805 L227.8456,1208.5905 L227.8546,1208.6015 L227.8546,1208.6165 L227.8576,1208.6215 L227.8576,1208.6285 L227.8546,1208.6325 L227.8526,1208.6375 L227.8526,1208.6425 L227.8546,1208.6495 L227.8646,1208.6515 L227.8456,1208.6745 L227.8226,1208.6775 L227.8306,1208.6855 L227.8466,1208.6885 L227.8466,1208.7005 L227.8616,1208.7005 L227.8796,1208.7105 L227.9076,1208.7105 L227.9196,1208.7235 L227.9286,1208.7235 L227.9356,1208.7305 L227.9396,1208.7335 L227.9426,1208.7345 L227.9486,1208.7345 L227.9576,1208.7305 L227.9666,1208.7305 L227.9756,1208.7265 L227.9876,1208.7145 L227.9876,1208.7085 L227.9896,1208.7045 L228.0086,1208.6905 L228.0236,1208.6885 L228.0336,1208.6825 L228.0416,1208.6725 L228.0576,1208.6635 L228.0736,1208.6375 L228.0716,1208.6115 L228.0666,1208.6025 L228.0706,1208.5905 L228.1206,1208.5775 L228.1176,1208.5725 L228.1056,1208.5725 L228.1036,1208.5775 L228.0966,1208.5815 L228.0886,1208.5815 L228.0636,1208.5885 L228.0176,1208.5865 L228.0036,1208.5695 L228.0016,1208.5625 L228.0046,1208.5235 L228.0226,1208.5005 L228.0306,1208.4965 L228.0376,1208.4965 L228.0336,1208.4935 L228.0226,1208.4935 L228.0226,1208.4895 L228.0196,1208.4875 L228.0026,1208.4905 L227.9986,1208.4945 L227.9876,1208.4945 L227.9716,1208.4875 L227.9676,1208.4875 L227.9636,1208.4875 L227.9546,1208.4875 L227.9386,1208.4735 L227.9466,1208.4655 L227.9556,1208.4655 L227.9546,1208.4565 L227.9576,1208.4435 L227.9546,1208.4245 L227.9556,1208.4185 L227.9546,1208.4165 L227.9486,1208.4015 L227.9486,1208.3995 L227.9546,1208.3995 L227.9546,1208.3945 L227.9506,1208.3875 L227.9556,1208.3785 L227.9656,1208.3455 L228.0206,1208.3035 L228.1236,1208.2695 L228.1766,1208.2695 L228.1706,1208.2725 L228.1706,1208.2805 L228.1726,1208.2845 L228.1846,1208.2845 L228.1846,1208.2865 L228.1836,1208.2895 L228.1886,1208.2845 L228.1846,1208.2805 L228.1776,1208.2805 L228.1746,1208.2795 L228.1766,1208.2755 L228.1776,1208.2735 L228.1806,1208.2735 L228.1836,1208.2725 L228.1806,1208.2725 L228.1806,1208.2655 L228.1986,1208.2655 L228.2026,1208.2705 L228.2096,1208.2775 L228.2136,1208.2705 L228.2326,1208.2615 L228.2906,1208.2545 L228.3036,1208.2485 L228.3296,1208.2445 L228.3366,1208.2485 L228.3466,1208.2485 L228.3486,1208.2525 L228.3626,1208.2605 L228.3576,1208.2655 L228.3656,1208.2905 L228.3656,1208.2945 L228.3736,1208.3005 L228.3736,1208.3015 L228.4096,1208.3155 L228.4116,1208.3195 L228.4146,1208.3225 L228.4186,1208.3345 L228.4296,1208.3355 L228.4326,1208.3405 L228.4446,1208.3385 L228.4646,1208.3535 L228.4996,1208.3385 L228.4786,1208.3195 L228.4546,1208.3195 L228.4386,1208.3035 L228.4276,1208.2615 L228.4516,1208.2395 L228.4516,1208.2125 L228.4826,1208.1855 L228.6866,1208.1665 L228.6996,1208.1775 L228.7106,1208.2165 L228.7076,1208.2605 L228.7436,1208.2905 L228.7706,1208.2885 L228.7526,1208.2725 L228.7526,1208.2065 L228.7766,1208.2065 L228.8016,1208.2305 L228.8336,1208.2905 L228.8236,1208.1335 L228.8546,1208.1115 L228.8546,1208.0955 L228.8916,1208.1015 L228.9056,1208.1115 L228.9756,1208.1115 L228.9446,1208.0885 L228.9286,1208.0625 L228.9286,1208.0405 L228.9516,1208.0405 L228.9636,1207.9985 L228.9326,1207.9985 L228.9096,1207.9805 L228.9096,1207.9225 L228.8666,1207.9225 L228.8896,1207.8725 L228.9246,1207.8725 L228.9536,1207.8435 L228.9536,1207.8065 L228.9386,1207.7905 L228.9186,1207.7505 L228.8796,1207.7165 L228.8796,1207.6375 L228.8686,1207.6265 L228.8796,1207.5245 L228.8706,1207.5005 L228.8636,1207.4205 L228.8536,1207.4015 L228.8406,1207.4015 L228.8296,1207.3905 L228.8236,1207.3905 L228.7686,1207.3525 L228.7686,1207.3405 L228.7616,1207.3325 L228.7666,1207.3255 L228.7456,1207.3285 L228.7326,1207.3415 L228.7586,1207.3645 L228.7686,1207.3815 L228.7636,1207.3875 L228.7156,1207.3475 L228.7026,1207.3475 L228.6926,1207.3385 L228.7046,1207.3255 L228.7026,1207.2965 L228.7156,1207.2825 L228.7196,1207.2695 L228.7156,1207.1245 L228.7216,1207.1765 L228.7296,1207.1825 L228.7276,1207.1965 L228.7346,1207.1965 L228.7486,1207.1885 L228.7806,1207.1565 L228.7836,1207.1465 L228.7826,1207.1335 L228.7706,1207.1225 L228.7646,1207.1135 L228.7626,1207.0925 L228.7526,1207.0785 L228.7056,1207.0525 L228.7136,1207.1055 L228.7106,1207.1095 L228.7026,1207.1045 L228.7046,1206.9295 L228.7176,1206.9365 L228.7236,1206.9435 L228.7416,1206.9415 L228.7416,1206.9505 L228.7436,1206.9545 L228.7566,1206.9415 L228.7546,1206.9385 L228.7136,1206.9035 L228.7186,1206.8975 L228.7306,1206.8965 L228.7116,1206.8815 L228.7066,1206.8875 L228.7066,1206.8995 L228.7006,1206.8965 L228.7026,1206.8055 L228.7096,1206.7905 L228.7116,1206.7695 L228.7276,1206.7455 L228.7286,1206.7695 L228.7256,1206.7725 L228.7276,1206.7825 L228.7396,1206.7845 L228.7356,1206.7885 L228.7516,1206.8015 L228.7536,1206.8125 L228.7586,1206.8125 L228.7626,1206.8065 L228.7876,1206.8065 L228.8186,1206.8195 L228.8276,1206.8195 L228.8306,1206.8125 L228.8386,1206.8125 L228.8366,1206.8195 L228.8386,1206.8255 L228.8466,1206.8325 L228.8466,1206.8455 L228.8546,1206.8525 L228.8646,1206.8525 L228.8516,1206.8475 L228.8816,1206.8535 L228.8916,1206.8475 L228.8876,1206.8215 L228.8806,1206.8155 L228.8756,1206.8065 L228.8716,1206.7845 L228.8756,1206.7845 L228.8916,1206.7795 L228.9056,1206.7505 L228.9386,1206.7415 L228.9346,1206.7375 L228.9186,1206.7335 L228.9246,1206.7215 L228.9536,1206.6865 L228.9696,1206.6935 L228.9876,1206.6865 L228.9956,1206.6955 L228.9966,1206.7025 L229.0016,1206.7065 L229.0106,1206.7395 L229.0036,1206.7465 L229.0036,1206.7575 L228.9986,1206.7695 L228.9876,1206.7775 L228.9876,1206.7845 L228.9786,1206.7985 L228.9876,1206.8035 L228.9876,1206.8155 L228.9956,1206.8155 L228.9976,1206.8015 L229.0126,1206.7865 L229.0356,1206.7845 L229.0416,1206.7775 L229.0446,1206.7755 L229.0516,1206.7845 L229.0466,1206.7965 L229.0466,1206.8155 L229.0506,1206.8195 L229.0556,1206.8235 L229.0596,1206.8235 L229.0716,1206.8195 L229.0806,1206.8195 L229.0806,1206.8095 L229.0646,1206.8095 L229.0536,1206.8055 L229.0536,1206.7945 L229.0616,1206.7775 L229.0596,1206.7465 L229.0556,1206.7425 L229.0396,1206.7425 L229.0286,1206.7485 L229.0196,1206.7605 L229.0196,1206.7505 L229.0226,1206.7425 L229.0396,1206.7235 L229.0416,1206.7125 L229.0396,1206.7065 L229.0296,1206.6985 L229.0266,1206.6985 L229.0226,1206.6885 L229.0226,1206.6725 L229.0316,1206.6665 L229.0316,1206.6565 L229.0166,1206.6425 L229.0216,1206.6225 L229.0366,1206.6115 L229.0376,1206.6055 L229.0516,1206.5865 L229.1026,1206.5785 L229.1336,1206.5845 L229.1336,1206.5935 L229.1256,1206.6015 L229.1256,1206.6055 L229.1376,1206.6165 L229.1356,1206.6055 L229.1446,1206.5985 L229.1456,1206.5925 L229.1506,1206.5865 L229.1596,1206.5845 L229.1626,1206.5695 L229.1706,1206.5605 L229.2146,1206.5605 L229.2216,1206.5555 L229.2306,1206.5525 L229.2386,1206.5525 L229.2176,1206.5365 L229.2076,1206.5345 L229.2016,1206.5345 L229.1966,1206.5385 L229.1686,1206.5495 L229.1396,1206.5495 L229.1366,1206.5555 L229.1166,1206.5625 L229.1166,1206.5535 L229.1026,1206.5555 L229.0906,1206.5625 L229.0856,1206.5625 L229.0496,1206.5775 L229.0416,1206.5885 L229.0326,1206.5865 L229.0136,1206.5725 L229.0116,1206.5635 L229.0026,1206.5605 L228.9956,1206.5485 L228.9796,1206.5385 L228.9736,1206.5275 L228.9756,1206.5425 L228.9896,1206.5555 L228.9956,1206.5635 L228.9786,1206.5755 L228.9476,1206.5785 L228.9396,1206.5845 L228.9326,1206.5845 L228.9286,1206.5785 L228.9206,1206.5745 L228.9206,1206.5845 L228.9136,1206.5905 L228.9056,1206.5845 L228.9056,1206.5925 L228.8916,1206.6115 L228.8656,1206.6125 L228.8466,1206.6375 L228.8536,1206.6425 L228.8486,1206.6535 L228.8486,1206.6585 L228.8426,1206.6645 L228.8326,1206.6705 L228.8256,1206.6765 L228.8236,1206.6855 L228.8176,1206.6865 L228.8136,1206.6915 L228.8136,1206.7045 L228.8096,1206.7085 L228.8136,1206.7165 L228.8146,1206.7385 L228.8256,1206.7475 L228.8146,1206.7565 L228.8176,1206.7605 L228.8296,1206.7525 L228.8326,1206.7525 L228.8326,1206.7615 L228.8366,1206.7725 L228.8406,1206.7775 L228.8396,1206.7925 L228.8326,1206.7965 L228.8216,1206.8015 L228.8146,1206.7845 L228.8046,1206.7755 L228.8016,1206.7695 L228.7606,1206.7425 L228.7606,1206.7165 L228.7426,1206.7025 L228.7466,1206.7335 L228.7426,1206.7335 L228.7326,1206.7235 L228.7356,1206.6885 L228.8216,1206.5575 L228.8236,1206.5495 L228.8296,1206.5395 L228.8486,1206.5245 L228.8646,1206.5295 L228.9226,1206.5225 L228.9296,1206.5115 L228.9666,1206.4985 L229.0186,1206.5115 L229.0806,1206.4945 L229.1226,1206.4625 L229.2416,1206.2705 L229.3216,1206.2615 L229.3276,1206.2545 L229.3466,1206.2465 L229.3986,1206.1935 L229.4306,1206.1825 L229.4336,1206.1895 L229.4136,1206.2105 L229.4036,1206.2165 L229.3846,1206.2345 L229.3776,1206.2635 L229.3816,1206.3015 L229.4186,1206.3345 L229.4126,1206.3475 L229.4166,1206.4585 L229.3966,1206.4735 L229.3636,1206.5735 L229.3506,1206.5785 L229.3426,1206.6825 L229.3506,1206.6895 L229.3536,1206.7025 L229.3636,1206.7085 L229.3676,1206.7235 L229.3556,1206.7355 L229.3516,1206.7315 L229.3276,1206.7335 L229.3366,1206.7375 L229.3426,1206.7355 L229.3686,1206.7545 L229.3706,1206.7635 L229.3366,1206.8005 L229.3326,1206.8195 L229.3376,1206.8345 L229.3426,1206.8125 L229.3406,1206.8065 L229.3466,1206.8015 L229.3576,1206.7965 L229.3676,1206.7885 L229.3716,1206.7905 L229.3716,1206.8005 L229.3786,1206.8125 L229.3856,1206.8125 L229.4206,1206.8285 L229.4486,1206.8285 L229.4556,1206.8195 L229.5106,1206.8125 L229.5166,1206.8175 L229.5256,1206.8225 L229.5316,1206.8345 L229.5626,1206.8575 L229.5396,1206.8845 L229.5416,1206.9145 L229.5326,1206.9225 L229.4996,1206.9715 L229.4966,1206.9905 L229.4986,1207.0045 L229.4956,1207.0115 L229.4916,1207.0135 L229.4826,1207.0135 L229.4676,1206.9985 L229.4736,1206.9945 L229.4736,1206.9875 L229.4776,1206.9835 L229.4736,1206.9785 L229.4516,1206.9805 L229.4426,1206.9895 L229.4376,1207.0025 L229.4336,1207.0065 L229.4076,1207.0045 L229.4026,1207.0095 L229.3986,1207.0155 L229.3936,1207.0155 L229.3836,1207.0025 L229.3856,1206.9855 L229.3986,1206.9785 L229.4006,1206.9855 L229.4096,1206.9835 L229.4096,1206.9695 L229.4166,1206.9565 L229.4166,1206.9485 L229.3956,1206.9415 L229.3846,1206.9435 L229.3776,1206.9645 L229.3526,1206.9975 L229.3466,1207.0225 L229.3616,1207.0695 L229.3466,1207.0815 L229.3606,1207.0805 L229.3606,1207.0845 L229.3526,1207.1015 L229.3576,1207.1165 L229.3576,1207.1325 L229.3516,1207.1475 L229.3336,1207.1625 L229.3446,1207.1725 L229.3386,1207.1775 L229.3386,1207.1855 L229.3276,1207.1795 L229.3226,1207.1735 L229.3216,1207.1665 L229.3126,1207.1625 L229.2796,1207.1625 L229.2726,1207.1685 L229.2736,1207.1735 L229.2906,1207.1735 L229.2876,1207.1775 L229.2456,1207.1745 L229.2456,1207.1855 L229.2526,1207.1855 L229.2686,1207.1895 L229.2916,1207.1915 L229.2936,1207.1965 L229.2936,1207.2045 L229.2866,1207.2215 L229.2966,1207.2265 L229.2956,1207.2305 L229.2806,1207.2415 L229.2826,1207.2485 L229.2256,1207.2695 L229.1726,1207.2485 L229.1466,1207.2485 L229.1506,1207.2575 L229.1666,1207.2575 L229.1946,1207.2775 L229.2016,1207.2905 L229.2216,1207.2895 L229.2366,1207.2925 L229.2396,1207.2965 L229.2396,1207.3015 L229.2166,1207.3155 L229.2106,1207.3235 L229.2096,1207.3345 L229.2286,1207.3405 L229.2326,1207.3345 L229.2436,1207.3505 L229.2636,1207.3525 L229.2676,1207.3435 L229.3576,1207.3005 L229.3686,1207.3015 L229.3686,1207.3075 L229.3746,1207.3075 L229.3746,1207.2965 L229.3756,1207.2925 L229.3956,1207.3055 L229.4076,1207.3055 L229.4136,1207.3095 L229.4166,1207.3215 L229.4206,1207.3285 L229.4306,1207.3285 L229.4386,1207.3345 L229.4496,1207.3345 L229.4366,1207.3415 L229.4376,1207.3495 L229.4366,1207.3535 L229.4396,1207.3535 L229.4326,1207.3615 L229.4186,1207.3665 L229.4186,1207.3745 L229.4276,1207.3845 L229.4386,1207.3845 L229.4446,1207.3725 L229.4516,1207.3705 L229.4576,1207.3665 L229.4736,1207.3635 L229.4716,1207.3555 L229.4756,1207.3525 L229.4626,1207.3415 L229.4676,1207.3365 L229.4756,1207.3385 L229.4756,1207.3215 L229.4696,1207.3175 L229.4756,1207.3125 L229.4756,1207.3005 L229.4756,1207.2965 L229.4956,1207.3285 L229.4956,1207.3415 L229.5136,1207.3595 L229.5116,1207.3635 L229.5016,1207.3665 L229.4976,1207.3705 L229.5026,1207.3895 L229.5326,1207.4205 L229.5456,1207.4575 L229.5356,1207.4575 L229.5316,1207.4605 L229.5376,1207.4745 L229.5376,1207.5325 L229.5266,1207.5585 L229.5266,1207.5695 L229.5186,1207.5815 L229.4776,1207.5825 L229.4616,1207.5975 L229.4456,1207.5975 L229.4336,1207.5925 L229.4206,1207.5925 L229.4146,1207.5865 L229.3986,1207.5865 L229.3876,1207.5755 L229.3796,1207.5755 L229.3736,1207.5745 L229.3616,1207.5625 L229.3556,1207.5675 L229.3546,1207.5755 L229.3556,1207.5815 L229.3466,1207.5815 L229.3456,1207.5745 L229.3176,1207.5715 L229.3136,1207.5695 L229.3226,1207.5625 L229.3326,1207.5605 L229.3376,1207.5555 L229.3356,1207.5405 L229.3276,1207.5325 L229.3276,1207.5235 L229.3236,1207.5205 L229.3136,1207.5235 L229.3036,1207.5215 L229.2916,1207.5155 L229.2876,1207.5205 L229.2916,1207.5345 L229.2976,1207.5385 L229.2976,1207.5535 L229.2896,1207.5555 L229.2896,1207.5405 L229.2856,1207.5305 L229.2856,1207.5065 L229.2676,1207.5025 L229.2586,1207.4945 L229.2616,1207.4905 L229.2566,1207.4745 L229.2566,1207.4695 L229.2526,1207.4605 L229.2526,1207.4435 L229.2366,1207.4385 L229.2216,1207.4245 L229.2306,1207.4185 L229.2306,1207.4125 L229.2256,1207.4075 L229.2216,1207.4065 L229.2256,1207.4015 L229.2256,1207.3995 L229.2146,1207.3995 L229.1996,1207.3855 L229.1996,1207.3845 L229.2076,1207.3845 L229.2176,1207.3905 L229.2256,1207.3905 L229.2076,1207.3725 L229.2016,1207.3705 L229.1826,1207.3505 L229.1746,1207.3575 L229.1576,1207.3495 L229.1486,1207.3525 L229.1486,1207.3575 L229.1336,1207.3615 L229.1336,1207.3705 L229.1666,1207.3705 L229.1706,1207.3675 L229.1796,1207.3745 L229.1796,1207.3875 L229.1726,1207.3935 L229.1636,1207.3935 L229.1726,1207.4575 L229.1746,1207.4605 L229.1666,1207.4715 L229.1726,1207.4775 L229.1826,1207.4775 L229.1926,1207.4855 L229.1926,1207.4915 L229.1966,1207.5005 L229.1926,1207.5025 L229.1886,1207.5135 L229.1726,1207.5295 L229.1556,1207.5235 L229.1306,1207.5465 L229.1416,1207.5465 L229.1356,1207.5555 L229.1256,1207.5555 L229.1256,1207.5575 L229.1336,1207.5575 L229.1416,1207.5675 L229.1416,1207.5785 L229.1446,1207.5885 L229.1416,1207.5935 L229.1376,1207.5955 L229.1256,1207.5975 L229.1146,1207.6095 L229.1256,1207.6095 L229.1376,1207.6045 L229.1506,1207.6045 L229.1556,1207.5975 L229.1666,1207.6045 L229.1636,1207.6075 L229.1776,1207.6205 L229.1836,1207.6205 L229.1896,1207.6265 L229.2036,1207.6235 L229.2046,1207.6285 L229.2106,1207.6335 L229.2106,1207.6495 L229.2176,1207.6495 L229.2176,1207.6375 L229.2276,1207.6415 L229.2416,1207.6565 L229.2506,1207.6495 L229.2366,1207.6355 L229.2276,1207.6335 L229.2236,1207.6235 L229.1806,1207.6045 L229.1926,1207.5975 L229.1836,1207.5975 L229.1786,1207.5925 L229.1876,1207.5825 L229.2276,1207.5845 L229.3006,1207.6415 L229.3106,1207.6775 L229.3096,1207.6825 L229.2876,1207.6885 L229.2846,1207.6885 L229.2806,1207.6915 L229.2706,1207.6935 L229.2666,1207.6885 L229.2616,1207.6885 L229.2526,1207.6825 L229.2606,1207.6765 L229.2686,1207.6765 L229.2636,1207.6725 L229.2606,1207.6725 L229.2546,1207.6775 L229.2326,1207.6775 L229.2306,1207.6705 L229.2256,1207.6635 L229.2216,1207.6725 L229.2156,1207.6825 L229.2106,1207.6775 L229.2076,1207.6795 L229.2076,1207.6865 L229.2146,1207.6915 L229.2176,1207.7025 L229.2106,1207.7105 L229.2056,1207.7055 L229.2036,1207.6985 L229.1796,1207.6935 L229.1806,1207.6795 L229.1726,1207.6735 L229.1846,1207.6665 L229.1846,1207.6595 L229.1626,1207.6625 L229.1576,1207.6665 L229.1556,1207.6885 L229.1596,1207.6935 L229.1616,1207.7105 L229.1706,1207.7305 L229.1806,1207.7405 L229.2006,1207.8475 L229.2676,1207.8475 L229.2846,1207.8765 L229.2956,1207.8685 L229.3256,1207.8685 L229.3876,1207.8935 L229.4126,1207.9165 L229.4626,1207.9135 L229.5006,1207.8815 L229.5166,1207.9185 L229.5166,1207.9485 L229.5066,1207.9775 L229.4426,1208.0345 L229.4756,1208.0715 L229.5066,1208.0445 L229.5696,1208.0425 L229.5906,1208.0625 L229.6166,1208.0625 L229.6166,1208.0255 L229.6526,1208.0255 L229.6526,1207.9985 L229.6726,1207.9805 L229.7176,1207.9805 L229.7586,1207.9605 L229.7906,1207.9605 L229.8486,1207.9205 L229.8606,1207.9015 L229.8546,1207.8965 L229.9026,1207.8535 L229.9466,1207.8815 L229.9696,1207.8595 L230.0106,1207.8505 L230.0416,1207.8615 L230.1206,1207.7695 L230.2526,1207.7465 L230.3466,1207.8415 L230.4246,1207.8415 L230.4656,1207.8815 L230.5826,1207.8815 L230.6296,1207.9275 L230.6556,1207.9815 L230.6826,1208.0095 L230.7106,1208.0095 L230.7806,1207.9395 L230.8226,1207.9395 L230.8446,1207.9185 L230.9546,1207.8725 L230.9756,1207.8535 L231.2296,1207.8005 L231.2496,1207.7775 L231.2896,1207.7775 L231.3136,1207.7545 L231.7946,1207.5535 L232.0236,1207.5555 L232.0516,1207.5895 L232.0516,1207.6225 L232.0776,1207.6795 L232.1226,1207.7235 L232.1716,1207.7425 L232.4116,1207.7545 L232.5166,1207.6505 L232.5596,1207.6505 L232.6106,1207.6325 L232.5776,1207.5305 L232.5846,1207.5025 L232.7906,1207.4975 L232.8506,1207.4695 L232.8606,1207.4415 L232.8576,1207.3685 L232.9006,1207.3295 L232.9506,1207.3225 L232.9466,1207.2755 L232.9306,1207.2605 L232.9416,1207.2265 L232.9246,1207.1595 L232.9066,1207.1415 L232.8546,1206.7215 L232.8786,1206.6475 L232.9756,1206.5575 L232.9996,1206.5045 L232.9996,1206.4295 L233.1036,1206.2845 L233.1746,1206.2725 L233.2046,1206.2425 L233.2486,1206.2375 L233.2906,1206.2165 L233.3296,1206.2165 L233.3426,1206.2045 L233.6616,1206.5395 L233.7726,1206.5525 L233.9206,1206.4685 L233.9756,1206.3965 L233.9796,1206.3155 L233.9496,1206.2635 L233.9546,1206.1515 L233.9876,1206.1515 L233.9606,1206.1445 L233.9606,1206.0925 L234.0136,1206.0155 L234.0136,1205.9835 L233.9636,1205.9245 L233.8686,1205.9745 L233.8446,1205.9525 L233.7916,1205.9525 L233.7486,1205.9365 L233.7006,1205.8595 L233.6926,1205.6765 L233.7146,1205.6565 L233.6826,1205.6235 L233.6826,1205.5675 L233.7016,1205.5485 L233.9036,1205.4735 L233.9236,1205.4335 L233.9716,1205.4165 L234.0796,1205.4165 L234.1056,1205.3895 L234.2976,1205.3895 L234.3356,1205.3365 L234.3666,1205.3575 L234.4096,1205.3575 L234.4476,1205.3415 L234.6226,1205.3595 L234.6466,1205.3715 L234.7436,1205.3765 L234.8326,1205.4165 L235.0416,1205.4225 L235.1106,1205.3905 L235.1256,1205.3765 L235.1716,1205.4225 L235.1806,1205.4735 L235.1256,1205.4735 L235.0676,1205.5225 L235.0796,1205.5675 L235.0536,1205.5935 L235.0376,1205.6285 L235.0026,1205.6565 L234.9826,1205.6565 L234.9556,1205.6935 L234.9556,1205.7355 L234.9826,1205.7885 L234.9656,1206.0135 L235.0356,1206.0825 L235.0286,1206.1445 L234.9506,1206.2195 L234.9486,1206.3055 L234.8326,1206.3005 L234.9486,1206.3055 L235.0556,1206.4125 L235.0476,1206.5735 L235.0146,1206.6095 L235.0146,1206.6355 L235.0576,1206.6325 L235.0706,1206.6445 L235.0776,1206.6855 L235.1346,1206.7445 L235.1466,1206.7825 L235.1696,1206.8035 L235.1806,1206.8385 L235.1786,1206.9545 L235.2376,1206.9965 L235.3236,1206.9965 L235.3646,1207.0365 L235.5266,1207.0135 L235.5396,1207.0365 L235.5546,1207.1285 L235.5676,1207.1415 L235.6616,1207.1285 L235.6946,1207.0975 L235.8876,1207.0935 L235.9756,1207.1505 L236.0376,1207.2305 L236.0386,1207.3475 L236.0926,1207.4035 L236.0356,1207.4885 L236.0506,1207.5715 L236.1316,1207.6445 L236.1416,1207.6985 L236.2386,1207.8365 L236.3216,1207.8765 L236.3636,1207.8765 L236.3666,1207.9245 L236.3426,1207.9775 L236.3546,1208.0085 L236.4706,1208.0135 L236.5256,1208.0405 L236.6076,1208.1825 L236.6076,1208.2165 L236.5486,1208.2745 L236.4916,1208.2965 L236.2296,1208.2885 L236.2016,1208.3495 L236.2586,1208.4415 L236.2826,1208.5955 L236.3196,1208.6725 L236.3196,1208.7165 L236.3056,1208.7525 L236.3516,1208.7525 L236.3986,1208.7705 L236.4956,1208.7465 L236.5596,1208.6555 L236.6226,1208.6745 L236.6346,1208.6885 L236.6926,1208.6885 L236.7606,1208.6395 L237.0046,1208.6555 L237.0596,1208.7055 L237.0796,1208.7565 L237.1596,1208.8525 L237.1506,1208.8895 L237.1026,1208.9385 L237.1226,1209.0095 L237.1466,1209.0345 L237.1446,1209.0655 L237.1576,1209.1055 L237.3776,1209.1285 L237.4506,1209.1825 L237.4976,1209.2965 L237.5066,1209.4035 L237.5266,1209.4335 L237.6056,1209.4715 L237.6766,1209.4525 L237.7006,1209.4565 L237.7526,1209.5005 L237.8186,1209.5235 L238.0886,1209.4835 L238.1216,1209.4555 L238.3386,1209.6635 L238.4756,1209.6365 L238.6516,1209.7255 L238.7076,1209.7005 L238.9016,1209.8225 L238.9756,1209.8345 Z M227.8428,1204.4092 L227.7628,1204.3282 L227.7628,1204.2812 L228.0288,1204.2512 L227.9988,1204.2252 L227.8788,1204.1662 L227.9388,1204.1062 L228.1278,1204.1132 L228.0548,1204.0402 L228.0918,1204.0042 L228.1658,1204.0122 L228.1958,1204.0402 L228.1958,1203.9562 L228.2388,1203.9562 L228.2098,1203.9242 L228.4228,1204.0242 L228.4228,1204.0732 L228.4548,1204.0422 L228.3428,1203.9142 L228.2898,1203.9142 L228.2118,1203.8592 L228.3508,1203.8382 L228.4298,1203.8672 L228.5298,1203.8672 L228.5918,1203.8052 L228.5028,1203.7652 L228.4348,1203.7652 L228.3878,1203.7182 L228.3958,1203.6762 L228.5798,1203.6762 L228.6138,1203.6482 L228.6578,1203.6482 L228.6578,1203.6942 L228.7028,1203.7372 L228.7518,1203.7372 L228.8308,1203.8182 L228.8308,1203.7652 L228.7258,1203.6592 L228.7648,1203.6592 L228.7998,1203.6972 L228.8468,1203.6972 L228.9368,1203.7262 L228.8368,1203.6242 L228.8578,1203.5872 L228.8968,1203.5872 L228.8968,1203.5322 L228.9428,1203.4572 L229.0318,1203.4572 L229.0478,1203.4422 L229.0478,1203.5132 L229.2008,1203.3612 L229.2438,1203.3792 L229.2998,1203.4342 L229.2998,1203.5072 L229.3668,1203.4972 L229.3918,1203.4722 L229.4018,1203.4302 L229.6158,1203.4422 L229.6338,1203.4072 L229.6078,1203.3842 L229.6008,1203.3522 L229.6548,1203.2982 L229.7388,1203.2982 L229.7388,1203.2722 L229.7008,1203.2342 L229.7388,1203.1852 L229.8038,1203.1642 L229.8128,1203.1222 L229.7448,1203.1222 L229.6458,1203.2002 L229.5778,1203.2002 L229.6368,1203.2602 L229.5908,1203.3042 L229.5608,1203.3042 L229.5008,1203.3232 L229.4718,1203.3232 L229.4328,1203.3612 L229.3838,1203.3612 L229.3608,1203.3862 L229.3218,1203.3792 L229.2938,1203.3102 L229.3198,1203.2882 L229.2868,1203.2562 L229.3678,1203.1752 L229.4108,1203.1752 L229.4108,1203.1342 L229.3938,1203.0882 L229.4388,1203.0422 L229.4828,1203.0422 L229.5258,1203.0002 L229.5438,1202.9522 L229.5948,1202.9482 L229.6128,1202.9032 L229.7238,1202.9032 L229.7688,1202.9482 L229.8288,1202.9482 L229.8408,1202.9032 L229.8848,1202.8592 L229.8288,1202.8092 L229.8288,1202.7742 L229.8648,1202.7372 L229.9288,1202.7202 L229.9028,1202.6902 L229.9028,1202.6162 L230.1528,1202.6072 L230.2498,1202.4972 L230.1688,1202.5222 L230.1298,1202.5222 L230.1298,1202.4862 L230.0698,1202.4862 L230.0308,1202.4432 L230.0888,1202.3862 L230.1128,1202.3862 L230.1638,1202.4052 L230.1928,1202.4052 L230.1748,1202.3372 L230.1368,1202.3372 L230.1198,1202.2832 L230.1458,1202.2562 L230.1808,1202.2472 L230.2168,1202.2132 L230.2168,1202.1822 L230.2738,1202.1562 L230.3368,1202.1562 L230.3548,1202.1742 L230.3248,1202.0292 L230.5218,1202.0132 L230.6028,1201.9432 L230.4038,1201.9562 L230.3558,1201.9092 L230.3638,1201.8722 L230.4208,1201.8722 L230.4708,1201.8232 L230.4488,1201.7742 L230.5458,1201.6852 L230.5288,1201.6692 L230.6628,1201.5572 L230.7488,1201.5422 L230.8308,1201.4632 L230.9628,1201.4542 L231.0288,1201.4932 L231.0628,1201.4932 L231.2068,1201.4312 L230.8778,1201.4212 L230.7878,1201.3702 L230.9338,1201.3192 L230.9588,1201.2952 L231.0398,1201.3312 L231.1728,1201.3412 L231.1548,1201.2972 L231.1058,1201.2972 L231.0498,1201.2412 L231.0728,1201.2182 L231.1518,1201.2182 L231.1728,1201.1952 L231.1398,1201.1622 L231.0398,1201.1442 L231.0008,1201.1852 L230.8968,1201.1802 L230.9548,1201.1222 L230.9778,1201.0782 L230.9938,1201.0602 L231.0448,1201.0452 L231.1178,1201.0782 L231.1858,1201.0782 L231.2298,1201.0552 L231.1678,1200.9892 L231.2408,1200.9162 L231.3058,1200.9162 L231.3058,1201.0222 L231.3368,1201.0532 L231.3918,1201.0452 L231.3858,1200.9832 L231.4738,1200.8722 L231.4388,1200.8342 L231.4388,1200.7752 L231.5538,1200.8152 L231.6258,1200.8152 L231.6748,1200.8542 L231.6748,1200.8312 L231.6978,1200.8092 L231.7198,1200.8092 L231.7838,1200.7452 L231.6808,1200.7452 L231.6578,1200.7692 L231.5198,1200.7422 L231.4968,1200.6992 L231.5318,1200.6592 L231.6188,1200.6182 L231.6658,1200.5712 L231.7698,1200.6182 L231.8118,1200.5782 L231.7978,1200.5362 L231.7698,1200.5072 L231.7768,1200.4402 L231.8348,1200.3822 L231.7698,1200.3502 L231.7118,1200.4092 L231.6258,1200.4122 L231.5928,1200.3672 L231.6308,1200.3282 L231.5678,1200.2632 L231.6418,1200.2342 L231.6978,1200.1762 L231.7468,1200.1762 L231.7898,1200.1362 L231.9148,1200.0872 L231.8818,1200.1382 L231.8818,1200.1712 L231.9428,1200.1712 L232.0688,1200.2972 L232.0888,1200.2692 L232.1488,1200.2692 L232.0888,1200.2052 L232.0928,1200.1712 L232.0328,1200.1202 L232.0328,1200.0692 L232.0798,1200.0222 L232.1658,1200.0222 L232.1658,1200.1262 L232.1948,1200.1822 L232.2588,1200.2472 L232.3118,1200.2472 L232.2388,1200.1712 L232.2388,1200.1202 L232.2608,1200.0602 L232.2908,1200.0292 L232.4508,1200.0292 L232.4228,1200.1762 L232.4048,1200.1942 L232.4558,1200.1762 L232.5178,1200.0942 L232.4908,1200.0692 L232.5178,1200.0262 L232.6848,1199.9332 L232.6848,1200.0552 L232.6568,1200.0812 L232.6568,1200.1202 L232.6058,1200.1662 L232.6058,1200.1942 L232.5478,1200.2532 L232.7548,1200.1182 L232.7908,1200.1182 L232.7568,1200.0602 L232.8548,1199.9402 L232.8918,1199.9772 L232.9478,1199.9772 L232.9578,1199.8902 L233.0208,1199.8682 L233.0698,1199.9202 L233.1468,1199.9142 L233.1468,1199.9422 L233.1878,1199.8862 L233.1878,1199.8472 L233.1318,1199.8422 L233.0698,1199.7792 L232.9968,1199.7502 L232.9968,1199.7202 L233.1038,1199.7202 L233.1748,1199.7462 L233.2198,1199.7262 L233.3048,1199.7622 L233.3578,1199.7352 L233.3878,1199.7062 L233.4658,1199.6692 L233.4658,1199.7282 L233.4908,1199.7552 L233.4908,1199.8072 L233.5648,1199.8672 L233.6378,1199.8422 L233.6028,1199.8052 L233.6028,1199.7692 L233.7218,1199.7022 L233.7448,1199.6342 L233.7718,1199.6062 L233.9348,1199.5962 L233.9238,1199.4982 L234.0398,1199.4982 L234.0398,1199.4382 L234.0068,1199.4382 L234.0398,1199.3882 L234.0398,1199.3532 L234.1418,1199.3092 L234.1898,1199.3092 L234.1898,1199.3372 L234.2408,1199.3672 L234.2798,1199.3672 L234.3058,1199.3402 L234.3698,1199.3212 L234.3338,1199.2842 L234.3628,1199.2282 L234.4468,1199.2282 L234.5518,1199.3342 L234.4428,1199.3322 L234.4038,1199.4332 L234.3738,1199.4332 L234.2548,1199.5572 L234.2018,1199.5712 L234.2258,1199.6012 L234.1988,1199.6242 L234.1988,1199.6952 L234.1728,1199.7222 L234.1808,1199.7692 L234.1988,1199.7882 L234.2708,1199.7842 L234.2938,1199.7602 L234.3198,1199.6292 L234.5558,1199.3962 L234.5928,1199.3992 L234.6398,1199.3502 L234.6768,1199.3502 L234.6988,1199.3212 L234.6928,1199.4722 L234.6688,1199.4972 L234.6648,1199.6392 L234.6988,1199.6392 L234.7768,1199.5822 L234.7998,1199.5972 L234.8148,1199.5822 L234.8458,1199.5842 L234.8458,1199.5542 L234.8778,1199.4832 L234.9518,1199.4232 L234.9338,1199.3532 L234.9388,1199.3092 L234.9598,1199.2862 L234.9988,1199.2692 L235.1078,1199.2692 L235.1488,1199.2472 L235.2168,1199.2472 L235.2168,1199.2982 L235.2678,1199.2982 L235.2678,1199.3322 L235.2898,1199.3532 L235.1958,1199.3742 L235.1138,1199.4342 L235.1138,1199.4722 L235.1788,1199.4722 L235.1958,1199.4892 L235.1608,1199.5222 L235.1808,1199.5402 L235.1808,1199.5962 L235.2298,1199.6162 L235.2298,1199.6562 L235.3018,1199.4982 L235.3018,1199.4612 L235.3838,1199.3882 L235.5398,1199.3932 L235.5798,1199.4332 L235.5728,1199.4772 L235.7978,1199.4772 L235.9018,1199.5572 L236.0648,1199.5882 L236.0648,1199.6562 L236.1058,1199.6992 L236.0748,1199.6992 L236.0088,1199.7232 L235.9528,1199.7232 L235.8408,1199.8252 L235.5518,1199.8252 L235.4788,1199.7902 L235.4058,1199.8122 L235.4898,1199.8522 L235.5338,1199.8582 L235.5848,1199.9032 L235.6238,1199.9032 L235.6958,1199.9722 L235.6958,1200.0132 L235.8468,1200.0132 L235.8878,1199.9772 L235.9368,1200.0322 L236.0038,1200.0132 L236.0378,1199.9802 L236.0818,1200.0262 L236.0418,1200.0662 L236.0548,1200.1382 L236.0338,1200.1572 L235.9528,1200.1552 L235.8798,1200.0982 L235.8368,1200.1262 L235.7358,1200.2502 L235.6568,1200.2502 L235.6418,1200.2692 L235.5968,1200.2692 L235.5638,1200.3462 L235.4878,1200.4212 L235.4128,1200.4212 L235.3858,1200.4732 L235.3458,1200.4732 L235.3218,1200.5122 L235.3408,1200.5342 L235.3508,1200.6502 L235.2898,1200.7072 L235.2898,1200.7572 L235.3208,1200.8252 L235.4268,1200.9362 L235.4988,1200.9542 L235.7508,1201.1942 L235.7518,1201.2162 L235.7358,1201.2632 L235.4738,1201.6042 L235.4718,1201.6372 L235.8058,1202.1742 L235.8058,1202.2742 L235.7078,1202.2832 L235.6708,1202.5222 L235.6888,1202.5392 L235.6888,1202.5712 L235.6358,1202.6292 L235.6708,1202.6992 L235.7878,1202.7742 L235.7878,1202.8122 L235.7688,1202.8392 L235.7688,1202.9092 L235.9388,1203.0602 L235.9368,1203.0982 L235.8718,1203.2112 L235.7648,1203.2842 L236.2488,1203.6672 L236.2488,1203.7132 L236.1848,1203.8672 L235.0798,1204.9022 L234.6928,1204.9222 L234.6488,1204.9072 L234.5328,1204.9662 L234.5028,1204.9662 L234.4938,1204.9732 L234.4128,1204.9832 L234.3898,1204.9702 L234.1988,1205.0522 L234.1018,1205.0452 L234.0228,1205.0972 L234.0228,1205.1202 L233.5768,1205.1422 L233.5048,1205.0712 L233.5028,1205.0522 L233.4878,1205.0362 L233.4878,1205.0262 L233.3578,1205.0342 L233.3798,1204.9772 L233.3638,1204.9562 L233.2478,1204.9242 L233.2308,1204.9072 L233.1488,1204.9072 L233.1118,1204.8682 L233.0348,1204.8322 L233.0118,1204.8072 L232.9968,1204.7552 L233.0228,1204.5942 L233.0478,1204.5692 L233.0438,1204.4982 L233.0648,1204.4772 L233.0528,1204.3962 L233.0728,1204.3742 L233.0348,1204.2412 L232.9888,1204.2072 L232.9888,1204.0422 L232.9798,1204.0152 L232.9798,1203.9912 L232.9448,1203.9702 L232.9448,1203.7692 L232.9878,1203.7002 L233.0298,1203.6852 L233.0458,1203.5802 L233.0728,1203.5322 L233.2588,1203.5362 L233.3028,1203.5152 L233.3218,1203.4972 L233.3218,1203.3902 L233.3798,1203.3212 L233.4038,1203.3372 L233.4828,1203.3152 L233.5318,1203.2222 L233.5808,1203.2002 L233.6158,1203.2042 L233.6418,1203.1782 L233.6458,1203.1482 L233.6638,1203.1322 L233.7078,1203.1162 L234.0578,1202.7352 L234.0858,1202.7222 L234.1058,1202.7022 L234.2618,1202.7022 L234.2668,1202.6732 L234.2878,1202.6392 L234.2878,1202.6162 L234.2488,1202.5752 L234.2378,1202.5202 L234.2548,1202.4522 L234.2458,1202.3632 L234.1888,1202.3462 L234.1328,1202.2842 L234.1028,1202.2882 L234.0768,1202.2632 L234.0368,1202.2632 L233.9888,1202.2162 L233.5318,1202.2372 L233.4878,1202.2172 L233.4628,1202.1942 L233.4398,1202.1942 L233.4108,1202.2132 L233.4108,1202.2302 L233.3218,1202.2232 L233.2988,1202.2832 L233.2988,1202.3102 L233.2588,1202.3252 L233.2178,1202.3252 L233.1898,1202.3542 L233.1898,1202.3862 L233.1548,1202.4252 L233.1038,1202.4252 L233.0788,1202.4512 L233.0888,1202.4702 L233.0828,1202.5132 L233.0598,1202.5382 L233.0418,1202.6232 L232.9738,1202.6852 L232.9528,1202.7302 L232.9368,1202.7302 L232.9558,1202.7842 L233.0348,1202.8592 L233.0438,1202.8892 L233.0418,1202.9122 L232.8378,1203.1412 L232.8378,1203.1642 L232.7918,1203.2112 L232.7878,1203.2392 L232.7388,1203.2392 L232.6458,1203.2752 L232.5848,1203.3282 L232.5388,1203.3402 L232.4898,1203.3842 L232.4618,1203.3842 L232.2698,1203.5322 L232.1658,1203.5502 L232.1188,1203.5972 L232.1058,1203.6382 L232.0598,1203.6562 L232.0128,1203.7202 L231.9348,1203.7452 L231.8798,1203.6852 L231.8958,1203.7282 L231.8758,1203.8742 L231.8458,1203.8932 L231.7458,1203.9022 L231.7298,1203.9922 L231.7788,1204.0242 L231.7538,1204.0622 L231.7538,1204.1182 L231.7218,1204.1502 L231.7218,1204.1852 L231.6958,1204.2112 L231.7068,1204.2512 L231.6418,1204.3342 L231.6398,1204.5132 L231.6518,1204.5472 L231.6518,1204.8002 L231.7508,1204.8152 L231.8638,1204.8942 L231.9048,1204.8942 L231.9458,1204.9382 L232.0278,1204.9742 L232.0238,1205.0032 L232.1138,1205.0962 L232.1608,1205.1162 L232.2258,1205.2022 L232.1468,1205.3252 L232.0928,1205.3372 L232.0278,1205.4092 L232.0278,1205.4302 L232.0688,1205.4552 L232.0888,1205.5002 L232.0378,1205.5102 L231.9908,1205.4782 L231.9908,1205.4332 L231.9558,1205.4332 L231.9688,1205.4712 L232.0178,1205.5242 L231.8408,1205.6942 L231.8408,1205.6632 L231.8208,1205.6362 L231.7978,1205.6232 L231.7898,1205.6342 L231.7948,1205.6662 L231.7388,1205.7302 L231.6648,1205.7502 L231.6188,1205.7422 L231.5648,1205.7972 L231.4828,1205.8062 L231.5168,1205.8442 L231.5078,1205.8672 L231.4808,1205.8932 L231.4888,1205.9022 L231.5078,1205.9522 L231.4808,1206.0082 L231.4808,1206.1442 L231.4428,1206.1502 L231.4638,1206.1902 L231.4718,1206.3562 L231.4518,1206.3992 L231.4388,1206.3992 L231.4328,1206.5712 L231.4178,1206.5842 L231.4128,1206.6382 L231.3548,1206.7162 L231.3548,1206.7442 L231.2968,1206.7982 L231.2898,1206.8502 L231.2628,1206.9072 L231.2368,1206.9332 L231.1958,1207.0122 L231.1488,1206.9662 L231.1398,1206.9332 L230.9538,1206.9332 L230.9208,1206.9432 L230.8918,1206.9432 L230.8388,1207.0052 L230.7718,1207.0122 L230.7428,1207.0422 L230.7428,1207.0622 L230.7038,1207.0922 L230.6898,1207.1182 L230.7278,1207.1562 L230.7278,1207.1822 L230.7138,1207.1952 L230.7038,1207.2742 L230.4958,1207.2882 L230.4718,1207.3092 L230.3868,1207.3122 L230.3288,1207.2812 L230.2918,1207.1592 L230.2588,1207.1112 L230.2018,1207.0842 L230.1808,1206.9022 L230.2218,1206.8192 L230.2618,1206.7862 L230.2478,1206.7232 L230.2128,1206.6902 L230.1768,1206.6752 L230.0738,1206.5482 L230.0698,1206.5202 L230.0488,1206.4872 L230.0308,1206.3992 L229.9488,1206.2922 L229.9488,1206.2632 L229.9028,1206.1782 L229.9058,1206.0362 L229.8328,1205.9732 L229.8228,1205.9552 L229.7738,1205.9142 L229.7618,1205.8932 L229.7118,1205.6532 L229.7038,1205.6502 L229.7058,1205.5402 L229.5678,1205.5132 L229.5678,1205.4072 L229.5308,1205.3682 L229.5308,1205.3102 L229.5598,1205.2832 L229.5598,1205.2212 L229.5318,1205.1942 L229.4878,1205.2412 L229.4878,1205.3322 L229.4388,1205.3562 L229.4388,1205.4022 L229.4828,1205.4452 L229.4018,1205.5292 L229.3838,1205.5752 L229.3508,1205.5752 L229.3108,1205.6132 L229.2818,1205.6132 L229.2468,1205.5772 L229.2178,1205.6042 L229.2178,1205.6532 L229.1778,1205.6942 L229.1378,1205.6942 L229.0748,1205.7552 L229.0318,1205.8542 L228.9948,1205.8892 L228.9528,1205.8892 L228.8918,1205.9542 L228.8638,1205.9542 L228.7998,1206.0172 L228.7258,1206.0172 L228.7028,1206.0392 L228.6528,1206.0502 L228.6238,1206.0782 L228.4058,1206.0782 L228.3788,1206.0502 L228.2558,1206.0502 L228.3188,1205.9832 L228.3058,1205.9642 L228.2508,1205.9642 L228.2188,1205.9962 L228.1348,1205.9552 L228.1348,1205.9142 L228.0448,1205.9142 L228.0108,1205.8492 L227.9158,1205.7532 L227.9158,1205.7022 L227.9518,1205.6662 L227.9718,1205.6072 L228.0288,1205.6632 L228.0958,1205.6632 L228.1698,1205.5872 L228.1348,1205.5872 L228.1108,1205.6112 L228.0548,1205.6022 L228.0718,1205.5292 L228.1028,1205.4972 L228.1398,1205.4972 L228.1108,1205.4702 L228.1278,1205.4162 L228.1808,1205.3652 L228.1608,1205.3442 L228.1108,1205.3942 L227.9828,1205.4022 L227.9938,1205.4452 L227.9208,1205.4732 L227.8268,1205.4732 L227.8268,1205.4332 L227.8108,1205.4162 L227.9048,1205.3722 L227.9498,1205.3722 L228.0468,1205.2752 L228.0838,1205.2752 L228.1148,1205.2422 L228.0448,1205.2422 L228.0048,1205.2262 L227.9688,1205.1902 L228.0548,1205.1042 L228.1398,1205.0802 L228.1398,1205.0362 L228.1928,1204.9832 L228.2118,1205.0032 L228.2388,1205.0032 L228.2628,1204.9802 L228.2068,1204.9482 L228.1548,1204.9482 L228.0498,1205.0582 L227.9828,1205.0802 L227.9308,1205.0272 L227.8428,1205.0272 L227.8188,1205.0522 L227.7798,1205.0122 L227.7798,1204.9662 L227.8658,1204.9362 L227.9108,1204.9362 L227.9598,1204.8862 L227.9268,1204.8682 L227.9048,1204.8462 L227.9428,1204.8102 L227.8808,1204.7842 L227.8808,1204.7622 L227.8318,1204.7622 L227.8048,1204.7352 L227.9388,1204.6042 L228.3508,1204.6222 L228.3918,1204.6632 L228.4298,1204.6342 L228.4858,1204.6342 L228.5298,1204.5882 L228.4938,1204.5532 L228.4178,1204.5272 L227.7768,1204.5452 L227.8268,1204.4712 L227.9108,1204.4712 L227.9638,1204.4542 L227.9268,1204.4542 L227.8428,1204.4092 Z M236.9297,1202.1133 L236.9247,1201.7303 L236.9297,1201.7253 L236.9297,1202.1133 Z M236.9297,1201.7251 L236.9507,1201.7021 L236.9297,1201.7251 Z M240.4951,1208.5361 L240.4821,1208.5361 L240.5231,1208.5101 L240.4951,1208.5361 Z M239.9971,1201.4297 L239.9311,1201.3917 L239.8811,1201.3917 L239.8811,1201.3537 L239.8941,1201.3387 L239.9341,1201.3277 L239.9551,1201.3057 L240.0181,1201.3217 L240.0711,1201.3677 L240.1641,1201.3677 L240.1961,1201.3387 L240.2411,1201.3277 L240.4971,1201.3857 L240.5111,1201.3997 L240.5111,1201.4207 L240.5401,1201.4507 L240.6011,1201.4607 L240.6011,1201.4767 L240.6751,1201.5027 L240.7041,1201.5027 L240.7791,1201.5627 L240.7901,1201.5937 L240.7901,1201.6047 L240.7321,1201.6507 L240.6861,1201.6507 L240.6481,1201.6377 L240.5051,1201.6337 L240.4391,1201.6737 L240.4151,1201.6737 L240.3191,1201.6377 L240.2881,1201.6707 L240.2811,1201.7007 L240.2371,1201.7617 L240.2241,1201.7577 L240.1451,1201.6857 L240.1301,1201.6857 L240.1051,1201.6587 L240.0771,1201.6587 L240.0451,1201.6737 L239.8781,1201.6737 L239.8371,1201.6557 L239.8131,1201.6587 L239.7651,1201.6987 L239.7001,1201.6417 L239.6731,1201.6357 L239.6731,1201.6097 L239.6851,1201.5867 L239.9711,1201.6267 L240.0201,1201.6097 L240.0361,1201.5727 L240.0291,1201.5467 L239.9851,1201.4927 L239.9801,1201.4487 L239.9971,1201.4297 Z M237.8252,1200.9346 L237.8382,1200.9096 L237.8122,1200.8856 L237.8612,1200.8226 L238.2572,1200.7006 L238.3542,1200.7166 L238.4032,1200.7006 L238.5232,1200.7166 L238.5672,1200.7446 L238.6662,1200.7606 L238.7532,1200.8536 L238.7972,1200.8536 L238.9682,1200.9126 L238.9912,1200.9346 L239.1252,1200.9696 L239.1352,1200.9766 L239.1482,1200.9816 L239.2002,1201.0216 L239.2622,1201.0426 L239.3052,1201.0896 L239.4202,1201.1136 L239.4202,1201.1396 L239.4522,1201.1706 L239.5212,1201.1706 L239.6222,1201.2046 L239.6512,1201.2386 L239.6892,1201.2486 L239.7162,1201.2736 L239.6892,1201.3006 L239.5872,1201.3006 L239.5442,1201.3456 L239.5162,1201.3536 L239.2142,1201.3256 L239.1802,1201.3456 L239.0962,1201.3596 L239.0712,1201.3326 L239.1122,1201.2906 L239.1632,1201.2726 L239.1872,1201.2386 L239.1632,1201.2166 L239.1002,1201.1936 L238.9752,1201.1956 L238.9032,1201.1286 L238.9032,1201.0786 L238.8932,1201.0466 L238.8702,1201.0236 L238.8132,1201.0346 L238.6722,1201.0046 L238.5742,1200.9246 L238.5372,1200.9096 L238.4682,1200.9256 L238.4342,1200.9126 L238.4192,1200.8966 L238.2842,1200.8786 L238.3292,1200.8476 L238.3382,1200.8176 L238.1642,1200.7946 L238.0552,1200.8686 L237.9152,1200.9056 L237.8282,1200.9626 L237.8252,1200.9346 Z" id="icon-map-europe" stroke="none" fill="#FFFFFF" fill-rule="evenodd"></path>
</svg>
