
<svg width="14px" height="19px" viewBox="226 778 14 19" version="1.1" xmlns="http://www.w3.org/2000/svg" xmlns:xlink="http://www.w3.org/1999/xlink">
    <!-- Generator: Sketch 42 (36781) - http://www.bohemiancoding.com/sketch -->
    <desc>Created with Sketch.</desc>
    <defs></defs>
    <path d="M229.9141,786.0674 C229.9351,786.0254 229.8101,785.9634 229.8101,785.9634 C229.8101,785.9634 229.8101,786.0054 229.7881,786.0054 C229.7471,785.9854 229.7681,785.9224 229.7681,785.9014 C229.7881,785.9224 229.8101,785.9224 229.8101,785.9444 C229.8101,785.9014 229.7681,785.8404 229.7681,785.8194 C229.7681,785.8194 229.7881,785.7984 229.8101,785.7984 C229.8311,785.7984 229.9541,785.8804 229.9541,785.9224 C229.9761,785.9634 230.0381,785.9854 230.0791,785.9854 C230.0791,786.0054 230.0381,786.0054 230.0381,786.0054 C230.0381,786.0054 230.0581,786.0254 230.0791,786.0254 C230.1001,786.0254 230.1201,786.0464 230.1201,786.0674 C230.1201,786.0874 230.0581,786.1084 230.0381,786.1084 L230.0381,786.1694 C230.0181,786.1904 229.9971,786.0874 230.0181,786.0674 C230.0181,786.0874 229.9541,786.0874 229.9141,786.0674 M229.7681,794.4484 C229.7471,794.4484 229.7471,794.4684 229.7271,794.4684 C229.7061,794.4684 229.7681,794.3444 229.7061,794.3664 C229.6861,794.3854 229.6651,794.4074 229.6861,794.3664 C229.6651,794.3854 229.7271,794.3664 229.6861,794.3034 L229.6651,794.3444 C229.6861,794.2634 229.5821,794.2414 229.6031,794.3234 C229.6031,794.2634 229.5411,794.2834 229.5001,794.3034 L229.4791,794.3034 C229.4601,794.3444 229.4791,794.3444 229.4791,794.3664 C229.5001,794.3664 229.5221,794.3444 229.5221,794.3034 C229.5221,794.3234 229.5411,794.3854 229.5001,794.3854 C229.5001,794.4264 229.4171,794.3664 229.4791,794.4264 C229.4381,794.4074 229.3561,794.4894 229.3781,794.5314 C229.3971,794.6124 229.4171,794.5314 229.4381,794.5714 C229.4381,794.5524 229.4601,794.4894 229.5001,794.4484 C229.4791,794.5524 229.5631,794.5524 229.6031,794.5314 C229.6031,794.5314 229.5821,794.5314 229.5821,794.5104 C229.6451,794.5104 229.6861,794.5314 229.7061,794.5924 C229.7271,794.6334 229.7271,794.6334 229.7061,794.6334 C229.6861,794.6554 229.6861,794.6554 229.7061,794.6744 C229.6451,794.5714 229.6231,794.8004 229.7061,794.7374 C229.7271,794.7564 229.6451,794.7784 229.6451,794.7784 C229.6651,794.7564 229.6651,794.7374 229.6231,794.7374 L229.6031,794.7784 C229.6451,794.8194 229.7881,794.7784 229.7681,794.7164 C229.7681,794.7784 229.8311,794.8194 229.8931,794.8404 C229.8721,794.8404 229.8311,794.8404 229.8101,794.8194 C229.8101,794.8604 229.8721,794.9024 229.8931,794.8604 C229.8721,794.9444 229.7881,794.8814 229.7471,794.8604 L229.6231,794.8604 C229.6651,794.8814 229.7271,794.9654 229.7681,794.9654 C229.7681,794.9854 229.6651,795.0464 229.7471,795.0674 C229.6651,795.0674 229.6861,795.2534 229.7471,795.2744 C229.7881,795.2344 229.7881,795.0884 229.8521,795.1304 C229.7881,795.1304 229.8311,795.1904 229.8101,795.1904 C229.7881,795.2344 229.8721,795.2744 229.8311,795.2744 C229.8101,795.2534 229.7881,795.2744 229.7881,795.2944 L229.7881,795.3364 C229.8101,795.3564 229.8521,795.3564 229.8721,795.3564 C229.8721,795.3784 229.8521,795.3784 229.8721,795.3964 C229.8521,795.3964 229.8101,795.3784 229.7881,795.3784 C229.7681,795.3964 229.8721,795.4604 229.8931,795.4604 C229.8521,795.4604 229.7681,795.3964 229.7471,795.4604 C229.7471,795.4804 229.8101,795.5004 229.8311,795.4804 C229.8311,795.5224 229.8521,795.5224 229.8931,795.5004 C229.8931,795.5224 229.8931,795.5414 229.8721,795.5414 L229.8721,795.5644 C229.8521,795.5414 229.8521,795.5414 229.8311,795.5414 C229.9141,795.6644 229.8931,795.5644 229.9541,795.5004 C229.9351,795.5414 229.9351,795.5644 229.9761,795.5644 C229.9351,795.5824 229.8931,795.5824 229.9351,795.6464 C229.9141,795.6234 229.8521,795.6234 229.8721,795.6644 L229.8931,795.6464 C229.8931,795.6864 229.8931,795.6864 229.9141,795.7074 L229.9141,795.6864 C229.9351,795.7274 229.9541,795.7274 229.9541,795.6864 C229.9761,795.7074 229.9971,795.7904 230.0181,795.8114 C230.0181,795.8114 229.9541,795.7484 229.9541,795.7694 C229.9541,795.8304 229.9971,795.8114 230.0181,795.8724 C230.0381,795.8304 230.0181,795.8524 230.0581,795.8524 C230.0381,795.9344 230.1001,795.9134 230.1201,795.9554 C230.1201,795.9554 230.1411,795.8724 230.1621,795.8724 C230.1001,795.9134 230.1411,795.8524 230.1001,795.8304 C230.1201,795.8304 230.2641,795.8724 230.2641,795.8934 L230.2241,795.8934 C230.2641,795.9754 230.3061,796.0174 230.2031,796.0384 C230.2851,795.9754 230.1831,795.9344 230.1831,795.9344 C230.1621,795.9344 230.2031,795.9754 230.2031,795.9754 C230.2031,795.9974 230.1831,795.9974 230.1621,795.9974 C230.1831,795.9344 230.0791,795.9754 230.0791,795.9974 C230.0581,795.9754 230.0581,795.9754 230.0381,795.9554 C230.0581,795.9974 230.0791,796.1014 230.1001,796.1204 L230.0791,796.1414 C230.1001,796.1414 230.1201,796.1204 230.1201,796.1014 L230.1411,796.1204 C230.1831,796.1414 230.0791,796.0384 230.2031,796.0794 L230.1621,796.0794 C230.2241,796.0794 230.1201,796.1014 230.1621,796.1414 L230.1001,796.1414 L230.1621,796.1614 C230.1411,796.1824 230.1411,796.1824 230.1201,796.2024 C230.1411,796.2234 230.1621,796.2434 230.1831,796.2234 L230.1621,796.2234 C230.2031,796.2024 230.2241,796.1614 230.2241,796.1014 L230.1831,796.1204 C230.1831,796.0574 230.2241,796.0794 230.2851,796.0574 C230.2641,796.1014 230.2851,796.0574 230.2851,796.1014 C230.2851,796.1014 230.4091,796.0384 230.4501,796.0794 C230.4291,796.0574 230.2641,796.1414 230.2431,796.1614 C230.2431,796.1414 230.1621,796.2234 230.2641,796.2434 C230.2431,796.2654 230.2431,796.2434 230.2641,796.2864 C230.2431,796.2654 230.1831,796.2654 230.1621,796.2654 C230.1831,796.2864 230.2241,796.3054 230.2641,796.3274 L230.2641,796.3054 C230.2851,796.3274 230.3061,796.3274 230.3481,796.3274 C230.3251,796.3054 230.3061,796.2864 230.2851,796.2864 C230.3251,796.2864 230.3061,796.2654 230.3061,796.2434 L230.3671,796.2434 C230.3671,796.2234 230.3061,796.2234 230.3061,796.2234 C230.3481,796.2024 230.3671,796.2234 230.4091,796.2024 C230.4501,796.1824 230.4721,796.1204 230.5131,796.1204 C230.5951,796.1414 230.3881,796.3054 230.3671,796.3054 C230.3881,796.2864 230.3881,796.2654 230.3481,796.2654 C230.3061,796.2654 230.4501,796.4094 230.5131,796.3874 C230.5751,796.3684 230.5751,796.2654 230.5751,796.2024 C230.5751,796.0794 230.5341,796.1014 230.6571,796.0384 C230.7391,795.9974 230.8641,795.9134 230.9671,795.9754 C230.9871,795.8724 230.8231,795.7484 230.7391,795.7904 C230.8231,795.7484 230.8431,795.8114 230.8431,795.7074 C230.8431,795.6644 230.8021,795.6464 230.7801,795.6044 C230.7611,795.4804 230.9671,795.3964 230.8231,795.2744 C230.8641,795.3154 230.9041,795.3964 230.9871,795.3364 C231.0501,795.2944 231.0081,795.1714 231.0261,795.1304 C231.0691,795.0264 231.2331,794.8004 231.3381,794.7564 C231.3171,794.6964 231.2551,794.7164 231.2141,794.7374 C231.2761,794.7164 231.3581,794.6554 231.3381,794.5924 C231.3171,794.5104 231.1921,794.5104 231.1111,794.4894 C230.8841,794.4074 230.9461,794.1374 231.1111,794.0134 C231.1731,793.9734 231.2761,793.9934 231.3171,793.9524 L231.3791,793.8074 C231.3991,793.7254 231.3581,793.6644 231.3791,793.5814 C231.3991,793.4774 231.5241,793.4774 231.5651,793.3964 C231.4811,793.4154 231.3791,793.2304 231.4811,793.2704 C231.5441,793.2914 231.5651,793.3734 231.6281,793.3734 C231.7501,793.3734 231.7291,793.1694 231.5651,793.2104 C231.5651,793.2304 231.6061,793.2304 231.6061,793.2504 C231.5861,793.2914 231.5441,793.2704 231.5241,793.2704 C231.5241,793.2104 231.4811,793.2504 231.4401,793.2104 C231.3991,793.1884 231.4211,793.1694 231.3991,793.1064 C231.3991,793.0664 231.3791,792.8804 231.4211,792.8584 C231.4811,792.7964 231.7711,792.9824 231.8951,792.9214 C232.0181,792.8584 231.9561,792.7964 231.9561,792.7144 C231.9561,792.6324 232.0181,792.5064 231.9981,792.4464 C231.9771,792.3844 231.8531,792.3424 231.9981,792.3014 C232.0601,792.2804 232.1641,792.3424 232.2471,792.3424 C232.4741,792.3424 232.7631,792.2584 232.9501,792.1354 C233.0521,792.0534 233.3401,791.8054 233.1961,791.6394 C233.1761,791.5974 233.1351,791.6394 233.0931,791.5794 C233.0521,791.5364 233.0731,791.4964 233.0731,791.4544 C233.0731,791.3314 233.0931,791.3104 232.9691,791.2274 C232.8871,791.1644 232.8251,791.1644 232.8041,791.0414 C232.8041,791.0204 232.8251,790.9604 232.8251,790.9164 C232.8251,790.8564 232.7841,790.7944 232.8451,790.7534 C232.8251,790.7724 232.8451,790.8984 232.8451,790.9164 C232.8641,791.0004 232.8871,791.0624 232.9691,791.0824 C233.0521,791.1234 233.1531,791.1234 233.2371,791.1644 C233.3191,791.2064 233.4021,791.2274 233.5051,791.2274 C233.7131,791.2274 233.7951,791.1644 233.9381,791.0004 C234.0631,790.8564 234.1871,790.7124 234.2901,790.5464 C234.3931,790.4014 234.5791,790.3384 234.6821,790.1954 C234.8271,789.9894 234.9301,789.8034 235.1161,789.6184 C235.2801,789.4524 235.2801,789.2454 235.2391,789.0184 C235.2191,788.8544 235.3021,788.8114 235.3851,788.7304 C235.3851,788.7304 235.3631,788.7504 235.3851,788.7304 C235.3851,788.7304 235.3631,788.7504 235.3851,788.7304 C235.3851,788.6884 235.4671,788.7074 235.4461,788.6254 C235.4251,788.5644 235.8801,788.4204 235.8581,788.3374 C235.8801,788.4204 236.1491,788.2744 236.1891,788.2744 C236.2911,788.2344 236.3951,788.2144 236.5001,788.1724 C236.6641,788.1304 236.8901,788.2554 237.0361,788.1304 C237.0361,788.1304 237.2841,787.9034 237.3051,787.8634 C237.3661,787.7584 237.4071,787.6554 237.4691,787.5324 C237.5301,787.4294 237.6351,787.3054 237.6961,787.2024 C237.7171,787.1394 237.7171,787.0574 237.7381,786.9754 C237.7571,786.9134 237.8191,786.8724 237.8411,786.8304 C237.9651,786.6024 238.0481,785.8804 238.0261,785.6534 C238.0261,785.6534 238.0681,785.6124 238.0891,785.5714 C238.1081,785.5524 238.1081,785.5084 238.1301,785.4894 C238.0891,785.4894 238.0891,785.4684 238.1081,785.4264 C238.1081,785.5084 238.1491,785.4474 238.1491,785.4064 C238.1711,785.4474 238.2131,785.4894 238.1711,785.5294 C238.3561,785.5294 238.5221,785.1184 238.5221,785.1184 C238.5831,785.1374 238.6251,784.9714 238.6041,784.9524 C238.6251,784.9524 238.6451,784.9714 238.6251,785.0134 C238.6651,784.9524 238.9971,784.7044 238.9971,784.7254 C239.1201,784.6624 239.2251,784.4984 239.2661,784.3544 C239.2861,784.2914 239.2661,784.2074 239.2861,784.1464 C239.2861,784.1064 239.3271,784.0644 239.3271,784.0644 C239.3271,784.0644 239.3271,784.1064 239.3271,784.0644 C239.3271,784.0444 239.3271,784.1064 239.3271,784.0644 C239.3271,784.0444 239.3271,784.1064 239.3271,784.0644 C239.3271,784.0444 239.3271,784.1064 239.3271,784.0644 C239.3491,783.9404 239.2861,783.6724 239.2441,783.5884 C239.1831,783.4654 238.9141,783.4444 238.9141,783.4444 C238.6651,783.3844 238.5411,783.1354 238.3561,782.9914 C238.1301,782.8054 237.9241,782.7024 237.6351,782.7024 C237.6351,782.7214 237.1591,782.5174 237.0991,782.5174 C237.0561,782.5174 236.8501,782.5364 236.8501,782.5774 C236.8501,782.5364 236.8901,782.5174 236.9121,782.4954 C236.7881,782.4734 236.7881,782.6614 236.6851,782.7214 C236.6851,782.6824 236.7681,782.4544 236.7881,782.4954 C236.7681,782.4734 236.7051,782.3094 236.6851,782.2694 C236.6851,782.2484 236.6431,782.2694 236.6431,782.2484 C236.6021,782.1854 236.5811,782.2694 236.5401,782.2884 C236.5191,782.2884 236.5401,782.1854 236.5401,782.1854 L236.4571,782.1854 C236.4571,782.1644 236.4571,782.1434 236.4371,782.1234 C236.4371,782.1434 236.4151,782.1644 236.4151,782.1644 C236.4371,782.1854 236.3541,782.0824 236.2911,782.1234 C236.3131,782.1024 236.3131,782.0824 236.3131,782.0614 C236.2291,782.1234 236.2101,782.0404 236.1251,782.0004 C236.0041,781.9164 235.7981,781.9384 235.7151,782.0614 C235.7351,782.0204 235.6531,782.1854 235.6731,782.2274 C235.5691,782.0824 235.4041,782.3724 235.3631,782.4544 C235.3631,782.4334 235.4041,782.2274 235.4251,782.2274 C235.3851,782.2484 235.3021,782.2884 235.2611,782.2884 C235.2191,782.2884 235.1161,782.2694 235.1161,782.2694 C235.0951,782.2694 235.0751,782.2484 235.0541,782.2484 C234.9301,782.1854 235.0751,782.0204 234.9091,782.0404 C234.8271,782.0614 234.7651,782.1234 234.6821,782.1644 C234.6001,782.1854 234.5381,782.1644 234.4551,782.1644 C234.5381,782.1234 234.6411,782.1234 234.7031,782.0614 C234.7851,782.0004 234.8061,781.8754 234.8681,781.7944 C234.9501,781.7104 235.0541,781.6294 235.1371,781.5464 C235.2001,781.5054 235.2391,781.4624 235.2391,781.3804 C235.2611,781.2164 235.0541,781.2374 234.9931,781.1534 L235.0141,781.1744 C235.0141,781.1744 234.9501,780.8644 234.9501,780.8424 C234.9091,780.6994 234.8681,780.5954 234.7431,780.5134 C234.6201,780.4094 234.4761,780.3274 234.3311,780.2454 C234.2901,780.2234 234.2481,780.1854 234.2061,780.1854 C234.0631,780.1414 233.9381,780.1204 233.8151,780.1204 C233.7541,780.1204 233.5051,780.0384 233.5481,780.1634 C233.5481,780.0804 233.4021,780.0804 233.3401,780.0804 C233.2171,780.0804 233.2371,780.1414 233.1531,780.2044 C233.1761,780.1634 233.1531,779.9144 233.0731,779.9974 C233.0521,779.9364 232.9691,779.8524 232.9071,779.8524 C232.8041,779.8524 232.8251,779.9364 232.7431,779.9754 C232.9071,779.6864 232.6171,779.5224 232.4121,779.4404 C232.3091,779.3994 232.2681,779.3784 232.1431,779.3994 C232.0811,779.4194 231.9371,779.4614 231.8951,779.3784 C232.0181,779.3784 232.1851,779.2134 232.0601,779.1304 C232.0181,779.1104 231.9371,779.0694 231.8951,779.0484 C231.8731,779.0274 231.8121,779.0064 231.7911,779.0274 C231.8121,778.9224 231.8121,778.9854 231.7721,778.9854 C231.7501,778.9444 231.7501,778.9034 231.7071,778.8844 C231.6891,778.8624 231.6471,778.8844 231.6471,778.8844 C231.6281,778.8844 231.5651,778.8624 231.6061,778.8004 C231.6471,778.7374 231.8331,778.7794 231.8951,778.6964 C231.7291,778.7174 231.5651,778.7174 231.3991,778.7174 C231.3791,778.7174 231.2141,778.7374 231.2141,778.7374 C231.2331,778.7794 231.3381,778.7374 231.3791,778.7584 C231.1921,778.8214 230.8431,778.8214 230.6981,778.7374 C230.5541,778.6554 230.4091,778.7794 230.2641,778.7794 C230.2031,778.7794 230.1411,778.7794 230.1001,778.7374 C230.0581,778.7174 230.0791,778.6554 230.0791,778.6554 C230.0181,778.4694 229.8101,778.5934 229.6861,778.4914 C229.6451,778.4504 229.6451,778.3454 229.6031,778.3254 C229.5001,778.2844 229.5411,778.4504 229.5221,778.4694 C229.5411,778.4914 229.3561,778.6144 229.2531,778.6354 C229.1081,778.6764 229.1491,778.7174 229.2121,778.8404 C229.2531,778.9224 229.3361,779.0694 229.2121,779.1514 C229.1711,779.1714 229.0471,779.1304 229.0261,779.0484 C229.0051,779.0484 229.0471,778.9224 229.0881,778.8404 C229.1081,778.7794 229.0881,778.6554 229.1291,778.6554 C228.9421,778.5524 229.0881,778.5324 229.1901,778.4694 C229.2941,778.3874 229.2531,778.2634 229.1491,778.2844 C229.1081,778.3054 229.0671,778.3664 229.0671,778.3254 C229.0051,778.3254 228.9421,778.4294 228.9011,778.4694 C228.7991,778.5324 228.6961,778.5934 228.5711,778.5934 C228.4891,778.6144 228.4481,778.5934 228.4051,778.6554 C228.3871,778.6764 228.2221,778.6764 228.1381,778.7584 C228.0771,778.8004 228.0561,778.8844 227.9931,778.9444 C228.0141,778.9224 228.0141,779.1104 228.0141,779.0884 C228.0141,779.1104 227.9741,779.1304 227.9521,779.1514 C227.8501,779.2134 227.6221,779.3994 227.6421,779.3994 C227.5811,779.3784 227.5181,779.3784 227.5181,779.3784 C227.4561,779.4404 227.5601,779.5224 227.5811,779.5644 C227.5391,779.5644 227.4561,779.6464 227.4361,779.6464 C227.3731,779.6864 227.3731,779.7274 227.3951,779.8114 C227.3951,779.8324 227.5391,780.0384 227.4771,780.0184 C227.4771,780.0594 227.5391,780.0804 227.5391,780.1414 C227.5391,780.1854 227.4971,780.2044 227.4561,780.2454 C227.6011,780.2454 227.4561,780.5534 227.5391,780.5754 C227.4971,780.5754 227.4771,780.6374 227.4971,780.6574 C227.5181,780.6794 227.5601,780.6794 227.5391,780.6994 L227.5601,780.7194 C227.5601,780.7194 227.4561,780.9474 227.4141,780.9684 C227.4141,780.9684 227.4361,781.0084 227.3951,781.0304 C227.3331,781.0714 227.2711,781.0304 227.2101,781.0904 C227.1881,781.1124 227.1881,781.1534 227.1671,781.1744 C227.1881,781.1954 227.1881,781.2164 227.1881,781.2564 C227.1671,781.2764 227.1471,781.2764 227.1251,781.2764 C227.0861,781.3384 227.1251,781.4014 227.1061,781.4424 C227.0641,781.5054 226.8781,781.4834 226.8991,781.5664 C226.8151,781.4624 226.7971,781.7104 226.7741,781.7514 C226.7551,781.8144 226.5891,781.9804 226.7331,782.0004 C226.6101,781.9384 226.5891,782.1854 226.6101,782.2274 C226.6101,782.2694 226.6511,782.4734 226.5491,782.4334 C226.5691,782.4734 226.6921,782.5574 226.7331,782.5574 C226.7971,782.5574 226.7971,782.4734 226.8381,782.4334 C226.8381,782.4544 226.8151,782.4544 226.8151,782.4734 L226.8381,782.4734 C226.8151,782.4734 226.8151,782.4954 226.8151,782.5174 C226.8781,782.4734 226.8151,782.3914 226.8781,782.3504 C226.8151,782.4134 226.8781,782.4954 226.8581,782.5574 C226.8581,782.6614 226.8381,782.6614 226.7741,782.7214 C226.6921,782.8054 226.5081,782.9074 226.4871,783.0524 C226.4671,783.1764 226.6101,783.2584 226.5891,783.3844 C226.5891,783.4654 226.5281,783.4654 226.5491,783.5284 C226.5691,783.5884 226.7331,783.6104 226.7971,783.6304 C227.1671,783.8374 227.3331,784.3964 227.5601,784.7454 C227.6631,784.9114 227.7671,785.0554 227.8901,785.2214 C228.0351,785.3854 227.9521,785.5714 228.0971,785.7374 C228.3451,786.0254 228.7381,786.0874 229.0671,786.2314 C229.2531,786.3144 229.3561,786.4574 229.5221,786.5644 C229.6861,786.6864 229.7061,786.8304 229.7271,787.0364 C229.7471,787.2844 229.7881,787.5534 229.7471,787.8004 C229.7271,787.8844 229.6651,787.9874 229.6651,788.0884 C229.6651,788.0884 229.7061,788.1514 229.7061,788.1724 C229.7471,788.2744 229.7271,788.3994 229.7271,788.5034 C229.7271,788.7304 229.7061,788.9984 229.6451,789.2254 C229.6031,789.3494 229.5631,789.4934 229.5821,789.6184 C229.6031,789.7424 229.6451,789.8034 229.6031,789.9264 C229.5411,790.1544 229.6231,790.3384 229.6451,790.5674 C229.6651,790.8344 229.6031,791.0824 229.5411,791.3314 C229.5411,791.3724 229.4381,791.7234 229.4381,791.7234 C229.4381,791.7434 229.3971,791.9504 229.3561,791.8874 L229.3561,792.0534 C229.3781,792.1354 229.4171,792.2194 229.4381,792.3014 C229.4381,792.3214 229.5221,792.6324 229.5001,792.6324 C229.3971,792.6324 229.4171,792.7764 229.4171,792.8804 C229.4171,792.8994 229.4601,793.1484 229.5821,793.1484 C229.6231,793.1484 229.6231,793.0844 229.6451,793.0844 C229.6861,793.0664 229.7881,793.0664 229.7881,793.0844 C229.7681,793.1064 229.7271,793.1064 229.7271,793.1254 C229.7271,793.1484 229.6861,793.2704 229.7681,793.1884 C229.7881,793.1884 229.8101,793.3114 229.8101,793.3114 C229.7061,793.2504 229.7681,793.4564 229.7681,793.4774 C229.7061,793.4364 229.7271,793.6644 229.7471,793.6644 C229.8101,793.6434 229.7271,793.6854 229.7271,793.7454 C229.7271,793.7884 229.8311,793.8894 229.8521,793.8074 C229.8521,793.9334 229.7471,793.9934 229.7271,794.0774 C229.7681,794.2214 229.7681,794.3234 229.7681,794.4484" id="icon-map-south-america" stroke="none" fill="#FFFFFF" fill-rule="evenodd"></path>
</svg>
